/* XPM */
static char *monter1[] = {
/* columns rows colors chars-per-pixel */
"60 60 242 2 ",
"   c #010101",
".  c #0C0C0C",
"X  c #0B0606",
"o  c #160707",
"O  c #131312",
"+  c #1C1B1B",
"@  c #171817",
"#  c #101515",
"$  c #280506",
"%  c #2B1414",
"&  c #231C1B",
"*  c #291818",
"=  c #361A1B",
"-  c #3B0809",
";  c #23201E",
":  c #1C1F20",
">  c #251F20",
",  c #242424",
"<  c #2B2422",
"1  c #2C2925",
"2  c #2B2B2B",
"3  c #252828",
"4  c #322C2B",
"5  c #382525",
"6  c #34312D",
"7  c #38332D",
"8  c #333333",
"9  c #393531",
"0  c #3C3C3B",
"q  c #393837",
"w  c #2A3131",
"e  c #1D2724",
"r  c #490608",
"t  c #5A0303",
"y  c #561718",
"u  c #441819",
"i  c #650203",
"p  c #680608",
"a  c #7C0102",
"s  c #760709",
"d  c #711619",
"f  c #451E22",
"g  c #4C2A2B",
"h  c #472526",
"j  c #522B2B",
"k  c #5A292A",
"l  c #433C39",
"z  c #573536",
"x  c #4B2D30",
"c  c #672E2D",
"v  c #643233",
"b  c #683738",
"n  c #743C3D",
"m  c #793939",
"M  c #3D433E",
"N  c #46423E",
"B  c #58403A",
"V  c #413F41",
"C  c #723F40",
"Z  c #444444",
"A  c #4B4C4B",
"S  c #4A4744",
"D  c #544B47",
"F  c #57524D",
"G  c #4E5253",
"H  c #545454",
"J  c #5C5C5C",
"K  c #5A5754",
"L  c #674848",
"P  c #7B4546",
"I  c #655C58",
"U  c #775758",
"Y  c #65615A",
"T  c #6A655C",
"R  c #73665D",
"E  c #595F60",
"W  c #646464",
"Q  c #6D6D6D",
"!  c #696864",
"~  c #746C64",
"^  c #756B69",
"/  c #7C746A",
"(  c #77736C",
")  c #737474",
"_  c #7C7B7B",
"`  c #7B7975",
"'  c #6B6F70",
"]  c #830101",
"[  c #880405",
"{  c #9D0101",
"}  c #95080A",
"|  c #8E1213",
" . c #A70506",
".. c #B60406",
"X. c #A71011",
"o. c #883636",
"O. c #C50506",
"+. c #D80606",
"@. c #CB0F11",
"#. c #E60303",
"$. c #FF0203",
"%. c #F90707",
"&. c #CD312F",
"*. c #8A433E",
"=. c #94423D",
"-. c #B2403C",
";. c #C8443E",
":. c #9A3E40",
">. c #834344",
",. c #8C4545",
"<. c #8D4947",
"1. c #8D4A4A",
"2. c #884749",
"3. c #924B4B",
"4. c #974949",
"5. c #8C5655",
"6. c #935152",
"7. c #945B5B",
"8. c #9B5959",
"9. c #8D4F4F",
"0. c #A55858",
"q. c #B65A5A",
"w. c #A24E4E",
"e. c #8B6867",
"r. c #976565",
"t. c #857C73",
"y. c #877B76",
"u. c #8E7775",
"i. c #A56666",
"p. c #B86767",
"a. c #A47879",
"s. c #895F61",
"d. c #C65E5C",
"f. c #CA4C45",
"g. c #C96666",
"h. c #D96D6C",
"j. c #D36A69",
"k. c #DD706F",
"l. c #DE7171",
"z. c #D87472",
"x. c #D17170",
"c. c #E47473",
"v. c #E97675",
"b. c #EC7977",
"n. c #EC7A7A",
"m. c #E67A79",
"M. c #F37D7B",
"N. c #E2706E",
"B. c #8B8378",
"V. c #93897E",
"C. c #91877C",
"Z. c #7B7E80",
"A. c #7D8383",
"S. c #838484",
"D. c #8C8C8B",
"F. c #898987",
"G. c #978C84",
"H. c #9B9589",
"J. c #939494",
"K. c #9C9C9C",
"L. c #999B97",
"P. c #8B9393",
"I. c #A4988B",
"U. c #AA9F91",
"Y. c #A69C94",
"T. c #AA8180",
"R. c #A9A296",
"E. c #BBAD9D",
"W. c #B4A899",
"Q. c #B5A897",
"!. c #9E9FA0",
"~. c #9EA1A0",
"^. c #A4A4A4",
"/. c #ACACAC",
"(. c #A7AAAA",
"). c #B7ACA3",
"_. c #BEB1A2",
"`. c #BEB9AA",
"'. c #B4B4B4",
"]. c #BBBCBC",
"[. c #B6BAB6",
"{. c #AEB6B5",
"}. c #B29FA0",
"|. c #CA948D",
" X c #E88584",
".X c #F58786",
"XX c #F49A9A",
"oX c #E89393",
"OX c #C3B5A5",
"+X c #C7B8A6",
"@X c #C9BAA7",
"#X c #C5B7A9",
"$X c #C6B9AA",
"%X c #CBBDAC",
"&X c #C8B7A9",
"*X c #CDBEB0",
"=X c #C3B2B2",
"-X c #D0BFAF",
";X c #F9A6A6",
":X c #CEC0AE",
">X c #C3C1AF",
",X c #D1C2AF",
"<X c #CEC1B1",
"1X c #CAC9BA",
"2X c #D2C4B4",
"3X c #D5C8B6",
"4X c #D9CAB7",
"5X c #D3C7B8",
"6X c #D6CAB9",
"7X c #DACDBC",
"8X c #D8C7B6",
"9X c #DDD0BE",
"0X c #D0D0BD",
"qX c #E1D2BD",
"wX c #E0CFBC",
"eX c #BEBFC0",
"rX c #BEC4C4",
"tX c #C3C3C3",
"yX c #CDCDCD",
"uX c #C6C9C9",
"iX c #D8CFC5",
"pX c #DDD2C1",
"aX c #D9D8C6",
"sX c #D4D5D5",
"dX c #DBDCDC",
"fX c #D5DBDA",
"gX c #CAD0D0",
"hX c #E2D4C3",
"jX c #E4D9C6",
"kX c #E8DAC9",
"lX c #E0DFDE",
"zX c #DDE0DF",
"xX c #F1E2CF",
"cX c #DFDFE0",
"vX c #DDE2E2",
"bX c #E3E4E4",
"nX c #ECECEC",
"mX c #E5EAEA",
"MX c #EDF2F2",
"NX c #F4F4F4",
"BX c #F4FBFA",
"VX c #FEFEFE",
/* pixels */
":X%X+X+X).+X%XOX*X#X*X5XhX7X2X4XwX,X,X:X%X:X%X#X+X%X%X%X<X:XOX6X7X3X2XiX7X6X2X,X%X$X_.E._.OX%X%X<X6X7X6X2X2X<X:X6X<X%X2X",
"@X*X$X:XY ~ 2X_.OX%X%X5XkX7X8X7X4X,X%X:X<X<X%XE.+X@X%X%X2X%X#X5X7X2X6XpX7X6X2X<X*X$X+X$X+X#X%X<X<X<X6X6X2X3X<X$X6X2X*X%X",
"OX+X$XE.y.` Q.+X_.$X%X6XkXpX6X7X9X,X@X%X%X%X%X).+X%X%X:X<X*X`.6X0X6X2X2X7X6X2X<X2X@X&X$X#X%X<X%X<X<XiX4X2X<X<X*X5X2X<X%X",
"OX%X%XI.J.'.B.,XOX$X2X6XhX7X6X9XwX,X%X%X:X%X$X_.OX%X%X:X*X$X$X7XpX6X<X5X6X6X<X:X*X$X+XOX_.$X%X%X<X5XhX7X2X5X*X$X2X2X<X%X",
"$X%X2XU.D.NX^ 3XOX$X<X<XaX4X4XqXqX,X@X2X$X+XOXOX&X$X%X%X<X*X=X6XpX6X6XpX9X6X<X<X*X*X%X+X_.OX*X:X>X5XpX3X2X<X:X$X6X5X*X%X",
"%X$X@XQ.( VXD.U.*X<X%X2XkX<X3XqXwX,X$X$X2X3X%X$XOX$X2X%X<X%X$X6X9XpX<XaX6X4X3X:X%X2X,XOXE.#X%X%X*X6XpX<X:X,X:XOX6X6X*X*X",
"OXOX$X%XT NXsXt.7X<X:X<XjX5X2XqX4X,X$X4XG.Y I.<X2X+XW.2X6X*X$X6X7X4X:XiXpX5X2X:X%X*X*XOXOX$X:X%X%X<XpX3X*X<X%X_.2X6X2X%X",
"OX+X+X,X~ /.VX` OX6X%X2XhX6X8XjXqX%X4X/ o h   & I K ].J.I.U._.iXhX2X>XpXpX6X<X<X*X%X,XOXOX$X:X%X>X<XpX<X<X<X3XOX2X7X$X2X",
"OX@X&X*XU.Q VX=XD.9X%X3XhXpX7XqXhXwX( 5 z l Z A Q dXVXyXbXsX'.H.7X2X%X6X6X5X*X<X:X@X@X+X+X$X,X%X<X<XiX2X:X6X5X$X3XpX<X%X",
"OX@X$X$X7XK dXVX_ +X:X:XpXpX2XkXhXK z p.O A.=XyXmXVXVXVXVXVXVXtX` 1X2XiXiX2X%X%X$X@X,XOXOX%X:X%X*X5XpX2X<X8X<X%X2X6X*X<X",
"@X*X%X:XkXB.F.VX'.B.2X<XhX6XqXR.6 b .Xn @ D.uXNXVXVXVXVXVXVXVXVX[.) C.E.E.OX6X2X%X+X,X_._.%X%X%X3X6X6X3X2X7X2X<X2XpX<X%X",
"%X2X%X3X7X2XA NXVX` E.<XaXkXV.O i.n.m.= ) tXnXVXVXVXVXVXVXVXVXVXcXsXuX^./.iXY.R.$X%X2X+X_.%X%X%X<X6XpX5X2X7X5X$X<X6X2X$X",
"%X2X%X2X5XkXR J.VX'.t.7XhX2X: i..XN.p.o S.VXVXVXVXVXVXVXVXVXVXVXVXVXVXVXVXVX].].^.U.Q.&X%X%X#X<X$X<XpX8X:X6X<X*X2X5X*XOX",
"@X2X*X*X6X4XE.S BXVX_ OXxX` = n.j.m.7.* D.VXVXVXVXVXVXVXVXVXVXVXVXVXVXVXVXVXVXVXMX/.K.G.I.-X<X<X<X6X6X2X<X4X<X$X<X5X%X+X",
"*X2X%X%XpX#X7XF J.VX].G.xX2 3.b.z.oXz & ^.VXVXVXVXVXVXVXVXVXVXVXVXVXVXVXVXVXVXVXVXVXVX'._ Y.E.<X<X5XaX5X<X8X:X%X<X7X<X+X",
"@X2X*X*X7X%X*XE.0 NXVXY.G.* l.l.oXx.% J '.VXVXVXVXVXVXVXVXVXVXVXVXVXVXVXBXVXVXVXVXBXVXnXMXcXF.R.6X<X5X5X%X6X<X<X<X0X2X#X",
"+X:X2X$X8X2X,X7XT S.VXlX@ v n.oX X4.+ A.tXBXVXVXVXdX}.a.e.r.u.S.Y.].vXBXVXVXVXBXVXVXVXVXVXVXJ.C.4X1X5X5X:X7X<X<X:X5X2X$X",
"@X%X3X%X8X4X2X2X%Xq bXVX) :.;X Xc.v 2 [.'.VXVXBXH.0.q.g.g.j.d.q.4.>.C F _ rXVXVXVXVXVXVXVXbXK OX>X5X6X<X<X4X<X2X<X5X2X$X",
":X:X<X%X6X9X,X%XjX~ Q VXvXU oXh.b.g Z [.fXVXVXY.w.0.n.c.c.c.v.v.b.b.k.g.:.g Z ^.VXVXVXVXVX].t.2X%X5X6X5X2X8X<X<X<X<X5X$X",
",X,X<X$X9X7X-X%X3X*X8 gXVXL.4.n.z.z , ].NXNXNX7.M.f j m.c.h.k.N.k.k.k.c.m.l.w.f A bXVXVXVX` H.,X$X5X6X2X2X3X2X<X<X<X6X%X",
"%X:X2X%X7X7X-X2X-X7Xt.H VXMXU l. XC > !.=XVXbX8.M.C w z g.v.l.l.l.k.c.N.k.N.c.z.c 9 nXVXVXK.I.2X$X5X5X<X2X3X%X<X<X%X<X$X",
"OX:X2X:XpX4X,X*X*X#X2X4 [.VX(.7. Xg : ' cXVXNXr.v.x.5   % q.c.h.k.l.k.k.l.k.c.c.m.k A VXVXdX` %X$X2X6X<X<X:X%X<X<X<X<X%X",
"OX%X3X:XpX4X:X<X:XOX2X6 8 VXVX^ 0.h w /.dXVXVXY.d.M.g.1.g.l.M.n.m.N.k.k.l.k.h.g.C 1.= '.VX_ J 3X:XW.iX<X:X:X$X<X$X<X<X%X",
"+X%X2X$X7X7X:X<X2X$X*X9   K.VXuXC h 8 eXNXVXVXMXs.j.n.n.0.b n 1.q.c.b.c.c.g.z : j x.c Q VXD.T 8X8X( e.1X1X5X<X<X<X<X2X<X",
"OX$X6X%X<X7X<X<X6X%X<X1 m 9 mXVX_   ! tX].sXVXVXsXP g.b.n m ,.C v z 2.g.v.c.p.1.x.h.m E VX=Xy.2X%X>Xc &.d.|.<X:X$X<X2X%X",
"_.OX2X<X3X7X2X2X7X$X<X+ p.P W VXbX, Q D.) NXVXVXVXbXU 4.b..XM.b.c.j.8.m 1.h.v.v.N.j.f F.VX(.~ 8X$X9XD.{ $.&.>X2X$X%X<X5X",
"_.OX2X$X5XpX-X*X7X%X%X& a.n.= tXVX` 2 H ].VXlXNXVXVXBX!.L :.g.v.M.b.n.c.0.6.N.c.m.b 4 MXVX/.Y 3X%X5X0Xk %.#.Q.3X*X$X%X<X",
"E.#X<X$X2X7X*X2X5X%X*X& 0.M.6.0 VX!., W VXlXW NXVXVXVXVXnX!.I C 4.q.h.l.M.v.h.q.f l dXVXVXgX/ ,X:X<XjXF ..$.g.0X*X%X%X2X",
"_.#X<X$X6X9X2X7X2X#X2X, w.c.;Xh P.VXA H J.H !.VXVXVXVXVXVXVXVXgXJ.! L C z b z K K.NXVXVXVXsXF %X2X<XkX!  .$.f.1X*X2X$X*X",
"@X%X2X<X5X7X%X6X2X%X2X3 4.XXoXg.< lX[.V Q K NXVXVXVXVXVXVXBXVXVXVXVXBXbXdXdXMXVXVXVXBXVXVXsX2 OX4X3XqXJ { $.;.0X%X:X%X2X",
"@X%X<X%X6X9X%X5X6X#X&X3 6.;Xh.M.g G VXK.& Q VXBXBXVXVXVXVXVXVXNXVXVXVXVXVXVXVXVXBXVXNXBXVXsX0 I.3X<XqXD ..$.-.1X6X:X$X4X",
"%X<X<X%X6X9X<X2X6X#X3X8 e..XN.q.< O ^.VX'.q MXVXVXVXBXBXBXBXVXVXfXdXVXVXVXVXBXBXBXVX'.tXVXmXlXF.:X7X`.u #.#.8.aXG.R.<X2X",
"@X2X2X%X7XpX%X6X3X&X7XN P n.v.P w 2 , nXVXJ.u.T.r.3.,.o.m m o.7.= y P }.fXyXNXVXVX].K.VX].MXdXD 7XjXA } %...I.9Xj R 7X2X",
"%X<X<X%X7X7X*X7X2X#X7XA k b.b.6.# > o ' VXMXk  ... .{ { [ a a ] p p  . . .s r.D.F.'.VXA.S.VXyXK W.F i %.O.*.pXU.{ k `.8X",
":X<X4X$X6X7X<X9X2X&X7XI u .Xp.4.p d ..$ uXnX(.| @...} } } ..O.O.X.t @. .+. .r ^ nXmXD r a.=XS.e % i O...=.$X0X*.$.s ` qX",
"%X<X6X$X6X7X<X4X2X2XwX/ * w.|  ...#.+.p V tXsXW p X. .[ ] a p i p - p a d a.nXNXD.* t } ] r $ p .... .0.3X0X5.+.$.#.j <X",
"%X3X5X$X6X3X<X<X<X<XpXB.$ } } +.#.@.X.[ o Q J.A 0 O ( K.(.{.[./.A.G K }.vXvXS.2   o r - r s }  .| 3.OXaXR.*.+.$.$. .B <X",
"$X2X<X%X4X8X$X$X2X%X6XL a  .+.@.} p - 5 S.3 q 9 W _ J ^.K.D.Q H S A yX].W w Z L.tXE $ r r - s t w `.I.9.X.#.$.%.] N :X4X",
"%X2X8X%X5X3X+X%X6X2XpX~ p  .X.[ u % . F.S.+ 2 Z.nXD.l 0 V J A q 8 : 4 8 H K.lXVXVXVX'.h t ] } s t | ..#.$.%.+.t ! 4X3X:X",
"$X2X8X<X<X6X%X%X7X2X7X$X% | [ % 2.2.* W (.D.Z ) Q A H Z 2 2 : : w H Z.'.mXVXVXVXBXVXVXMXA.j [ ..+.O.#.$.#.[ g H.kX:X:X>X",
"%X<X3X<X3X<X$X4X9X2XpXW.y p = 8.N.p.v , /.NX'.+ ) y.3 + S H ) J.].sXNXVXVXVXVXVXBXnXVXNXVXJ.: $ r i i p g ( :XhX6X%X2X$X",
"<X3X6X3X<X3X3XpX4X3XhXU.  X 0.c. Xp.0.< E A K.(.8 V q 3 J.NXNXVXVXVXVXNXNXyXyXdXuXF.P._ Z.l P > M H.F.I.`.3X-X2X7X$X%X2X",
":X6XpX<X3X4X2XpX8X4XpX9XT   q.c. Xp.0.6.z = , H G 8 2 , 2 '.bXbX'.^.dX!.J.D.J E & 4 5 j b i.i.< #X7XhX3XOX+X%X2X3X%X-X%X",
"<X4X6X6X6X4X5XpX4X6XpX0XwXq v .X.X4.m 3.p.p.1.b x & . A 2 2 _ J 0 + Z 4 4 h f k n 5.6.>.2.1.g G.hX%X7X%X+X+X%X6X7X*X2X@X",
"<X4X4X4X4X4X<X6X9X9XhX7X4XT % .X0.v <.,.2.5.>.3.>.P z < g = 5 g f g h k P 5.C C C 5.2.1.4.j ~ wX*X6X7X%X&X@X$X6X6X*X%X%X",
"%X3X4X4X4X4X<X4X9X7X9XpX2XW.@ z 2.1.1.1.1.i.3.,.,.6.7.>.>.>.P 7.>.P >.P 2.7.>.1.3.8.5.k x F 8X-X6X6XiX$XOX&X%X6X2X$X%X%X",
"%X<X6X5X8X8X$X4XhX7XpX7X$X2Xt.  h 2.6.3.,.6.8.,.1.,.i.6.<.3.,.8.8.1.3.3.,.8.0.4.,.h W 1XMXY.E.8X7X8X7X%XOX@X@X8X%X2X-X%X",
":X<X5X<X2X7X:X4XqX8X9XhX<X%X2XG.1 o = n <.3.i.8.3.3.8.8.,.<.<.<.i.<.,.3.3.3.i.c V uXVXVXVXsXC.8X7X8X7X*X%X%X-X2X%X%X,X&X",
"$X2X3X2X3X7X&X3X9X4X9XhX<X+XOX%X<XG.S @ O % j C b m *.7.2.<.<.>.7.6.*.P >.v h _ mX(.! _ ` S.t.7X4X7X7X$X#X#X&X2X%X*X2X&X",
"6X2X2X%X2X2X&X2X4X4XjXhX2X$X<X:X%X4X%X_.D 2 3 . ; & & * + % * * * < 5 ;   2 ' S.q 9 < , E V / wX7X7X6X&X_.#X%X8X%X2X,X$X",
"9X6X<X#X*X2X&X%X7X9XpXjX<X%X$X~ Y G._.+XN J.uX~ OXOX+XQ.R.U.I._.#X$X<X2XT w q S G.qXI e A 4 I.3X8XpX7X-XOXOX@X8X%X%X-X%X",
"2X6X2X+X%X$XOXOX3X4X7XwX<X%Xq + A 8 V.E.1 bXdX/ 8X%X2X%X%X%X_.9XjXhXjX7X7X%X%XpX3X%X4 q W V _.2X7XpXpX%X_.OX%X6X%X$X-X@X",
"%X8X<XOX$X$XOX_.<X7X7X7X7XV.. 2 3 8 N ! Z VX!.V.qX-X-X&X#XOX).5X9X7XpX7X2X3X3X%X:XR.+ S q Y 3X3XhX7X7X*XOX#X$X2X<X%X:X%X",
"6X2X$X+X#X%X%XOX:X7X3X7X9XI . + @ 2 0   (.VXI +XqX@X%X@X$XOXE.6X9X7XaX9X3X:X<X%X6XR 1 J @ U.2X3XhX7XiX%XOX#X&X2X%X<X:X%X",
"pX2X<X+X#X%X%XOX+X8X7X3X7XS , 2 . + + A VX'.~ xXqX,X%X,X%X#XW.pX9X4XjXpX4X3X6X7X9X9 0 0 @ ~ ^ Y.2XqX6X%XOX&X@X2X#X$X%X$X",
"pX6X&XOX&X%X+X_.@X%XqXkXhXN + H 0 . W 1XnX1 1 l 6 1 < , , + & , 1 1 1 1 4 4 8 q 0 O 8 , . rXA.(.U.xXkX%XOX&X@X2X+X$X,X%X",
"6XpX2X%X&XOX@X%X-X4XOXI 9 O , (.) Q : A 8                                         + A : : ^.S.'.S q / _.+XOX%X,X+X$X%X%X",
"<X5X<X%X$X+X%X@X%XpXt.        O X .                                                 O . X O . O       V.$XOX%X2XOX%X%X$X",
"OXOX%X$X@X@X%X,X%X3XpX#XB.K l < & O O .                                             . O + < 7 D ( H.<X<XOX$X2X2X%X,X,X%X",
"E.$X%X%X,X,X%X$X2X6X7XhXpX8X:X2X$X#XW.I.I.H.V.y./ ( ~ / t.( ~ t.B.B.B.B.B.B.V.I.U.Q.OX@X%X<X7XhXkXxXjX$XOX&X2X2X%X2X%X6X"
};
