/* XPM */
static char *sushi1[] = {
/* columns rows colors chars-per-pixel */
"60 60 236 2 ",
"   c #030000",
".  c #0C0101",
"X  c #0D0A0C",
"o  c #120202",
"O  c #120609",
"+  c #140A0B",
"@  c #1B0D0D",
"#  c #180505",
"$  c #1C1314",
"%  c #181619",
"&  c #1A120E",
"*  c #240A0A",
"=  c #22191B",
"-  c #2A1A19",
";  c #251415",
":  c #320E0C",
">  c #303017",
",  c #181E21",
"<  c #231D21",
"1  c #291C22",
"2  c #1B2426",
"3  c #1B2629",
"4  c #1D2A2D",
"5  c #162125",
"6  c #1F2C30",
"7  c #222A2E",
"8  c #282528",
"9  c #332A2A",
"0  c #392728",
"q  c #242D31",
"w  c #2C2D32",
"e  c #352D32",
"r  c #2B3236",
"t  c #2D353A",
"y  c #293539",
"u  c #31353A",
"i  c #31393E",
"p  c #393336",
"a  c #732A1C",
"s  c #4D3E3C",
"d  c #443738",
"f  c #503E3E",
"g  c #442E2C",
"h  c #571A0E",
"j  c #3B5222",
"k  c #51403E",
"l  c #4E4C2F",
"z  c #664639",
"x  c #4E6E2E",
"c  c #636C34",
"v  c #343D42",
"b  c #383F45",
"n  c #4E3E41",
"m  c #384248",
"M  c #494648",
"N  c #524342",
"B  c #564A4A",
"V  c #4D5359",
"C  c #595556",
"Z  c #534E51",
"A  c #64585A",
"S  c #575C63",
"D  c #635D64",
"F  c #696669",
"G  c #746968",
"H  c #756D73",
"J  c #787577",
"K  c #6B7075",
"L  c #6D605E",
"P  c #B4331E",
"I  c #97382B",
"U  c #A13121",
"Y  c #EB3A1C",
"T  c #C73C26",
"R  c #E93D23",
"E  c #C9381F",
"W  c #8F4B2B",
"Q  c #AE5131",
"!  c #D0422E",
"~  c #E94729",
"^  c #F5472A",
"/  c #EB5632",
"(  c #ED522C",
")  c #F9722E",
"_  c #F6732E",
"`  c #FC7E3C",
"'  c #F87634",
"]  c #F46B2C",
"[  c #D16F38",
"{  c #B15643",
"}  c #837C7D",
"|  c #85797B",
" . c #A76D59",
".. c #F17844",
"X. c #F06D69",
"o. c #DE5C51",
"O. c #639A37",
"+. c #728B2A",
"@. c #76AD37",
"#. c #83B233",
"$. c #FC833F",
"%. c #97C536",
"&. c #A6CD33",
"*. c #ADD334",
"=. c #ACD339",
"-. c #B2D939",
";. c #A2CB28",
":. c #B2E23D",
">. c #A0A560",
",. c #FC8342",
"<. c #F6864A",
"1. c #F78C54",
"2. c #F5925D",
"3. c #ED865C",
"4. c #F49A69",
"5. c #EF9B6C",
"6. c #F6A778",
"7. c #F5A774",
"8. c #DA895A",
"9. c #B6D656",
"0. c #ABCF58",
"q. c #C2EA52",
"w. c #7F7882",
"e. c #857D82",
"r. c #F47B8A",
"t. c #F97E92",
"y. c #C97D8E",
"u. c #7C808B",
"i. c #898585",
"p. c #999697",
"a. c #8F8D93",
"s. c #A39E9D",
"d. c #BBAD9E",
"f. c #AFA094",
"g. c #9C9BA4",
"h. c #A39CA9",
"j. c #A9A6A8",
"k. c #B6AEA9",
"l. c #BFB1A1",
"z. c #B3B0AE",
"x. c #ACABB5",
"c. c #A9A4B1",
"v. c #B5B3BC",
"b. c #BDBABA",
"n. c #B8B5B4",
"m. c #B1ABBA",
"M. c #FC8B9C",
"N. c #F88395",
"B. c #F18D92",
"V. c #F3AC87",
"C. c #FCB588",
"Z. c #F3BA98",
"A. c #F2AF94",
"S. c #F695A4",
"D. c #F79AA8",
"F. c #EC91A2",
"G. c #C3B5A5",
"H. c #C6B8A7",
"J. c #C9BAA7",
"K. c #C5B7A9",
"L. c #C6B9A9",
"P. c #CBBDAC",
"I. c #C8B7A7",
"U. c #CCBEB0",
"Y. c #D0BFAE",
"T. c #F9ABB7",
"R. c #F8ABB2",
"E. c #D4AB8C",
"W. c #BEC0BF",
"Q. c #C9DE82",
"!. c #CEC0AE",
"~. c #D0C1AE",
"^. c #CEC1B1",
"/. c #CFC5B8",
"(. c #D2C4B4",
"). c #D5C8B6",
"_. c #D6CABA",
"`. c #DACDBC",
"'. c #D6C9B8",
"]. c #DDD0BE",
"[. c #E1D2BD",
"{. c #F4CCB0",
"}. c #DEDFA1",
"|. c #BDBCC3",
" X c #BCB6C5",
".X c #C3BFCC",
"XX c #F6BCC3",
"oX c #BFC3C3",
"OX c #C5C3C4",
"+X c #C9C5C4",
"@X c #CCCBCB",
"#X c #C9C6CB",
"$X c #D7CDC2",
"%X c #DCD2C2",
"&X c #DCD5CB",
"*X c #D8D4CE",
"=X c #CCCAD8",
"-X c #D5D3D3",
";X c #D5D3DA",
":X c #DCDCDD",
">X c #DAD7D6",
",X c #D1CEDF",
"<X c #E1D5C4",
"1X c #E2D9CB",
"2X c #E3DDD3",
"3X c #E4DFD9",
"4X c #F6D6DB",
"5X c #F8CDC9",
"6X c #E5E1DC",
"7X c #E9E4DC",
"8X c #FDEFD5",
"9X c #D3CFE1",
"0X c #DEDEE1",
"qX c #DDDBEB",
"wX c #D8D4E5",
"eX c #E1DFE9",
"rX c #F5DFE1",
"tX c #DFE1E4",
"yX c #E4E3E4",
"uX c #E5E4EB",
"iX c #EBEBEC",
"pX c #E9E7E7",
"aX c #F5EAE7",
"sX c #F4F2ED",
"dX c #FAF3EA",
"fX c #ECEBF2",
"gX c #E8E5F4",
"hX c #F5EEF5",
"jX c #F4F4F3",
"kX c #F8F5F4",
"lX c #FAFAF5",
"zX c #F4F4FA",
"xX c #FEFEFE",
"cX c #F6F8FA",
"vX c #EFF1F0",
"bX c #DEE2D2",
/* pixels */
"!.P.H.l.^.(.J.G.U.L.U./.%X`.~.`.[.~.Y.Y.P.^.P.K.G.P.P.P.^.^.l.`.].(./.].]._.(.~.^.L.l.d.l.K.P.P.^._.`._.(.(.^.^._.(.P.^.",
"J.U.P.H.U.P.J.l.K.P.U._.1X].).`.`.Y.P.P.U.^.L.l.H.J.P.!.^.!.l._.].(.(.%X]._.(.^.!.L.G.H.K.H.P.^./.^.)._.(.(.^.P._.(.^.P.",
"G.H.K.H.K.J.K.G.l.P.!._.1X`.'.[.[.~.J.P.U.P.J.k.K.Y.J.!./.U.l.`.].(././._./.^.^.^.P.H.P.K.P.^.P.!.^.%X`.(.(.^.U.(.(.(.P.",
"G.P.H.l.H.G.K.K.G.L.^._.<X[.'.[.[.).P.P.^.J.K.l.G.P.P.!.^.U.L.$X]._.^._.]._.^.!.^.P.H.l.l.G.^.P.^.^.%X].~./.U.L.(.(.^.P.",
"J.P.U.P.K.K.^.^.H.L.!.^.<X_._.].[.Y.G.P.P.U.^.^.U.U.J.P.P.L.U._.].`._.].]._.!.(.U.^.P.K.d.K.U.!.^.(.%X_.(.(.!.G._./.^.P.",
"P.K.G.H.J.H.!.P.L.^.!.^.1X(.).[.).).&XaXxXxXxXxXxXxXlX7X$XU.l._.].].(.%X`.].(.!.P.(.~.G.d.H.P.P.P._.%X(.!.(.!.G._.`.U.P.",
"l.K.P.H.H.P.!.Y.^.(.!.(.<X_.!.<X7XxXxXlX*Xj.i.| p.b.pXxXxXsX@X)._._.!.`._.^.!.P.P.U.(.G.G.H.!.P.^.^.%X(.^.^.!.l./._.^.^.",
"G.K.H.G.H.P.~.(.^.(.P.(.<X).%XlXxX6XH - . . o o o . O n k.xXxXkXkXlXxXxXlXsX7X%X/.K.J.G.K.P.!.P.L./.].^.^.^._.l.^.`.J.!.",
"G.J.H.L.Y.(.`.(.(.(.P.'.].6XxXxXi.X X B >.>.0.0.0.>.c & . N yXxX7XbX@X*X6XcXlXxXxXkX2XP.G.H.~.P.^./.`.^.!._._.H._.`.U.P.",
"K.J.L.P.(.).`.(.).Y.U.P.2XxXkXA   A bXq.:.-.-.*.*.-.q.-.x   ; - X X   . . $ d | b.kXxXxXpX(.P.P.^./.%X/.!._.^.P.^.%XU.^.",
"P.(.U.^.`.`.(.'./.^.H.^.lXxXA   p.xXbXq.&.&.=.=.-.-.+.j o * g k W Q  .Q W z g +   $ G >XxXlX&XP.^._.].^.(.`.^.U.^.%X(.P.",
"J.^.P.(.`.`.).'._.H.G.*XxXp.  i.xXQ.&.9.=.*.&.%.+.&   : W E.lXxX8X6.<.7.4.7.6.6. .h . . J lXxX7X_._.%X(.(.`._.P.(.`.^.J.",
"P.(.P.(._.`.(.P._.&XaXxXsX= l cXQ.;.=.*.%.@.O.>   0 Q 7.lX8X{.4.V.aX{.1.8.7.2.$.$.7.8.a   s iXxXxXcXpX].P.'.^.P.^._.^.K.",
"P.^.^.U.`.(.U.%XkXxXxX@XG   W.dX&.=.=.#.O.x @ #  .8X8XZ.4.' ' ' _ <.{.lX4._ 7.6.$.1.7.$.Q . 8 A s.iXxXcX7X`.P.U.^._.^.G.",
"U.(.P.P.`.P.3XxXxXj.0     > Q.9.*.*.@.O.x . > [ {.7.Z.dX{.1.' ,.,.` _ V.lXZ._ 2.Z.<.) $.` U   O   O G 6XxXsX`.P.^.`.^.G.",
"J.^.^.U._.6XxXpXN   8 j.0 g q.&.*.#.O.x . g {.2.5.<.) 1.1XlX6._ $.$.$._ 7.cXZ._ <.{.1.$.' ~ * F >XA   & j.xXlX_.^.`.^.K.",
"H.^.(.G.&XxXyX0 . n yXxX0 j q.=.%.O.c   s {.5XA.] ` ,.$._ V.cXZ.' ..,.,.) 5.xXV.] <.{.4.~ ~ * F xXxX| $   a.xXsXP._./.H.",
"J.!.(.P.kXxXd + @XxXcXxXC X %.=.@.O.& - [.dXaXdX6.' $.,.$._ 5.cXZ.' ..$.,.) A.xX1.] 3.F.^ T   a.xXkXxXcXC   b.xX>X(.(.L.",
"~.!.!.`.xXp.  g.xXxXxXxXh.  x @.@.j . >.6.' A.rXkX5X1.' ,.,.' 5.xXV.' <.,.` ] 5XA.^ Y X.o.: $ ;XxXxXcXxXpX1 8 lXkX!.(.P.",
"~.).P.7XxXe 9 zXcXxXxXzXwXC   > x * B Z.$.' B.XX5.{.lX6.$.,.,.' A.aX../ / ( ~ / S.! P a + . g.qXzXxXxXxXxXp.  z.xX_.(.P.",
"J.^.!.sXyX. A xXcXxXxXcXiXqXF @ o . { 1.$.$.V.5X1.] V.aX3.( ( ( R M.X.R R R R a * . . X d  XfXgXxXxXxXlXxXv.  G xX%XU.P.",
"G.P.(.xX#X  p cXxXxXxXxXxXcXzXuXA # T ( ( ( B.D./ R Y X.F.~ R ^ R X.S.~ ^ o.:   Z i.h. Xm.fXxXxXxXlXxXxXxXw.  B xX&XP.P.",
"K.P.(.xX/.. . j.xXzXyX@XcXxXiXxXp.  T ^ Y ~ M.r.R ^ R ~ F.o.E T P Q  .I I 1 . g.zXzXxX0XoXxXxXpXm.b.kXxX>X=   N xX&XP.U.",
"J.P.(.xXOX. @ & h.cXjXx.;XlXc.0XeX$ * P E o.B.W U a h : # o . . O O O . . 9 h.gXgXv.jXxXxXcXxX:X@XcXxX|.9 + o s xX3X^.^.",
"G.K.(.xX+Xo w = . C @XcXxXxXiXiXxXv.=   o o .     , e M D e.e.g.h.x.m.m.#XfXfXcXv. XxXxXzXzXxXxXxX>XJ + O 7 . s xX3XP.U.",
"l.G.(.xXOX. 8 v 7 . . 0 C p.xXtXiXxX9Xh.H G a.c. X XfXzXgX,X9XxXqX,XqXeXxXxXxXxX0XjXxXxXeX>.H C 0 O . % 4 6 . N xX3XJ._.",
"d.K.^.xX+X  Z S v y 8 %   w xX@Xc.cXxXxXfX XqXxXgXx.-XxXfXg.eXkXh.;XcXpX XiXxXxXxXxXuXxXh.  O O $ 8 v y 2 4 . f xX1XH.^.",
"d.H.U.xX#X  w.u.6 w.K 8 @ *XxXxXpXcXxXxXxXfXlXxXxXhXhXxXzXyXxXhX>XxXxXiX|.cXxXlXxXvXg.:XxXN @ m m v v 7 2 4 . k xX2XH.(.",
"l.K.U.xX+X. H a.r pX;X  G xXxXxXxXxXcXxXcXxXxXxXxXxXxXxXxXxXxXxXxXxXxXxXxXxXxX X|.jXyXxXxXn.. r v v w . 2 7 . k xX3XK.!.",
"J.U.^.xX+X  K u.r V V   s.xXcXxXcXxXxXxXxXxXxXxXxXxXxXxXxXxXxXxXxXxXxXcXxXxXxXzXtXxXxXcXxXpX$ 8 v v u 8 2 4 . k xX2XJ.(.",
"J.P.P.xXOX  w.a.t t w . J vXxXcXxXqXa.>.p.yXxXxXxXxXxXxXxXxXxXxXxXxXxXxXjXj.>.e.@XxXxXxXcX|.@ 8 v t v r 2 4 . f xX2XH._.",
"J.^.U.xXOX  S w.r m u . a.uXxXxXa.  X X   + i.xXxXxXxXxXxXxXxXxXxXxXxXOX$ O X   . C iXxX:Xm.- < b t i 8 % 7 . k xX&XH.).",
"J.(.!.xXOX. 9 K v q u . z.xXxXs.  J xX+X= o   i.xXxXxXxXxXxXxXxXxXxX:X+ Z lX:X9 o   M cXxXjX- = m y v 7 5 4 . k xX&XP./.",
"!.^.(.xX+X. r :XV K m   z.xXvX= & iXxXxXZ . o & yXxXxXxXxXxXxXxXcXxXF   +XxXxXJ . @   j.xXvX- < v v v O % 7 . k xX1XK._.",
"P.U.'.xX+X. t :XV oXV   z.xXW.. . i.cX@X= o #   j.xXcXcXxXxXxXxXxXcX9   H xX:X9   O   C xXvX- < m 8 8 8 % 6 . k xX2XH.(.",
"P.^.'.xX+X. w g.M y r . z.xXz.  p p.C O .   #   p.xXxXxXxXxXxXxXxXjX- o   ; & $ p.C   B xXjX- , m & $ y 3 6 . k xX2XP.(.",
"J.).(.xX+X. w r t v u . z.xX;X  x.xXj.  d J . . oXxX+Xx.xXxX6Xp.cXxXZ   F Z   J xXyX  H xXiX- < m i i q 2 4 . f xX3XP.^.",
"P.(.(.xX+X. q oXM t u . z.xXxXM p #XZ   M i.  M xXxXZ & lXxXp.  -XxXb.  F L   0 U.J   *XxXjX- < b i v 4 2 7 . f xX2X!.(.",
"P.(.(.xX+Xo w tXV i u . z.xXxXpX7     . .   9 0XxXxXi.  p.>Xp $ jXxXxXi.    .       p.xXxXvX- < v t b q 5 4 . s xX2X~.(.",
"J.(.(.xX+Xo 9 p.m i u . J pXxXxXgX>.d - k a.vXxXxXxXkXZ     X j.xXxXxXxXoXC 0 0 A #XxXxXlXx.@ 8 v v 8 + 2 4 o k xX&XP.P.",
"P.(.(.xX+Xo 4 y i m i . p.xXxXkXXXT.D.S.D.4XxXcXxXxXxXlXOXz.yXxXxXxXxXxXkXT.S.D.T.T.4XxXxX0X; < v v 8 & 2 4 . k xX&XP.P.",
"P.(.).xX@X  S S t t 7 . z.xXcXT.r.r.t.t.r.r.XXxXxXxXxXxXxXxXxXcXxXxXxXkXS.r.t.N.N.r.B.4XxXhX- , v u v 4 2 4 . k xX$XP.(.",
"P.`.(.xX@X. w.w.q M S . j.xXkXS.M.M.M.M.M.M.D.xXxXxXxXxXxXcXxXxXxXxXxX4XN.M.M.N.M.M.N.5XxXvX- < m i i 3 2 4 . B xX&XP.P.",
"!.`.).lX:Xo F a.3 a.xX@ i.zXcXT.t.M.M.M.N.t.XXxXxXxXxXxXxXxXxXxXxXxXxXkXS.t.M.M.M.N.N.4XcX,X* 8 v i t 3 3 4 . A xX%XP.U.",
"^.`.(.aXxX- p g.v v F X Z qXgXlXT.D.D.S.D.5XcXxXxXxXxXxXxXxXxXxXxXxXxXxXaXT.S.S.S.D.4XxXgXc.. u v i w 2 4 2 . p.xX_.P.P.",
"P.).).6XxXG . g.V K V % o v.fXfXxXcXxXhXwXxXxX0Xc.iXxXxXxXyXjXxXxXOXv.xXxXxXxXxXcXxXcXeXgXZ o b i t 3 3 4 + ; pXxXH.P.P.",
"J.~.(._.xX>XX 8 v a.F 5 @ 8 #XgXgXiXjXv.x.iXxXjX;XjXxXxX=Xg.iXxXxXeXpXxXxX;Xm. XfXuXeXgX} . u v r 4 4 4 ,   } xX3XU.Y.P.",
"(.!.).!.6XxXp.  % 5 5 4 3 + $ w..XqXeX,XgXqXfXzXuXqXhXuX=X9XeXzXiXwXgXzXgXwX=X=XeXeX.XC . 8 t 3 3 3 4 %   N xXlX(.L.(.I.",
"H.^.(.(.(.kXxXp.o . % 4 4 6 , . = p C J p.c. X.X=X,X9XwXeXqXqXqXwXwX9X=X.X Xh.a.F d @ X 2 4 5 4 4 2 X X n fXxX2XJ.U.(.I.",
"_.).(.U.(.$XkXlX+Xd . . @ , 7 q 4 % % X X X $ = 8 9 e d b d d b p d e 8 - $ + X X % 3 q q 3 8 $ .   + >.zXxX2XY.^.^.U.J.",
"].).^.H.^.~.P.pXxXxXK.A ; . . . + % 2 8 7 q 6 4 3 3 2 2 , , , , 2 5 2 3 4 7 q q 7 2 % @ . . . # 0 } yXxXcX$XI.'.P.P.Y.J.",
"(.`.(.K.P.J.G.G.&XsXxXxXpXn.| B 0 * o . .   .   . o . o O O + O + O . . .   .   . . o ; d A p.+XcXxXxX3XI.l.P.(.U.P.P.P.",
"P.(.^.G.H.L.H.l.^._.$X7XkXxXxXxXxXpX@Xb.s.} G A B f d d g g 0 g g d f f B A H >.s.U.;XjXxXxXxXxXaX2X$XK.G.I.P.(.^.P.!.P.",
"`.(.P.K.H.L.L.K.!.].).`.!.U.$X&X7XsXxXxXxXxXxXxXxXxXxXxXxXxXxXxXxXxXxXxXxXxXxXzXxXxXxXiX3X&X/.(.].`.`.U.G.I.P.Y.P.U.!.P.",
"%X(.^.K.I.U.U.G.H.(.%X`.(.H.P.I.G.G.G.K.U.'.$X1X1X2X3X3X6X3X2X7X7X7X7X3X2X%X$X.X/.J.H.J.G.J.P.(.%X[.`.U.G.I.P.(.K.P.P.P.",
"%X).J.G.I.P.K.l.H.!.`.`.^.J.P.P.P.J.K.G.K.P.P.~.J.I.G.P.G.l.s.(.`.).`.'.(.Y.Y.Y.U.P.K.H.Y.!.(.(.<X].`.U.G.K.J.Y.K.J.~.L.",
"_.%X(.P.K.G.P.P.(.).`.`.U.J.U.P.P.P.G.K.P.L.U.(./.P.Y.(.P.K.d./.`.`.].`.%X(.!.^.!.P.P.(.P.Y.Y./.<X%X`.P.G.l.P.!.K.P.P.J.",
"(.(.^.P.J.K.P.J.P.(.`.`./.I.P.(.P.P.G.G.U./.P.^.J.P.I.Y.P.G.d._.`.`.<X`.].^.^.^.(.(.(.(.P.Y.(.(.`.<X%XP.G.K.P.(.K.P.!.H.",
"l.G.P.H.J.P.P.^.Y.(.`.%X/.P.P.Y.P.K.G.l.L.^.P.P.J.J.P.(.P.G.l.%X<X`.<X`.`.^.!.).).~.(.'.Y.Y.(.(.%X<X%XL.G.J.).(.J.(.~.P.",
"l.J.Y.P.!.~.P.H.(.'.`.].(.P.I.I.J.P.l.G.L.P.U.P.J.K.K.P.).H.l.`.].`.].`.`.J.(._.(.~.`.).(.P.(.(.`.%X<XH.G.I.(.!.U.(.P._."
};
