/* XPM */
static char *sushi2[] = {
/* columns rows colors chars-per-pixel */
"60 60 243 2 ",
"   c #010101",
".  c #0A0A0A",
"X  c #151918",
"o  c #0D1212",
"O  c #1E2B22",
"+  c #142326",
"@  c #212B23",
"#  c #232B27",
"$  c #29352C",
"%  c #2E3B31",
"&  c #283330",
"*  c #313E34",
"=  c #3B3D3B",
"-  c #252418",
";  c #423930",
":  c #314035",
">  c #39423B",
",  c #2F4034",
"<  c #514B21",
"1  c #716130",
"2  c #464B48",
"3  c #525652",
"4  c #5E615D",
"5  c #696A69",
"6  c #6C666A",
"7  c #7A7C79",
"8  c #76726B",
"9  c #705F50",
"0  c #84421D",
"q  c #B34F19",
"w  c #B85C26",
"e  c #A55A3A",
"r  c #B2552F",
"t  c #987924",
"y  c #937638",
"u  c #AC6539",
"i  c #B76737",
"p  c #B56A2E",
"a  c #9F6E24",
"s  c #C64D1D",
"d  c #D34E12",
"f  c #EA530D",
"g  c #FC5405",
"h  c #FC550B",
"j  c #FD590B",
"k  c #F45A0B",
"l  c #F95D13",
"z  c #E34F12",
"x  c #D86717",
"c  c #CB6116",
"v  c #FB6C0C",
"b  c #F9670D",
"n  c #FC720D",
"m  c #F7730D",
"M  c #F96816",
"N  c #F57313",
"B  c #FD7513",
"V  c #FE7915",
"C  c #FA761A",
"Z  c #FD7A19",
"A  c #F37C1E",
"S  c #E86A10",
"D  c #CE6E31",
"F  c #F57D23",
"G  c #F87829",
"H  c #F87930",
"J  c #F16F23",
"K  c #C75B28",
"L  c #957C47",
"P  c #956E52",
"I  c #A56449",
"U  c #B5754F",
"Y  c #897A71",
"T  c #A67B69",
"R  c #C57447",
"E  c #7D827F",
"W  c #B28511",
"Q  c #A9973B",
"!  c #B1982D",
"~  c #BBA437",
"^  c #BDA32F",
"/  c #C49309",
"(  c #D59B02",
")  c #D59C05",
"_  c #C38B01",
"`  c #DEA708",
"'  c #D7B21B",
"]  c #ECB90E",
"[  c #E6B915",
"{  c #E8AC07",
"}  c #F2822A",
"|  c #F48532",
" . c #F68A37",
".. c #F1903D",
"X. c #C6AA2C",
"o. c #D7B925",
"O. c #D2B733",
"+. c #E2BF20",
"@. c #EBC519",
"#. c #F3C919",
"$. c #FFDC16",
"%. c #FDD41C",
"&. c #FEDB1C",
"*. c #F7D119",
"=. c #FFE11A",
"-. c #EBC924",
";. c #FCD722",
":. c #FFE620",
">. c #988758",
",. c #988549",
"<. c #A4924A",
"1. c #B29A46",
"2. c #998969",
"3. c #84837C",
"4. c #998977",
"5. c #9D9173",
"6. c #B28766",
"7. c #A68675",
"8. c #AD9472",
"9. c #B6A064",
"0. c #D08552",
"q. c #F88B44",
"w. c #F59748",
"e. c #F99B53",
"r. c #EA8F48",
"t. c #F9A55C",
"y. c #E9A05B",
"u. c #D29368",
"i. c #EC9D64",
"p. c #F7A864",
"a. c #F8B876",
"s. c #EFAD6C",
"d. c #DDA773",
"f. c #B07E8F",
"g. c #7E8380",
"h. c #8A8B89",
"j. c #988D84",
"k. c #9C9489",
"l. c #9A9998",
"z. c #A69789",
"x. c #B39A89",
"c. c #A49C93",
"v. c #A79E96",
"b. c #B78C9D",
"n. c #ACA194",
"m. c #ACA39B",
"M. c #B5A99B",
"N. c #BBAD9E",
"B. c #B3A598",
"V. c #B6A690",
"C. c #BB95A4",
"Z. c #9EA1A6",
"A. c #A7A7A6",
"S. c #BBAEA3",
"D. c #B4ABA5",
"F. c #BDB1A3",
"G. c #BEB4AB",
"H. c #BBB6AB",
"J. c #B4B3B4",
"K. c #BBBCBC",
"L. c #B9B7B5",
"P. c #ADAFB1",
"I. c #949CA0",
"U. c #D1B891",
"Y. c #EBBE89",
"T. c #C49AAA",
"R. c #EE9DBA",
"E. c #C3B5A5",
"W. c #C6B8A7",
"Q. c #C9BAA6",
"!. c #C4B6A9",
"~. c #C6B9AA",
"^. c #CBBDAC",
"/. c #C8B7A8",
"(. c #D0BFAE",
"). c #C4BCB4",
"_. c #CCBFB1",
"`. c #C6BABB",
"'. c #D0BFB0",
"]. c #C1AFB5",
"[. c #BDC0BD",
"{. c #F6C58C",
"}. c #FAC88A",
"|. c #FCD89E",
" X c #F9CC92",
".X c #CEC0AE",
"XX c #D1C2AE",
"oX c #CEC1B1",
"OX c #CCC4BB",
"+X c #D2C5B4",
"@X c #D5C8B6",
"#X c #D9CAB6",
"$X c #D3C6B8",
"%X c #D6CAB9",
"&X c #DACDBC",
"*X c #DDD1BD",
"=X c #FBD5A2",
"-X c #FBDCA8",
";X c #E1D2BD",
":X c #FCDFB1",
">X c #E4CFB2",
",X c #FCE2B4",
"<X c #FDE8BB",
"1X c #FFE2AC",
"2X c #D9C19B",
"3X c #BDBEC2",
"4X c #C5BFC3",
"5X c #FAA5C4",
"6X c #BFC2C5",
"7X c #C4C4C4",
"8X c #CBCACD",
"9X c #C8C6C7",
"0X c #DACFC1",
"qX c #D5CEC5",
"wX c #DDD2C1",
"eX c #D7D4CC",
"rX c #CCCDD2",
"tX c #C7CAD4",
"yX c #D6D6D5",
"uX c #D8D7D7",
"iX c #DAD8D6",
"pX c #D6D6DA",
"aX c #DBDBDB",
"sX c #D5D9D9",
"dX c #D3CFD2",
"fX c #E2D5C3",
"gX c #E6DAC7",
"hX c #E1DEDD",
"jX c #DCE0DE",
"kX c #FDECC3",
"lX c #FEE7C0",
"zX c #F0E9D3",
"xX c #DBDCE3",
"cX c #E0DFE0",
"vX c #DDE1E5",
"bX c #E2E3E3",
"nX c #ECECEC",
"mX c #E5E6E8",
"MX c #EBEDF1",
"NX c #F4F4F4",
"BX c #FEFEFE",
"VX c #F8F9F8",
"CX c #EDF0EF",
/* pixels */
".X^.W.E..X+XQ.E._.~.^.$XfX&X+X#X&XXX(.(.^.oX~.!.Q.^.^.^.XX.XE.&X&X+X@X0X&X%X@X.X.XQ.F.F.F.E.oX_.oX%X&X%XoX+XoX.X%X+X^.+X",
"Q._.~.W.^._.Q.F.!.^._.$XgX&X#X*X&XXX^.^.^.+X~.F.Q.Q.~.^.+X~.F.@X*X+X%XwX0X$XoXoX~.~.E.W.E./.^.^.oXoX%X%X@X@XoX~.%X+X_.^.",
"E.W.!.W.W./.!.E.F.^._.%XgXwX#X&X>XXXQ.^.~.^.^.N.E.(.+X+X%XOX_.*X*X+XoX@X&X%XoXoXXX^.W.^.E.^.oX^.oXoXwX&X+XoXoX_.+X+X+X^.",
"E.^.W.F./.E.E.Q.E.W.oX%XfX&X$X;X;X+XQ._.XX^.!.Q.!.D.z.k.5.5.j.D.OX0X*X%X%X%XoX.X^.~.^.S.E.W.^.^.oX+XwX&X+X$X_.~.+X+X.X.X",
"^.^.^.~./.!.oX.X/.W.oXoXgX#X%X;X;X+X/.oX^.W.!.c.,.Q ^ o.-.-.o.~ ,.4.l.K.eXwXoXoX_.+X^.!.N.!.oX.XoXoXwX@XXX+X.XE.%XOXoX~.",
"^.Q.E.W.W.W..X^.W.oX.XoXgX+X+X;X&X(./.^.^.^.G.,.[ $.=.=.#.+.#.&.=.*.' Q 2.m.).%X+X^.(.E.N.W..X~.oX%XwX+X.X+X.XE.%X&X^..X",
"F.!.^.W.^.~..X.XoX+X_.oXwX%X+X;X&X+XQ._.^.W.).y t t W <.8.m.z.<.^ ^ X.;.*.X.<.5.D.+X+XE.E.~..X.X).oXwX%X^.oX^.F.$X%XoXXX",
"E.E.W.!.!.^.XX+X+X+X^.$XwX%X@XfX;XXXQ.^._.W.S.8 z.%X6XtXvXbXvXrX6X9XL.<.[ =.=.[ Q 2.M.^.Q.W..X~..XoX&X+XoXoX@XE.oX%X^..X",
"E.Q.!.!.'.+X&X+X+X+X^.+XfXwX&XfXfXXXQ.~.oXm.A.6XbXaXaXaXyXyXaXnXmXuXbXdXn.<.o.=.&.@.X.2.m.).XX^.oXOX&XoX.X%X%XW.%X&XoX^.",
"Q.^.Q.^.$X#X&X+X+X+X^._.wX0X%X;X&X^.^.^.H.tXvXaXuXiXyXjXNXNXBXBXBXBXVXnXxXxX5.-.$.%.&.@.~ 8.!.XX~.$X*X$X.X%XoX^.oXwX_.oX",
"^.+X^..X&X#X#X+X+XoXW.oXfX&X@X&X*XXX(.n.J.aXuXuXsXyXuXVXBXBXBXBXBXBXBXBXaXxXK.t #.;.;.#.*.' 1.M.%X%X&X$X+X&X$XoXoX&XoX^.",
"^.oX^.+X&X&X+X+X%X_.W.oXfX&X&X;X&X#Xm.A.aXiXuXuXuXnXVXBXBXBXBXBXBXBXBXBXBXNXmXJ.y ` #.*.#.#.%.1.H.%XwX%XoX*XoX~.+X&XoX^.",
"Q.+X^.+X%X#X+XoX$XoXW.oXgX%X;XfX#XXXz.rXaXuXuXyXbXBXBXBXBXBXBXBXBXBXBXBXBXBXmXvX4._ ` ] *.%.$.o.n.@X&X%X.X%XoX.XoX%X.X!.",
"Q.+X_.^.&X+X+X_.oXoX~.oXgX%X&X&X#XXXv.uXuXsXsXcXVXBXBXBXBXBXBXBXBXBXBXBXBXBXnXhXz.W ) ( @.%.$.O.N.%X%X+XXX%XoX~.oX%X.X!.",
"_.+X^.^.0X^.^._.+XoX^.%X0X0X$X&X*XM.6XaXuXuXyXBXBXBXBXBXBXBXBXBXBXBXBXBXBXBXBXnXpXL ( ( [ %.&.1.OX$X&X%X.X@X.X.XoX&XoXE.",
"^._.+X^.&X^.^.^.$X+X^.+XfX%X&XfX&Xm.P.xXuXuXuXBXBXBXBXBXBXBXBXBXBXBXBXBXBXBXBXNX8Xy ( ( @.=.+.n.%XoXOX%X.X@XoX.XoX&XOXE.",
"W..X@X~.#X+X+X^.+X^./._.fX%X$XwX;XE.A.aXyXuXsXVXBXBXBXBXBXBXBXBXBXBXBXBXBXBXBXNXL.t ` ( #.$.~ H.oX$X$X$X.X&X+XoX^.%X$XW.",
"Q..X@X~.@X#X+XoX$X^.E._.0X%X#X#X;XS.7XaXsXuXnXBXBXBXBXBXBXBXBXBXBXBXNXh.mXBXBXBXaX,.( ` ;.*.8.OXQ.%X%XoX+X%XoXoXoX%X+X~.",
"XXXXoX~.&X&XXXoX%X^.E.oXfX&X&X#X*XM.dXaXuXuXnXBXBXBXBXVX6 P.BXBXVXBXZ.  7 BXBXVXmX7._ ] &.o.z.oX.X$X@X@X+X+XoXoXoXoX%XW.",
"XXXX+X~.&X&X^.oX$X~.^._.0X%X_.).%XB.J.xXuXuXaXBXBXBXBX7X  = BXBXVXBXP.  h.BXBXNXrXy ) ] &.~ F.oX.XOX%X+X+X@XXX@XoXoX%X~.",
"Q..X+X~.&X&X+X+X+X^.oX_.&X#XJ.MXNXL.l.bXyXyXmXBXBXBXBXaX. 6 BXBXBXVXNX7XCXBXBXBX9Xt ` #.&.<.~..XH.oX$XoX+X+X^.oXoXoXoX~.",
"E.^.@XoX&X*XN.M.+XW.~.oX&X&X_.rXVXK.K.bXuXuXBXBXBXBXBXBXbXnX].G.`.T.b.CXBXBXBXCXxXL ) %.*.2.OX.X.X.X%XoX+X.X^.oXoX^.oX~.",
"!.^.@X^.wX.X7X7XW.!.!.oXwX%X@XH.8XA.J.aXuXyXnXBXBXBXBXBXBXaXf.5XR.5Xb.cXBXBXBXnXxXL ` =.[ 4.oXoXH..X%XoXoX.X~.oX~.oXoX.X",
"Q.^.@X~.%XOXMXqX+XW.W.oX%X&X+XoX%Xm.A.bXyXyXxXBXBXBXBXBXBXBX].C.T.C.dXBXBXBXBXBX9Xt [ ;.o.j.oX.XoXoX%X.XoXoXoXoXoXoXoXoX",
"E.!.%X~.+X`.CXOX@X^._.oX&X&X+XoXgXM.8 jXcXyXCXBXBXBXBXBXBXBXBXNXCXBXBXBXBXBXBXNXsXy @.:.X.j.#XQ..X.XwXoXOX.X.XoX~.oX+X_.",
"E.E.@X^.@X~.7X).&X^.~.+X&X&X%X+XgXk.o = J.mXBXBXBXBXBXBXBXBXBXBXBXBXBXBXBXBXBXOXP.>.@.-.< j.$X^.~.oX&X$X@X.XQ.oX~._.oX+X",
"N.!.+X^.%X*XF.^.&X^.^.^.wX&X+XoXgX3..   . 3 9XBXBXBXBXBXBXBXBXBXBXBXBXBXBXBXBXVX9X2.y - + z.+X^.oX$X%XoXoX.XoXoXoX~.^.oX",
"M.W.oX~.+X*X+XoX+X_.W.^.wX&X%XoX;X7 X       X 5 K.NXBXBXBXBXBXBXVXBXVXBXBXBXNXBXBXBXxXA.& k.+X^..XOX&XoXoX.XoX@XoX^.^.+X",
"F.!.oXW.+X*X+X%X+X!.~._.%XwX%X%XgX3.X       @ $ @ 2 E [.nXBXBXBXBXBXBXBXBXdX5 h.pXNXBXBX2 j.$XoX+X%X%X%X+X^.+X+XoXoXW.^.",
"Q.oXoXqXiX@X~.%X^.8XH.^.0X.XD.S.#Xk.X       . : : $ O @ = 4 h.A.K.[.P.h.4 #     X 2 5 3 O k.oXoX+X%X+X_..X^.+X+XoX+X_.+X",
"W..X~.8XnXCXoX@XOXCXL.F.V.9.D x d.8.-       X , % % : : % # O O @ @ O O $ #           $ % c..X~.^.%X+XoXoX^.+X+X+X^.~.%X",
"Q.oXoXE.F.dX9XoXOXVXN.K a.}.n B }.i.9 o     O , % % % % % % : % * * * : : X         X % & S..XoXoX+X+X+X+X^.%XoX@X~..X@X",
"Q.+XoX^.&XoXS.&X/.7Xx.} ,X| m H |.p OXK.=   . : : % % % % % % % % % % $ % #           < 1 D.^.^.%X%X0XoXoX^.+X+X_.^.^.+X",
".XoX+X^.%X;X+X&X^.P U -Xy.m m s.}.x 7.bXxXv.2 $ # % * * % % % % % % % % % $ .     . 1 ;.Q l.+X'.oXoX&XoX^.^.+X+X.XoX^.+X",
"^.oX&X~.&X+X(.wX!.R -Xt.N n q.-X..n u tXiXbXNXrX7 > @ @ $ % , , : : : : : O   X ; W ;.=.! v.+X+X^.oX&XoXoX^.$X+X$X+X^.+X",
"~.oX&XW.+X9X).oXE.u.t.n n } -Xy.m A w 3XmXeXyXNXBXnXL.7 2 $ O O O O O O $ 3 E 8X2.( #.$.X.v.XXXX$XoXwX$XoX^.+X+X+X^.oX+X",
"^.@X+X^.).xXNXuXh.R b B } |.s.m } n t.8.D.cXyXmXBXBXBXBXVXuXJ.l.E E h.A.aXNXmX2.W ) #.=.X.v.oX_.%X$X&XoX_.^.+X@X$XoX.XoX",
"~.+X+X^.%X~.H.bXl.e h b }.a.m V n ..U.z.E yXjXsXbXNXBXVXBXBXBXBXBXBXBXBXBXBXz.W { ` $.;.,.G.^.+X%XoX$X^.^.~.+X@X+X^.+X+X",
"^.+X#X^.@X#XQ.E.&Xx.z G  XF V n  .2Xl.MXOXI.[.sXiXaXBXBXBXBXVXBXBXBXBXNXyXv.1 / / X.~ >.B.^.Q.+X%XoX%X^.^.Q.@X@X@X_.+X+X",
"~.+X@XoX+X@X^.^.&XOXI r.q.v V F -XU.T K.OXm.8 4.9XvXxXmXBXBXBXVXnXCXhXZ.6 0 K q p 9 k.)._.'.Q.(.$XoX&X^./.^.+X@X#X_.oX~.",
"~.+X+XoX+X+X^.%X&X&X!.6.G j B a.:X| S c i 2X|.} p 7.T 2.L.jX8X4.h.m.h.K.NX9Xu v e.kXy.D 6.c.H.XX@XoX%X^.!.^.XX%X#X^.+X^.",
".X@X&X+X+X+X+XwX#X@XwXD.D g J -Xp.m V Z  X<X .n V v S s.Q.6.K x P tXvXVXBXBXD.c t.kXw.n A K 8.N.oXOX@XoX!.W..X+X&X^.^.+X",
".X@X*X+X@X@X+XwX#X@X&XgX7.d H p.F B M e.<Xp.m V Z n w.<X1X .m } x P L.bXnXxXT x a.<X .n n }  X>X6.F.wX~.!.!..X+X$X^._.Q.",
"+X%X%X#X%X&X$X*X&X&XwX&XoXY R t.k b C =X1X} m V n | -X1X..n V C N a.U.u u r S } =X|.A n V m a.kXq.p !.+XW.!.^.#X&X_.(.^.",
"oX%X%X#X#X#X+X#X&XwXfX*X^.Q.j.R l h M -X XN B B B {.<Xt.N B B B | <Xa.m V V n e.kXs.N B V n a.<Xe.n i m.^.Q.^.$X%X_.^.^.",
"Q.@X*X#X#X#X'.%X*X&X*X*XoX!.oXz.r g l p.p.N Z n ..<X{.N B Z Z n a.,X} m V B N  X<X .B V V m {.kXw.n b I !./.^.#X+XW.^.^.",
"^.XX%X@X#X@X~.&X;X&XwX*XoX~.E.~.n.u k e.w.k B v s.<Xr.m Z B m | ,Xa.m V B N w.lX{.B B V N F |.,X| B M s v.(./.#X^.+X(.^.",
".XoX+X+X+X&X.X@X;X&XwXwXoX^.W.E.+XD.I 0.p.l j j a.|.} V V B m a.,X| n V B m a.kXt.N V V n  .:X=XF B b z x.'.^.+X^.^.'.^.",
"!.+X+X+X#X&X/.+X*X#X*XfXoX!.E.!.Q.Q.H.4.0.H k k e.p.J C G n G :X}.m B Z B C  X<Xq.n V V n e.lXY.C M h d z.(./.'.^.^.+XQ.",
"%X+X+X_.+X$X/.+X#X&XgXfX+X^..X!.!.~.E.F.n.U z g H e.h h M v w.kXw.v Z Z B F =X:X| n V V n t.kXa.b h h r v./.(.#X_.oX_.^.",
"&X%XoXW._.'./.^.&X*XfXgX.X^.^.!..X!.M.N.+X).T s H p.J h h g H {.| N V B B } =X,X| n B B n t.,Xw.g l f P ^.E./.@X^.^.+XQ.",
"+X#X+XW.^.^.E.!.$X#X#XfX.XW.W.!.oX.XF.F./.).$Xz.I i.q.h h h H p.M k b b B C }.:X .B B B v H s. .h h q M.!.E./.$X^.^.(.^.",
".X@X.X!.W.W.!.F.oX&X%X&X+XW.^.W..XW.E.S.!._.^.'.+Xz.6.x h h M t.J h h h h h q.a.H k l l h l e.e.h q n.$XE././.+XoX~..X^.",
"@X+XQ.!.W.^.^.E..X&X#X&X+X^.XX^.~.^.W.F.~._./.#X>XXX/.7.e d h q.q.h l h h h H p.H h h h j h  .i.e v.gX^.E.E./.'.^.oX.X^.",
"wX+X^.!./._.^.E.W.@X&X&XoX^.^.^.~.^.W.W.W.+X^.#X#X(.'.+XL.j.I U i.l g h l l M p.e.l j h h z e 7._.gX$X_.E./.(.+X/.W.^.^.",
"wX@XQ.E.^.Q.!.F.W..X&X&XoXW.^.^.^.W.E./.W.^.XX+X_.(.^.XX(.Q.D.~.M.7.R K d z z H i.J s r I 4.S.&XfX0X&X^.E./.Q.'.E.^..X^.",
"%XwXoX^.Q.E.^.^.'.#X#X&X_.W._.^.^.^.!.!.^.~._.+XoX^.^.XX^.E.B.%XfX0XqXoXF.x.x.x.V.V.M.G._.$X+X+XfXwX&X_.E.S.^..XE.^.^.Q.",
"+X@XoX^.Q.E.^./.^.+X&X0X$X/.~.+X^.~.E.E._.oX^.oX^.^./.XX^.E.N.%X&X#XfXwXfX%X+X@X%X$X&X$X/.'.+X+X&XgXwXW.E.E.XXXXW.^..X~.",
"F.E.^.W.^.Q.~..X^.+X&X0X+X^.^.'.^.^.E.E.~.oX^.Q.^.W.^.XXXXE.F.wXfX0XfX#X#X^.'.+X+X'.+X@X'.'.+X+XwXfXwX~.E.^.+X+X^.oX.X_.",
"N.^.(.^.XXXX^.^.+X#X0XwX+X^./.Q.^.~.E.N.~.^..X^.Q.!./.^.XX^.F.%XwX#X*X&X&X^.+X%X'.+X>XXX+X^.+X$X&XwXwX~.E./.+XoX^.XX^.%X"
};
