/* XPM */
static char *sushi3[] = {
/* columns rows colors chars-per-pixel */
"60 60 229 2 ",
"   c #2E1D1E",
".  c #0D1C26",
"X  c #1A262D",
"o  c #16242C",
"O  c #1D2A32",
"+  c #1B2B36",
"@  c #222E35",
"#  c #263137",
"$  c #263239",
"%  c #29343B",
"&  c #2E363B",
"*  c #38383B",
"=  c #420D03",
"-  c #4A160D",
";  c #51190E",
":  c #4C1C13",
">  c #431910",
",  c #521F15",
"<  c #522016",
"1  c #52231A",
"2  c #4F221B",
"3  c #66291F",
"4  c #4D2A24",
"5  c #472A26",
"6  c #502B26",
"7  c #56312C",
"8  c #4D3B3A",
"9  c #463636",
"0  c #62342B",
"q  c #1D3641",
"w  c #253642",
"e  c #2C3A44",
"r  c #2D3E49",
"t  c #333D43",
"y  c #343F46",
"u  c #4C3F40",
"i  c #2E414A",
"p  c #3A4246",
"a  c #35444D",
"s  c #3A464D",
"d  c #374247",
"f  c #354651",
"g  c #394750",
"h  c #3C4A54",
"j  c #3E4E58",
"k  c #374851",
"l  c #3F515C",
"z  c #3E5865",
"x  c #444A4D",
"c  c #49474A",
"v  c #434E53",
"b  c #4A4E53",
"n  c #414F5B",
"m  c #4B5153",
"M  c #43525B",
"N  c #4B545B",
"B  c #465258",
"V  c #52595C",
"C  c #555959",
"Z  c #684E50",
"A  c #5E605E",
"S  c #6E605C",
"D  c #455661",
"F  c #445966",
"G  c #495A66",
"H  c #4A5D69",
"J  c #475965",
"K  c #565E63",
"L  c #595E65",
"P  c #5D6364",
"I  c #5C6467",
"U  c #4A606E",
"Y  c #626565",
"T  c #656B6C",
"R  c #6B6D6B",
"E  c #666866",
"W  c #73726D",
"Q  c #6D7377",
"!  c #7C7973",
"~  c #747777",
"^  c #6C6B6E",
"/  c #94443C",
"(  c #A65656",
")  c #B15151",
"_  c #83666C",
"`  c #817F79",
"'  c #996B6C",
"]  c #BB6967",
"[  c #B57171",
"{  c #A86D6D",
"}  c #8C5658",
"|  c #C8655D",
" . c #C45F60",
".. c #C56666",
"X. c #C77270",
"o. c #D67876",
"O. c #D2716D",
"+. c #E3736B",
"@. c #EB7C75",
"#. c #FF7D77",
"$. c #FB7F79",
"%. c #F57D78",
"&. c #92AD34",
"*. c #99B04A",
"=. c #A5BC4B",
"-. c #83827C",
";. c #89847C",
":. c #AABA6A",
">. c #AFBC77",
",. c #FD827A",
"<. c #F3837D",
"1. c #E6807B",
"2. c #ADC646",
"3. c #B4CB4A",
"4. c #B5CD50",
"5. c #BBD351",
"6. c #B8CA6B",
"7. c #B5C675",
"8. c #7A8489",
"9. c #8D8983",
"0. c #868988",
"q. c #938D84",
"w. c #959189",
"e. c #9B948A",
"r. c #989085",
"t. c #8F9496",
"y. c #94999A",
"u. c #9B9D9D",
"i. c #999894",
"p. c #868D90",
"a. c #A39D94",
"s. c #A59A95",
"d. c #B38E8A",
"f. c #ABA396",
"g. c #AEA59A",
"h. c #AFA89E",
"j. c #B4A69A",
"k. c #B4A99C",
"l. c #BAAC9E",
"z. c #B2A597",
"x. c #969EA0",
"c. c #9CA1A3",
"v. c #99A8AB",
"b. c #A4A9A9",
"n. c #BBADA2",
"m. c #B6ACA3",
"M. c #BDB1A2",
"N. c #BDB3A8",
"B. c #AEB2B2",
"V. c #B8B9B7",
"C. c #ADAEB0",
"Z. c #CB8D8D",
"A. c #D58787",
"S. c #CB9B97",
"D. c #D39D97",
"F. c #D1988E",
"G. c #EC8A82",
"H. c #FF8882",
"J. c #E6938A",
"K. c #EA9890",
"L. c #C9A699",
"P. c #DAA2A1",
"I. c #C3B5A5",
"U. c #C6B8A7",
"Y. c #C9BAA7",
"T. c #C5B7A9",
"R. c #C6B9AA",
"E. c #CBBDAC",
"W. c #C8B7A9",
"Q. c #D0BFAC",
"!. c #CCBFB1",
"~. c #C6BBB5",
"^. c #D8B9B7",
"/. c #CAA3A2",
"(. c #C8D38E",
"). c #C8D299",
"_. c #CEC0AE",
"`. c #D1C1AE",
"'. c #D2DAA7",
"]. c #CEC1B1",
"[. c #C9C4BD",
"{. c #D2C4B4",
"}. c #D6C8B6",
"|. c #D9CAB6",
" X c #D3C7BA",
".X c #D6C9B9",
"XX c #DACDBB",
"oX c #D8C7B3",
"OX c #DDD0BE",
"+X c #DBDDBF",
"@X c #E2D3BE",
"#X c #C7C9C8",
"$X c #D5CBC4",
"%X c #DACDC1",
"&X c #D2CFCC",
"*X c #D0C6C3",
"=X c #DDD2C1",
"-X c #D3D1CE",
";X c #DBD2CC",
":X c #DDDBC3",
">X c #DED5D3",
",X c #D9D9D7",
"<X c #CED0CE",
"1X c #E2D5C3",
"2X c #E5D8C8",
"3X c #E0D6D5",
"4X c #E2D9D7",
"5X c #E2DAD9",
"6X c #EAD7D4",
"7X c #EBD1CD",
"8X c #E5E3CB",
"9X c #E4E2DC",
"0X c #EBE5DC",
"qX c #F5E1DC",
"wX c #EAE5E1",
"eX c #EDEAE4",
"rX c #EDECEB",
"tX c #E5E6E6",
"yX c #F1EBE6",
"uX c #F3EEEB",
"iX c #F0E7E2",
"pX c #F5F2ED",
"aX c #F9F5ED",
"sX c #F6F4F3",
"dX c #FAF5F3",
"fX c #FCFAF5",
"gX c #FEFEFD",
"hX c #FDF6F9",
"jX c #F0EDF1",
/* pixels */
"_.E.R.I._.{.R.I.~.T.E. X1XXX{.|.@XoXR.].E._.E.T.U.E.E.E._.E.I.XXXX{.}.XX%X.X{.`.E.R.M.l.M.I._.E.]. XOX X].{.]._..X{.!.].",
"Y.!.R.U.E.E.Y.I.T.E.E.}.2XOXoXXX|.`.E.E.!.].R.l.U.Y.R._.{.].I. XXX{. XOXXX X{.].!.E.I.U.I.R.E.].].].}.XX}.}.].E.}.{.!.E.",
"I.Y.I.U.T.W.U.I.I.R.!.|.2X1X}.@X|.{.Y.R.!.E.!.W.E.`.oX{.!.I.M.OX2X{.}.OX:XOX{.].E.W.U.R.I.E.].E.].].OX.X`.{.E.!.{.{.{.E.",
"I.E.R.M.U.I.U.I.I.R.].}.1XXX XXX@X|.oX|.Q.~.s.! ` ` c m [.-Xm d m i.a.` a.g.M.|.XXoXE.I.M.R._.E.]. X=XXX`.[.E.!.{.{.].E.",
"R.E.E.E.W.U.!.E.U.T.].].=X X|.2X|.l.r.E ~ 0X[.v <X,Xx.t.pXfXB.B.b.,XrXv $ ~ R m W e.z.U.I.l._.E.].{.=X X{.]._.U.XX[.].E.",
"R.W.I.R.T.U._.Q.T.{.E.].8XXXE.f.*Xw.P V.#XfXhXwXeX6XqXqX4X;XiXfXfXeXfX-XV.x.i.b.N K V.0.a.=X].].]. X=X{._.{._.M..X.XE._.",
"I.U.R.Y.E.E._.E.!.{.Q.OX].q.x T sXeXrXfX0X%XP.A.A.X.) ) ( ( [ 5XsXfX,X~ N 0.*XfX0XeXfX>X-XpX5Xe.m.OX:X{._.]._.R.]..X].].",
"U.I.R.E.f.k.oX{.{.{.I.A e <X,X>XpXsX6XP.A.O.o.O...) ) ( /.0XrXfXeX0.N 0.<XgXsXsXdXdXhXhXhXyXeXC.u.R E. X!.}.I.e.XXXXE.!.",
"I.Q.9.q.K i.@X{.R.8X9XV.t.&XfXfX6XZ... .....) ) ) Z.S.*XfXgXaXV.K w.#XgXgXrX8X'.(.7.7.7.>.8XyXpXeXB.P f.{.OXh.s e.;.{._.",
"I.`.R P P E.e.m.i.p.yXgXfXeXyXwX[ ] D.^.Z.^.^.S.%XsXfXgXrXV.~ @ t.gXsX:X(.6.3.2.2.&.&.*.>.yXfXsX-XQ # z.n.-._.m A C |.E.",
"I.R 0.v T @XP m.a.$ J t.-XfXfXdXeXeXfXgXdXdXfXgXfXaX-Xa.K d [.tXdX'.6.4.3.5.5.=.&.:.:XdXfXgXwX0.% o @ h.M.x OXA & ! C l.",
"{.9.v y g ^ T @Xu.e a e h ~ B.wXpXsX>Xn.$X,X#X[.y.K p.V.V.rXaX'.=.2.3.2.2.&.*.:.:.0XfXfXwXu.p X $ % # f.@XR A t @ d ! ].",
"E.}.n.q.a j {.|.f.e s f a w e B L A 0 = S $X0.b.b.b.9XdXaX'.*.*.6.=.:.7.*.:.8XgXfXhX,Xc.v X @ & $ $ @ f.oXOXx O -.M.}.U.",
"E.].}.E.h B E.}.a.r g j n h a r e % 5 9 8.#XwXaXfXgXgXfXaX).).0XfX0XuXdXeXgXdXn.N.0.d X @ % # # # % # f.oX}.x # R.=XE.I.",
"].].E.T.B a M.}.f.r j H G G M h f f y r $ + t N Q i.V.-X9XpXdXdXaXfXuX9X&XC.~ > -   @ # $ % & # % # # f..X_.d % M.XX].I.",
"R.].].{.Y w a.}.m.r j G G G H H D j f f g a e $ O X X # & s N P P K N s # O X # 5 5 % e t a % # # % # a.|.k.O x ].XX].R.",
"U._.{.{.9.w ~ XXm.y j H G G G G H H G D v f g f f y y e $ @ @ X X X O @ % e e e e a a a s a w # $ $ + f.@X! . W .X X{.I.",
"Y.E.{._.T.h a R.T.y h G H G H G G G G G G G D n n g f y y f y y y a a w w % e a g a a a a f e # $ # # k.{.d @ z.}. X].R.",
"`.`.].R.1X0.+ ~ ].f f G J G G G G H H U G H H H G G D n k a f f h i r Q c.b.8.f e g a a a s & # % $ O M.-.. R |._.].}.E.",
"`.`.].E.XXOXP w 0.v f H J H G G H G u 6 6 8 N H G G G H H D y f r j #XgXgXgXgX,XK e s a a a t # % # % ! O x _. X].]. XE.",
"Y._.].E.XXXXQ.P w f f G G G G H J 6 ; 4 6 : , c H G G G G H n y f ,XgXhXgX/.*XhX9Xj a a a s e # # # % o x _._._._.E.].E.",
"I._.}.].=X|.oX].! f g G G G G U 8 ; u U U c , , D H G G G G H w y.gXgXgXgXZ = s.gXc.w g a f e # # % @ E {._.R. X]._.].R.",
"I.E.}.E.%XXXE.{.oXN y J G G G G , 7 U H G U 8 ; u H G G G H J y ,XgX&X>Xs., , ; 9XtXf a a f e @ % $ # k..X_.~.].E.].]._.",
"U.E.}.R.XXXXQ.!.}.J y D K G G N ; u H J G H c ; 8 H G H G H j h jXpX7 : - , 6 - ~.gXB i s a & $ # $ % z.]._.].].E.].].].",
"I.T.}.E.].XX{.].|.K r J G G H J 6 J H G G H b ; 8 H G G G G f y tX-X= , 1 3 : , rXjXv a a a % # % # & m.}._._.].E.].].E.",
"M.I.{._. XXX!.{.XXI e D H G z z F G G G G H b , b H G G H l k w C.gX` 1 - - : j.gX#Xe g s a e # $ # & M.XX_.R.].R.E.]. X",
"M.I.{.R.}.=X{.E.%XY e D H G _ ' _ L F G H J G N G J G G J f f y N tXgX5XT.m.5XgXgXT e g a a % $ $ # & M.{._.{.].].R.E.].",
"l.T.].E. XXX].].%XY r D G [ ,.,.$.@.^ F H H H H H H H H n y f f r H 9XgXgXgXgXrXQ w g a a a % % % @ p M.{.E.].}.].].E.].",
"M.I.].R. XXX{.}..XP e n H 1.$.$.$.H.o.J G N B B N N G D f k f f a e s 8.v.v.8.h q f a a a a % # # @ d !.{.E._.{.].].E.].",
"Y.!.{.].}.XX!.}..XY e n H _ o.%.@.o.W F N 1 , , 1 1 6 6 5 5 9 t y a a w t } ] X.' v a a a d # # % @ s R.]._.].}.].].E.].",
"Y.E.].!.}.OX_.{.%X^ r n H F J L L D F H N 1 < 1 1 , < < , , , , 4 a a a X.H.H.,.H...r f g i # % % @ x !.].E.{.{.]._.E.}.",
"R.].].E.}.=X].].%X^ r y H H H F F H H H D 2 < 1 < 1 < < 1 1 , , 9 f a e { ,.,.,.,.o.s a a & # # # @ b {.{.].}.]. XE.E.{.",
"Y.{.{.R.XX%XE. XXXY e g j D G H G G G H G 4 < : , 1 : : 1 < : < p a a a i Z { X.] Z a a t $ $ % $ o C }.].E.{.!.!.R._.}.",
"`.].{.E.|.XX{.XXoX9.h r e f j D G H H G H 7 - / +.+./ | +.| 3 5 a a a a a i r i i i a a % % @ O & ~  X].E.R.}.{.!.].E.{.",
"E.]..XE..X%X{.XX{.{.U.q.I f e e a h M M H * / H.,.@.@.,.,.,.+.u a a a a a s s a k h t # X O d ! M.}.=X].{.R.|.}.{.{.E.{.",
"E.].}.R.}.XX].}.{. XQ.}.%XT.w.T h a a a i c @.#.$.%.$.$.<.,.o.k a g g k g a a a r + + y P q.U.XX{.].=X{.].E.{.{.{.].].].",
"E.}.}.R.}.}.].{.].].{.].%XXXXX1Xq.# e v l ' ,.,.,.,.,.$.,.,.Z q i % % $ $ w % $ @ E e.l.E.E.E._. X{.XX].E.E.{.}. XE._.].",
"E.{.{.R..X}.R.E.}._.].{.2XXX}.@Xq.O X ;.|.1.#.,.,.,.$.,.,.@.P P P E R ! ;.d # # t U.E.R.U.U.E.`. X{.}.].R.R.{. X{.].{.{.",
"E.{.{.E. X}.R.E.}.}. X X}.R._.}.9.O @ e.oX<.#.,.$.,.$.,.$.J.N.OX1X=XXX1XOXs # O C Q.R.U.I.E.E.`. X].|.E.E.R.}.}.}.!.{.{.",
"Y.{.}.].{.}.R.E.OX{.{.}.E.M.I.U.r.+ # r.I.<.,.,.,.,.,.,.#.F.g.].}..X].}.].d # O W `._.E.I.R.E.Q.{.{.%XE.R.E.}.}.|.E.].E.",
"E.].{.].{.{.E..XOX}..X X_.N.I.R.z.& @ q.R.G.#.,.,.,.,.,.$.L.g.].}.XX{.}._.s @ @ e.E.E.E.U.R.R.`. X].}.].I.E.{.}.XXE.!.E.",
"_.}.XX{.].}.{.OX.X}.XX.XR.M.R.M.W.C o ;.E.F.#.,.,.,.,.#.G.l.k.].OXXX X}.{.x O y l.E.E.Y.U.R.W.E.].].}.].T.R._.{.XXR.!.{.",
"_.}.OX{.}..X{.=X}.}.OXOX_.l._.M.`.q.. R U.M.K.$.#.#.#.$.L.M.l.].OXXX{.{.R.x X N _.R.].Y.Y.U.E.`.{.!.|.!.T.T.E.{.{.!.Q.E.",
"]..X.X}.OX|.{.OX.XOXOXOXU.I.Y.M.E.U.& x I.U._.F.J.<.J.L.M.I.j.].=XXX}.{.{.p o W oXE.{.U.U.R.E.`. X{.XX!.T.U.E.|.|.!.Q.E.",
"].|..X|..X|.{.XXOXXX:XOXR.U.Y.M.I.`.! O f._.Y.I.N.U._.M.T.M.l. X XOX}.].{.p X e.`.E.`.I.I.T.R.`.{.}..XR.W.W.E..XXX!.E.E.",
"R..XOX|..X|.{.}.OXXXOXOX].I.E.M.I.M.I.p R {.I.I.E.U._.I.U.I.k.{.]..XXX}.}.p # I.{.E.Q.Y.U.R.E.`. XXX=XE.I.W.E..X{.R.E.E.",
"Y.{..X{.}.oXE..X1XXX=XOX_.R.I.I.I.R.Y.E # l.Y.E.Y.U._.I.R.T.k. X.X.X=X}.}.t y !.!.{.R.I.R.E.E.{.XX|.|.E.I.E.E.{.Q.!.Q.E.",
"_._.}.{.oX|._.}.@X.X=X=X_._.Y.I.E.I.x X C I.`.`._.U._.I.R.l.l.}.OXOXOX.X}.& C |.!.E.W.U.R.Q.E.`.XX}.%XQ.W.E.E.{.Q.E.{.R.",
"R.].}.{. XXXW.{.OX|.OX1X{.U.T.I.E.l.;.s.`.}. XXX$X X$X X*X^.~.%X=X=X=XXX{.e R 1XE.T.E.Y.I.E.].{.XX|.XXR.T.T.R.oXE.!.{.E.",
" X}.{.E.{.oXW.{.|.XX2X=X{.R.].!.[.$X3X3X>X3X3X5X3X5X3X5X5X5X3X5X4X,X3X3X;Xt # ;.{.U.Q.`.I.E._.{.XXXX}.E.n.T.E.|.!.].E.R.",
"OX}.].T.!.{.W.E.XXOX1X1X X$X>X,X5X5X5X5X3X3X>X3X3X>X3X3X3X3X>X3X3X3X3X>X5XB.m @ y.5X%X XI.E.R._.XXOXOXQ.I.T.E.}.E.!.Q.R.",
"{.|.{.R.E.R.I.U.}.|.|.1X_._.!.!.}.$X$X$X;X>X3X3X3X3X3X5X3X5X3X3X3X3X3X3X3X4X4X~.!. X$X}.I._.U.].%XOX=XE.n.I.W.}.E.E.Q.E.",
"E.}.E.I.T.R.R.M.{.XX}.OX{.Y.R.W.E.U.I.l.T.!.!.!.oX}. X!.].!.~.$X;X=X:X%XXX X{.{.E.Y.Y.Y.R.E.R.|.=X=XXXE.I.W.R.}._.E._.E.",
"}.{.E.U.T.R.R.U._.XX}.XX{.E.`.E.E.E.I.M.R.!.R.|.@XE.E.U.I.M.j.XXXX}.:XOXoXQ.{.].E.R.E.Q.R.].E.}.@XXX%XE.I.U.E.Q.E.].`.E.",
"=X{.`.U.T.Q.R.I.U.}.XX|.].R.!.E.Y.R.T.U.T.{.Q.|.|.Q.E.].!.I.k.%XOX}.=XXX{.E.].{.!.R.E._.R._.E.{.OX=XXX!.I.W.W.{.R.R.E.E.",
"=X}.W.I.W.E.U.I.U._.XXXX{.R.E.R.E.R.U.T.R.!.Q.oX!.E.E.].!.I.k.}.OXXX=XXXXX{.!. X{.R.U.R.E._.{.{.1XXXXXE.I.I.Y.{.I.E.E.E.",
".X=X XE.I.I.E.E.Q..X|.XX!.R.E.E.E.E.I.U.!.E.E.{.{.E.Q.Q.E.I.j. XXX.X=XOX=X_._.]._.E._.].E.Q.{. X1X=X%XE.I.n.E._.U.E.E.R.",
"].}.].E.E.I.E.Y.E.oXXX%X XR.E.{.Q.R.I.I.!.!.E._.W.E.R.`.E.I.l.}.OX}.=XOXOX_.].].].{.}.{.E.!.!.{.XX1XOXE.I.U._.{.I.E.`.R.",
"I.U.E.T.Y.E.E._.E.}.XX%X{.E.E.Q.E.T.M.I.R.!.E.E.Y.R.E.].`.I.M.=XOXOX=XOXXX].].}.{.{.}.oXE.Q.{.{.=X=X=XE.I.E.`.{.E.].`.E.",
"l.R.E.E.`.`.E.R.{.|.XX=X{.E.T.R.R.E.I.M.R.E.{.R.Y.T.T.E.oXR.M.XXOX.XOXOXOXE.].}.{.{.|.oX{.E.{.{.OX=X=XR.M.R.oX].E.{.E.}."
};
