/* XPM */
static char *sushi4[] = {
/* columns rows colors chars-per-pixel */
"60 60 250 2 ",
"   c #3A0304",
".  c #0D1E32",
"X  c #032637",
"o  c #142731",
"O  c #2C2528",
"+  c #4E0B0C",
"@  c #690E0F",
"#  c #671213",
"$  c #662E16",
"%  c #4C3032",
"&  c #6C342D",
"*  c #6B4A0D",
"=  c #615B29",
"-  c #192A45",
";  c #12344B",
":  c #2E374A",
">  c #523E43",
",  c #184852",
"<  c #18526F",
"1  c #295A61",
"2  c #27636A",
"3  c #5D4647",
"4  c #6D4C4C",
"5  c #4B5B6D",
"6  c #746A71",
"7  c #913017",
"8  c #913029",
"9  c #9A312D",
"0  c #D51B0A",
"q  c #E41904",
"w  c #D52E11",
"e  c #E92807",
"r  c #EB3709",
"t  c #F23709",
"y  c #EC2C11",
"u  c #E83919",
"i  c #CF3B2D",
"p  c #DB3622",
"a  c #E43D20",
"s  c #8C562C",
"d  c #B64C38",
"f  c #9F6720",
"g  c #B26B2A",
"h  c #D3480F",
"j  c #EE4707",
"k  c #F6470E",
"l  c #F3570F",
"z  c #E74318",
"x  c #F54715",
"c  c #F75616",
"v  c #FA6B19",
"b  c #F37017",
"n  c #CB4A32",
"m  c #E94A28",
"M  c #EA5926",
"N  c #EF512B",
"B  c #E95B33",
"V  c #C56931",
"C  c #ED692B",
"Z  c #F87B26",
"A  c #F46736",
"S  c #EA7739",
"D  c #F57C35",
"F  c #905A4B",
"G  c #BB4C44",
"H  c #B35553",
"J  c #91645B",
"K  c #B06B51",
"L  c #875B67",
"P  c #A85B63",
"I  c #8D6D74",
"U  c #B5726C",
"Y  c #C35647",
"T  c #CF5A50",
"R  c #E65745",
"E  c #E75B51",
"W  c #CF6E4F",
"Q  c #C96857",
"!  c #D86C56",
"~  c #E66448",
"^  c #F36946",
"/  c #E97947",
"(  c #F4784A",
")  c #E4735A",
"_  c #EF7058",
"`  c #C96E66",
"'  c #D47866",
"]  c #EF7868",
"[  c #A08D2E",
"{  c #C78A33",
"}  c #FA862D",
"|  c #EE8734",
" . c #F78936",
".. c #F99739",
"X. c #88857A",
"o. c #B9867B",
"O. c #D38D59",
"+. c #F68A46",
"@. c #ED9849",
"#. c #F69846",
"$. c #E98B53",
"%. c #F6865C",
"&. c #F59856",
"*. c #EFA94D",
"=. c #F6A54B",
"-. c #F6A958",
";. c #F9B45E",
":. c #D48F6F",
">. c #F68864",
",. c #F59669",
"<. c #E99273",
"1. c #F89A77",
"2. c #DCA57A",
"3. c #F4AA69",
"4. c #F8B666",
"5. c #EEAA72",
"6. c #EDBC77",
"7. c #F4BA75",
"8. c #F1C278",
"9. c #23738B",
"0. c #7F7A89",
"q. c #8C7989",
"w. c #A07E89",
"e. c #298A96",
"r. c #1C9FA3",
"t. c #74899B",
"y. c #64CFB8",
"u. c #23DCCF",
"i. c #948489",
"p. c #8B8799",
"a. c #958A98",
"s. c #96929B",
"d. c #B38889",
"f. c #A68B97",
"g. c #A7959B",
"h. c #B6969A",
"j. c #85B793",
"k. c #B4AD95",
"l. c #8B92A5",
"z. c #9797A7",
"x. c #969EB2",
"c. c #A699A5",
"v. c #A39DAA",
"b. c #BA9CA6",
"n. c #A09DB2",
"m. c #9BA1AD",
"M. c #9CA6B7",
"N. c #9DB1BE",
"B. c #A4A2AD",
"V. c #ACA5AA",
"C. c #B7A6A6",
"Z. c #BEB1A3",
"A. c #A7A7B5",
"S. c #A3ACBB",
"D. c #B6ACB7",
"F. c #A4B3BD",
"G. c #B6B4B9",
"H. c #CC988E",
"J. c #F38A92",
"K. c #D5AB8D",
"L. c #CAA59B",
"P. c #E7A885",
"I. c #FAA987",
"U. c #EDB391",
"Y. c #F9B49A",
"T. c #DE9BA1",
"R. c #C7A9A5",
"E. c #CEADAD",
"W. c #C3B5A6",
"Q. c #C8B8A7",
"!. c #C5B7A8",
"~. c #C6B9AA",
"^. c #CBBDAC",
"/. c #D9B5A7",
"(. c #CCBFB0",
"). c #C5B7B9",
"_. c #D5B8B7",
"`. c #EEB8A8",
"'. c #91C9B3",
"]. c #D7C797",
"[. c #F5C68A",
"{. c #F3CA96",
"}. c #CEC0AE",
"|. c #D3C4AB",
" X c #CEC1B1",
".X c #CCC8BB",
"XX c #D2C4B4",
"oX c #D5C9B6",
"OX c #D4C7B9",
"+X c #D5CAB9",
"@X c #D9C8B8",
"#X c #DACDBB",
"$X c #D6D4B7",
"%X c #DDD1BE",
"&X c #F6C7A6",
"*X c #F7D5A8",
"=X c #F0CBB3",
"-X c #E2D3BC",
";X c #F7E2BB",
":X c #9AAFC0",
">X c #9FB8C6",
",X c #A9B8C6",
"<X c #B5BBC7",
"1X c #B1BACD",
"2X c #C3BCC4",
"3X c #D7BBC0",
"4X c #ABC4CD",
"5X c #BAC4CA",
"6X c #B8CAD7",
"7X c #BBD9DB",
"8X c #BCD7E2",
"9X c #BBE1E4",
"0X c #CAC7C5",
"qX c #D7C9C7",
"wX c #C9D3CA",
"eX c #D7D5C7",
"rX c #DDD2C1",
"tX c #D4D4CB",
"yX c #C4CAD4",
"uX c #D5CDD1",
"iX c #C7D8D8",
"pX c #DBD4D5",
"aX c #D6D9D6",
"sX c #DDDCDC",
"dX c #E3D5C4",
"fX c #EED6CB",
"gX c #E6D8D6",
"hX c #E3DCDD",
"jX c #DEE3DE",
"kX c #F3E8CE",
"lX c #E6E3DB",
"zX c #C9DEE5",
"xX c #E4DDE1",
"cX c #D3E5E9",
"vX c #E4E4E4",
"bX c #EAE4E6",
"nX c #EBE6EA",
"mX c #E6E8E8",
"MX c #ECEAEC",
"NX c #F0ECEA",
"BX c #EAF1ED",
"VX c #F0F1EC",
"CX c #E8E7F0",
"ZX c #EDEDF1",
"AX c #F1EEF3",
"SX c #EEF3F5",
"DX c #EFF7F6",
"FX c #F3F3F5",
"GX c #F3F5F9",
"HX c #F7F8F8",
/* pixels */
"^.^.Q.W.}. X~.W.(.~.~.OXrX#XXX#X#X|.(.(.^.(.~.~.W.^.}.}.}.}.Z.$X#XoX@X#XrXOXXX}.^.~.W.Z.W.W.~.(. X+X#X+XXXXXXX}.OX X(.XX",
"^.^.Q.!.}.^.!.W.~.~.(.@XdXrX@X@X#X|.^.(.(.(.^.Z.Q.Q.}.}. X~.~..X#XXXOXrX#X.XXXXX^.^.W.W.~.~.(.^. XXX+X+XoXXXXX^.OXXX X^.",
"W.Q.!.!.~.!.Q.W.W.~. X+XdXrX+X-X#XXX^.^.(.(.~.Z.W.~.|.|.dXeX.X.XrX@XOXOXeXXX X X XQ.W.Q.W.Q. X^. X XrX@XXXXX(.^.OXXX X^.",
"W.^.~.W.!.W.!.Q.W.~.XX+XdX#X+X-X-X|.^.^.(. X~.W.W.K.$.C 5.kXfX$X].2.T.#XrXeX}.}.}.^.Q.W.W.~.^.^. XOXeX+XXXXX(.(.XXXXXX^.",
"^.^.^.Q.Q.!.}.}.~.Q. X XdX+X+X-X#X|.^.|._./.@XeXL.C j t l $.U.U.W } P.fX{.$X XXX(.^.~.~.Z.W.^.(. XOX%XOX|. X^.Q.OXOX X^.",
"~.~.W.Q.~.~.}.^.~.}.}.XXdX@XXX-X-X|.^.H.B M ~ /.) r r r j A +...B j  .1.<.U.+X X^.XX|.W.W.W.(.^.}.OX%XOX XXX X~.OX+X X^.",
"W.W.~.~.~.^.}.}. XXX}.XXrX+X_.-X@X(./.n e q 0 w w w e e r t M | B u j z C $.|.|.(.(.^.W.W.~.^.^.}..XrXOX X X^.W.XX+X X X",
"W.W.~.W.~.^.|.|. XXX XXXrX+X@XdXdXXXL.p q 0 p ~ ] <.R y q a / $.U.2./ M / 2.oXOX(.~.XXW.W.Q.}.^.}. X#XXX X XXX~.XX+X^. X",
"W.Q.~.Q.XXXX@XXXXXXX^.XXrX#X#XrX-X|.E.p q p m M ) =XY.E 0 u C >.=XdXI.) / `.dX$XXXQ.~.Q.Q.~.}.}. X X%X X}.oXOX^.XX#X X(.",
"W.^.^.^.XX@X@XoXXXXX(. XrXrX#XdXrX_.T.n q y 0 e r E T.) u y t v &.5.5.$.M ( *.6.oX!.|.!.W.~.}.Q.~..X%XOXXXoX X}.XX#X(. X",
"Q. X(. X#X+X@XXXXX(.~. XgXgX3X3XT.J.P.g d w q e e m ] N q e e t j l l Z w r l | ].eX$X~.Z.}.}.}. XOX$XOXXX+X X X XrX X^.",
"^. X^.XX#X@XXXXXOX(..XOX3XJ.J.] ] ] W [ = d e e r y y 0 0 e q q e r l b h 0 j b { ].-X$X.X X~.}. X@XrX+XoX+XOX XXX#X XQ.",
"^.XX^.XX+X+XXXXXOX_.T.<._ E ^ ^ ] %.( W s d u t r e 0 s f e q q r j j [ f w j S O.8.{.;XkXlXeX$X(. X#XOX X+X X~..XOX XW.",
"^.XX(. X+XXXXXXXE.<.^ N A _ >.,.,.>.( M u u y t e w 7 = $ 0 e e h h h * [ h C 3.{.;X;X*X;X;XkXlXeX0X+X$X XoX X}.XXXX(.~.",
"^. X^.^.#X^. XE.) M N ( ] ,.%.A v c k k x N y e f * * 7 7 m M d * = f V g | @.| *.;.8.8.4.8.7.[.*XkXaX$X XoX}.}. X#X XW.",
"~.XXXX(.#X(.~.! m N _ ] 1.( M c c l c c A A N m g f B A ( D / S g [ { $.&.U.[.3.;.;.*.8.[.8.4.4.;.{.kX$X}.+X}. X X#X X!.",
"!.}.OX~.oXXXH.z t B _ ] ( N c c c c c c A ] 1.I.I.I.1.,.S C | #.&.-...} #.4.8.4.8.6.;.-.{.6.=.=...3.;X8.].$X X X(.OXXX~.",
"Q.}.XX^.oXoX' z t m _ _ ^ N x x c c c A 1.Y.Y.Y.`.Y.<.$.| +.#.3.4.4.-.#.=.4.8.4.-.4.=...3.7. . ...3.[.*.-.|. X X XOXXX~.",
"|.}. X X+X$X:.u u u E E E u y x k k c %.Y.Y.Y.&XI.%.S Z } } #.-.;.;.;.-.;.-.4.;.=.@.@.Z &.5. .D @.U.3...*.].XXXX X XOX^.",
"}.|. X~.#X#XR.Q m p R E R u y y k k x %.I.Y.Y.1.D v v v Z } ..-.;.8.;.;.6.6.@.....@.@.Z ,.U.P.P.U.=X-...;.].}. X X XOX^.",
"~.}.XX^.#X+XXX.Xd.P P H H G i p y t u _ 1.I.I.S v b v Z Z } ..=.-.4.4.8.*.6.=.....@.7.O.H._.3XgXpXgX`.-.6.].~. X(.(. X^.",
"!.}.+X X#X#XXX0XD.<Xa.q.L q.w.P H n u ^ >.I.1.c v v v v Z #.U.{.-.;.=... .-.3.+.&.2._._.).2XpXCXvXCXvXkX|.}.}. X X X X^.",
"W.^.XX X#X#X}..X5X<X1Xn.n.2XA.z.a.q.P W _ %.( k c v v v +.*XkXkX*X&.......*.5.K./._.qXhXCXxXAXGXSXVXSXBXtX~.(. X^.(.(.(.",
"Q.^.XX^.oX#X}..XiX5X,X<XzXyXuXA.l.z.a.I U ) ^ k k c c C I.*X[.8.*X[.@.....2.R.E.E.qXgXMXAXGXGXGXGXMXNXNXeX^.(. X(.(.XX X",
"W.~.XX^.XX#X(.wXzXcX5X5X5X<X2X2Xq.2X2Xc.a.I T z k k k A I.3.&.=.-.&X[.#.<.L.T._.qXxXxXZXSXFXFXGXFXAXSXmX.X}.}.}.^. X X(.",
"W.!.XX(.@X#XXXiXzXmXaX<X5XS.l.p.z.1X2X<Xz.q.J i x t x ( 3... .#...3.*X2.H.R._.uXxXAXxXbXHXZXCXGXGXHXHXBX+X}.}. X(.(.(.XX",
"Z.~.XX^. XrXXXwX9XcXmX<Xt.: ; - - 5 z.,Xp.q.0.L n u N >.,.} }  .} ..U.R./._.qXNXGXGXMXmXGXZXvXSXGXHXHXGXeX}.}. X(.~.~. X",
"k.~.(.~.OX$X X0X8XzXvXt.o 1 9.< ; - : z.q.q.0.0.L n A 1.#.}  .} } D 2.E.pXbXAXxX2XD.D.0XMXGXmXZXHXHXHXGXtX}. X X X^.(.XX",
"Z.~.(.^.OX#XXX0X8XzX1X: 9.e.9.< x.4X- 0.V.i.6 I L J K U.&.Z Z } Z $./.xXSXGXZ.6 > % % > 6 aXHXFXHXSXDXFXeX~.|. X X X^. X",
"Q.^. X XOX#X|.wX8X8Xp.. e.9.9.9.9.0.; - B.A.a.a.q.q.J J W / S / $.H.3XCXFXV.% O O o o : : 4 0XAXFXSXFXSXeX~.OXOX X X(. X",
"Q.}. X}.oX%X}..X8XzXq.- - - - ; - < 9.. p.A.z.a.p.q.I L J U U :.L.).yXvXuX> O o . X ; 4X7X: 4 uXDXGXDXBX.X XXX XXX^.^.oX",
"~. X X}.oX%X}..X8XzX1Xn.:X:X0.0.: ; ; . 0.a.s.c.s.a.i.o.I o.d.h.).3XxXVXq.% % X X X o F.BX5 o i.vXGXFXSXeX}.+XXXXX^.^.oX",
"^.|. X^.+X-X^.wXzX8X6XyXyX0XG.G.D.a.> : q.p.z.c.c.s.c.E.R.b.R.).hXnXmXbX3 & 4 , 1 , X , 5 X o 3 .XHXDXHXlX}.XX}.}.}.}. X",
"}.XXXX^.+X#XXXaX9X8XyXyX1X<XG.G.<XD.m.l.x.m.x.B.v.c.c.V.qX).R.qXnXAXmXuX% F 6 2 2 2 , X - X o & g.HXGXHXjX~.XXXXXX}.~..X",
"^. X+X(.+X+X|.wX8X<XL.L.b.<X6X<X,XD.C.V.B.A.A.A.c.c.c.V.qX3X0XsXmXMXjX).% K 6 2 2 2 1 X X X O 4 i.HXGXGXaXQ.XXOXOXXX}.XX",
"^. XOX^.oX#XXX.XwX:.R ] ] H.2X1XS.C.` Q o.h.b.v.c.D.D.).).3XhXvXvXmXvX0X% [ X.e.e.2 2 , X X O s I FXBXBX.X}.XXXXXX}. XXX",
"^.XXOX^.@XXX XwX.XE m R R T 1XA.5Xh.V G Q H ` H.b.E.).uX).3XbXAXmXbXMXjX> d d.r.r.9.2 2 , ; > F X.AXMXFX.X}.XXOXOX}.}. X",
"^.XXXX^.+XOX}.iX.X) m a p ` D.1X4Xh.Y U c.h.U H Q ' :./.E.qXvXMXSXvXMXMXI & O.y.u.u.r.r.r.2 [ F s.SXNXHXiX}.XXoXXX}.XXXX",
"^.|.XX XXXXX XiXyXL.! T Q b.,X<X<Xh.Y & 3 I f.b.d.U Q Q ' <.`.=XfXfXNXZXwX% K 2.y.u.u.u.u.j.:.4 .XSXHXVXjX}.XXoXoX XXX X",
"^.XXOX XXXoX^.wX7X6X<X).D.,XA.,XF.C.Y #   + # 3 I f.b.L.H.P.<.) $.`.NXNXBXs.% W 2.j.y.'.k.O.F 6 lXVXHXDXBX}.XXoX+X^.}.}.",
"^.XXXXXX|.XX}..X7X7X6X>XN.A.M.,X,Xb.Q 7       + + # & L h.E.rX/./ P.MXmXbXMXi.% s O.O.O.K = 4 sXVXVXHXDXmX}.XXoX+X(.|.^.",
" XXX#XXXXXOX|.eX9X6X4Xl.m.S.F.F.S.V.U s +   + @ # @ @ @ @ 8 4 F / =XSXZXZXGXFXC.3 % & % & J XXvXbXbXVXGXtXQ.}.XX+X~.(.(.",
"}.oX#XoXOX+XoXtXzX6X,Xm.p.p.4XF.M.A.H.d + # & 8 9 9 9 8 8 @ @ d ,.kXGXSXSXGXFXhXjX}.O.O.P.P.5.-XlXlXMXFX.XZ.}.XX@X^.|.^.",
"XX+XoX@X$X+XOXeXcX8X6X6X1XB.,XN.M.n.f.Q 9 8 9 Y T T G T G @ 7 ) `.SXGXSXDXGXFXbXVX&X$.$.,.&.+.U.eXNXBXHXjX}.}.+X@XXX^.^.",
"|.+X#X@X+XoXoX#XiX8X4X>X4X1XS.M.S.x.z.U T G G H H G T ] d 7 W P.kXvXnXZXZXZXnXFXNX`. .+.+.+.+.U. XlXVXGXbX^.^.@X+XXX~.^.",
"^.oXoX+X@X@X|.+XwX1X>X>X,XF.M.x.l.l.p.c.U ! T Y G Y G G d ~ <.`.xXsXsXnXZXmXCXGXFXfX<.+.+.+.5.gX0XtXMXVXtXQ.^.@XXX~.^.^.",
"^.XXoXoXXX@X^.+XsX,Xx.:X:XN.M.x.l.l.z.A.c.U Q ) ) _ ] ] ] J.`.gXvXpXvXAXGXnXnXFXFXVXkX=X`.&XfXAXhXbXFXBX X^.^.|.|.(.(.(.",
"^.XXXXXX@X@X(.@XsX1X,X,X:Xl.M.x.x.p.z.n.x.v.h.` ` ` ` ' H.3XpXxXhXsXbXFXGXZXCXFXGXFXZXGXHXGXGXFXtXVXFXGX0X~.^.XX(.^.(.^.",
"^.(.XXXX@X@X~.XXeX6X4X>X>Xl.M.M.x.q.z.:XA.n.B.V.b.f.f.d.b.3XuXbXhXeXvXFXGXHXGXGXHXSXFXGXGXGXGXFXCXGXDXBX.XW.~.OX^.(.XX^.",
"+XXXXX XXXXXQ.XX+X6X,X>X:Xx.x.M.x.q.p.1XA.n.B.B.c.a.f.i.b.3XqXbXgX0XhXGXGXGXGXGXGXbXbXGXGXGXGXGXGXFXFXmX~.W.~.oX(.XX(.Q.",
"#X@XXXQ.(.XXQ.(.#XwX4X,X>X,Xn.x.x.x.x.S.S.B.v.z.6 q.w.w.f._.gXnXhXpXhXFXHXHXGXGXFXVXMXSXGXGXSXSXDXAXZXtX!.!.}.oX^.^.(.^.",
"XX+XXXQ.~.~.~.~.XXtX5X1X>X:Xx.n.:Xn.x.x.A.B.v.c.a.a.q.f.b.E.uXpXhXvXsXAXNXAXFXFXGXGXFXFXFXFXSXGXSXvXeX XW.W.Q.XX^.^.(.~.",
"XXXX^.W.Q.~.W.W. X+X+X0XG.S.S.A.,XS.m.m.A.A.B.B.A.c.f.g.b.E.pX0XsXnXnXCXhXpXbXZXMXMXVXCXaXsXmXmXmXeX#X(.W.!.^.XX X^.^.^.",
"+XXX^.W.^.^.~.W.}.#X#X#X X~.G.B.S.N.m.z.z.D.A.B.A.c.c.f.b._.gXuXhXCXZXxXsXxXbXmXMXvXvX0X5X X XeXeXrX#X^.W.!.Q.XX^. X|.^.",
"-XXX(.Q.~.(.~.W.Q.OX%X#XXX^.(.G.D.F.V.V.v.c.V.v.x.A.c.f.f.b.qXhXhXxXsXsXjXnXZXMXMXcXwX^.Q.(.^.XX-XrX#X XW.Q.Q.XX~.^.^.^.",
"rX@X^.W.~.~.W.W.~.}.#X#X X~.~.^.Q.Q.!.W.D.z.a.p.q.c.A.c.b.).sXvXxXmXsXxXsXsXvXvXaX.X~.Q.^.(.XXXXdX#X#X^.W.!.Q.}.Q.~.^.~.",
"+X#X X~.Q.~.~.(.XX@X+X+X(.~.(.^.|.~.!.Q.^.Z.V.z.z.c.V.G.D.0XhXsXxXsXaXaXtX X.X.X}.^.}.}.^.(.|.@XdXrX#X^.W.W.~.^.Q.~.^.^.",
" XOXXX(.Q.W.^.~.^.XX+XdXXX(.~.XX~.~.W.W.^. X X~.~.^.~.~.).).)..XeXrXrXeX#X|.}.}. XXXoXXX(.(.(.XX+XdX%X^.W.~.^.XX~.^.^.Q.",
"W.~.Q.Q.Q.^.~.^.^.@X@XrXXX~.^.|.~.~.Z.W.~. X}.}.Q.~.^.}.^.W.Z.rX%X%XrX#X#XXX X+XXXXXXXXX(.(.XXoX#XrXrX^.W.~.|.XX^. X|.(.",
"Z.Q.^.^.^.|.}.^.XX+X#X#XXX~.~.^.~.~.W.W.~.~.}.}.Q.!.!. XXX~.W.$XrX#X%X%X#X~.XXXXXX|.@XoXXX^.XXoX#XdXrX~.W.~.XXXX^. X^.@X"
};
