/* XPM */
static char *sushi5[] = {
/* columns rows colors chars-per-pixel */
"60 60 254 2 ",
"   c #191718",
".  c #0D0C0E",
"X  c #221F1C",
"o  c #33322C",
"O  c #272B19",
"+  c #591E16",
"@  c #4E1A15",
"#  c #55251E",
"$  c #4C201E",
"%  c #6B241D",
"&  c #5B2926",
"*  c #5B3632",
"=  c #672C24",
"-  c #7A2B24",
";  c #6C342B",
":  c #63413C",
">  c #724038",
",  c #5B6128",
"<  c #6E7330",
"1  c #4C511E",
"2  c #595756",
"3  c #514B48",
"4  c #684A43",
"5  c #655D56",
"6  c #784E47",
"7  c #6F6C4D",
"8  c #766E68",
"9  c #BD2B05",
"0  c #BC2D0B",
"q  c #B62708",
"w  c #BD340C",
"e  c #BB3615",
"r  c #862D26",
"t  c #88342B",
"y  c #98352C",
"u  c #AE3C2B",
"i  c #C42C03",
"p  c #C4340C",
"a  c #CA3B0D",
"s  c #C9370B",
"d  c #D43909",
"f  c #C33511",
"g  c #CA3C13",
"h  c #C53A12",
"j  c #CE3912",
"k  c #C23C20",
"l  c #BE4528",
"z  c #A74438",
"x  c #BC493A",
"c  c #B15032",
"v  c #9F4535",
"b  c #CC4114",
"n  c #CD431A",
"m  c #C94818",
"M  c #D3461B",
"N  c #D44B1C",
"B  c #D94917",
"V  c #DC571C",
"C  c #DB4B0E",
"Z  c #E44C18",
"A  c #E3541D",
"S  c #E75818",
"D  c #F35816",
"F  c #E8641A",
"G  c #F5681A",
"H  c #F7731D",
"J  c #C94B2A",
"K  c #D64C23",
"L  c #C95728",
"P  c #D55123",
"I  c #DC5324",
"U  c #DD5A26",
"Y  c #DC5B2B",
"T  c #D75A2A",
"R  c #C85637",
"E  c #D45836",
"W  c #CB4B37",
"Q  c #E45C24",
"!  c #E35C2A",
"~  c #E85926",
"^  c #EF5B2D",
"/  c #D96328",
"(  c #CB6438",
")  c #D96838",
"_  c #D97337",
"`  c #E36423",
"'  c #EB6422",
"]  c #EC632B",
"[  c #E86828",
"{  c #F56927",
"}  c #EB7627",
"|  c #FA7328",
" . c #EA6A39",
".. c #E66636",
"X. c #E9783A",
"o. c #F67739",
"O. c #F86C32",
"+. c #88645B",
"@. c #BA6853",
"#. c #93756A",
"$. c #8F726B",
"%. c #B2786B",
"&. c #A55348",
"*. c #C34C41",
"=. c #C85745",
"-. c #D85D48",
";. c #C96A48",
":. c #DA6847",
">. c #CB774C",
",. c #DC7749",
"<. c #C6785B",
"1. c #D67A57",
"2. c #C76C55",
"3. c #E36543",
"4. c #E86848",
"5. c #E97644",
"6. c #F47C48",
"7. c #E47D54",
"8. c #F17C54",
"9. c #CB7E62",
"0. c #E35F42",
"q. c #7B852D",
"w. c #899432",
"e. c #F4843D",
"r. c #868D52",
"t. c #918A7A",
"y. c #A28175",
"u. c #A8A872",
"i. c #DC835A",
"p. c #F48548",
"a. c #E78658",
"s. c #F48856",
"d. c #EC8B51",
"f. c #D68768",
"g. c #C98C78",
"h. c #D89877",
"j. c #D28D6F",
"k. c #E58E66",
"l. c #E89369",
"z. c #F59768",
"x. c #EA9B76",
"c. c #F39468",
"v. c #E8A57A",
"b. c #F5A47A",
"n. c #C0BB7F",
"m. c #968B87",
"M. c #9C9796",
"N. c #959189",
"B. c #A98C85",
"V. c #A8958C",
"C. c #B6968A",
"Z. c #B99D96",
"A. c #A9908A",
"S. c #BBAE9E",
"D. c #B5A69C",
"F. c #AEAA96",
"G. c #B8ABA4",
"H. c #BEB1A1",
"J. c #B9B2AB",
"K. c #B9B4B3",
"L. c #ACACA8",
"P. c #CB9B86",
"I. c #D79A86",
"U. c #CAA48D",
"Y. c #D8A588",
"T. c #C8A999",
"R. c #D6AB97",
"E. c #D9B49C",
"W. c #D2B196",
"Q. c #E7AA86",
"!. c #F7A784",
"~. c #E2AD92",
"^. c #E7B79B",
"/. c #F6B696",
"(. c #F3B388",
"). c #C5ADA6",
"_. c #C3B5A5",
"`. c #CAB6A5",
"'. c #C6BAA6",
"]. c #C9BAA7",
"[. c #C5B7A8",
"{. c #C6B9AA",
"}. c #CBBDAC",
"|. c #CBB7AA",
" X c #D3BBAB",
".X c #D8B9A7",
"XX c #CCBEB0",
"oX c #C7BBB8",
"OX c #D7BEB3",
"+X c #E7BBA4",
"@X c #F5BDA3",
"#X c #E2BFB0",
"$X c #CEC0AE",
"%X c #D1C2AE",
"&X c #DAC5AA",
"*X c #CEC1B1",
"=X c #C8C4BB",
"-X c #D2C4B4",
";X c #DAC6B4",
":X c #D5C9B5",
">X c #DACAB6",
",X c #D3C6B9",
"<X c #D5CABA",
"1X c #DACDBB",
"2X c #DCD1BE",
"3X c #D1D6B1",
"4X c #E9C4A9",
"5X c #F5C4AA",
"6X c #E2CDBC",
"7X c #E7C9B5",
"8X c #F4CCB4",
"9X c #E5D2BC",
"0X c #F5D6BA",
"qX c #EBC09F",
"wX c #CCCBCB",
"eX c #D5CCC6",
"rX c #DDD2C1",
"tX c #DED4CC",
"yX c #D5CDD1",
"uX c #DAD5D5",
"iX c #CECED0",
"pX c #E4CFC4",
"aX c #E3D4C3",
"sX c #EAD4C4",
"dX c #E5D9C6",
"fX c #ECD5CB",
"gX c #E4DACA",
"hX c #ECDBCC",
"jX c #E7D7C8",
"kX c #F2DCCC",
"lX c #F7D7C4",
"zX c #ECDDD2",
"xX c #E6DAD7",
"cX c #F3DED2",
"vX c #ECE0CC",
"bX c #F4E2CD",
"nX c #EDE3DA",
"mX c #EDE1D2",
"MX c #F3E3D5",
"NX c #F3E5DB",
"BX c #FAE6DA",
"VX c #F5EADC",
"CX c #FAEADC",
"ZX c #F8E6D4",
"AX c #FAF0DB",
"SX c #E9E4E5",
"DX c #F5EBE3",
"FX c #FCEDE2",
"GX c #F3EAE9",
"HX c #FCF1E5",
"JX c #FCF3EA",
"KX c #FAF8EE",
"LX c #FEFEFE",
"PX c #FAF6F6",
/* pixels */
"$X}.'._.*X-X]._.oX'.{.,XaX1X%X>X2X%X X*X].*X{.[.[.].{.*X*X$XH.1X1X-X:XrX1X<X-X$X*X'.H.H._.[.{.XX*X<X2X<X*X-X*X*X<X*X}.-X",
"].XX].[.}.}.].H.[.XX}.1XdX1X;X1X1X%X].*X*X*X{.H.'.].{.$X*X$XJ.<XrX*X,XrXrX,X-X*X{.}._.'.'.{.}.XX*X*X<X<X:X-X*X}.<X-XXX}.",
"_.[.[.[.[.].[._.H.{.XX<XdXrX<X2X>X%X].}.}.}.}.G.[. X}.$X,X}._.<X2X:X:X,X<X<X*X*X}.}.[.{.'.{.*X$X*X*X1X1X-X*X}.XX-X-X*X}.",
"_.}.'.H.[._.[.[._.].*X<XdX1X<X6X9X-X'.*X*X$X{.H.[.}.$X$X*X{.{.2X2X,X*X,X1X<X*X$X-X}.[._.H._.XX{.*X,XrX1X-X<X{.XX<X-X*X}.",
"].}.XX{.[.[.*X}.'.{.*X*XrX<X>X2X9X*X'.*X}.{.[.H.[.{.}.*X*XXX{.eXrX1X<X1X1X1X$X-X}.*X}.[.H._.*X$X*X-XrX:X-X-X$X_.<X-X*X].",
"{.{._.{.].'.%X}.{.*X}.-XgX-X:X9X2X*X[.}.XX'.{.'.[.'.}.}.*X{.[.<XrX1X-XrX1X<X-X%X{.-X%X_.S.[.}.}.XX<XrX-X$X%X$X_.<X<XXX*X",
"_.[.{.].'.].$X$X*X-X$X-XdX:X*XaX1X-X].XX}.'.[.{._._.XX-XXX{.[.<X1X<X*XrXrX<X-X%X}.XXXX_._.].$X}.{.*X2X:XXX*X}.H.,X<X}.-X",
"_.[.'.[.[.}.-X-X*X-X}.*XaX<X:XdX9X%X].}.XX[._._._.{.XXXX|._.[.-X>X&X.X.X.X.X`.-X,X}.$X_._.{.$X}.$X,XeX-X*X*X:X_.-X1X{.%X",
"_.}.[.[.-X-X1X-X-X-X{.-XrXrX1XaXaXXX].}.XXH.{._.H._.].;X7X7X^.(.x.c.8.4.^ ^ ..:.j.R.-X{.].{.XXXX*X=X2X*X}.<X<X].<XrXXX}.",
"_.}.].].-X>X1X-X-X-X}.-XrXrX<X6X1X*X'.{.,X[.T.S.`.7X7X/.l.8.6.o.o.{ D D D Z d d i e P.T._.{.*X{.{.,X2X-X%X:X*X}.-X1XXXXX",
"].-XXX$X1X<X:X:X-X*X'.*XrX1X:XaX1X].`.~.f.=.h.7X0X5X@Xx.7.p.6.{ Q Q T / R :.<.f.j.j.^.#X#XR.R.XX=X<X2X,X-X1X-X*X*XrX-X{.",
"{.*X}.-X1X1X-X-X<XXX'.XXdX2X<X XOX4Xv.P c 4XbXbX0XlXlXlXlX(.F E h.~.^.@X@X5X/.!.!.z.c.s.s.s.5.7.E.<X2X,X-X1X,X{.-X<X-X].",
" X-X}.-X<X1X-X*X,X*X{.-XgXXX&XsXcX(.B l 8X5X!.v.b.x.c.z.(.6.m 4XAX0X5X/././.!.d.o.o.p.p.p.X.~ ~ ..I.1X-X X1X*X}.*X<X-X_.",
"}.*XXX*X<X-X-X*X*X*X{.-XXX7XlX5X!.s.d i.z.e.[ F } F G G { ~ ( l.a./.lX8X/.8X8X/.b.s.s.d.e.p.o.| ~ 0.R.<X-X<X*X}.*X,X}._.",
"*X*X}.{.pX}.}.}.-X*X}.|.fX5Xl.X.{ { S ,.e.G F } G H H H | B 1.o.D ' l.8XlX5X4X8X/.e.| | O.| { ] ] ~ :.|.*X:X*XXX*X1X*X_.",
"{.-X*XXX1X{.}.}.,X-X_.fX5X5.H G ' } C ..X.F V } / F G | G b i.{ { { S 5./.0X5X5X4Xd.| o.{ ] ~ I K B j P.*X-X-X}.-X1X=X[.",
"[.$X:X{.>X-X-X}.:X_.9X5XX.F | H H } C c kXY.( ~.^.( V [ U ;.5.G F D S / e.v.lX5X@Xz.` ^ ~ B B j b b a g.-X1X-X*X$X,X,X'.",
"].}.:X].:X>X-XXX%X%X8X5.S G { / V S _ Y.FXMXlXsXdX9X4X^.~.sXk.C U ,.} } S / x.lX5Xa.C C d d d d d i E .X*X:X*X*X*X,X-X{.",
"%X$X*X{.<X1X%X-X%X6Xl.S ) :.>.7XQ.;.bXAXsXhXMX1XNXCXCXaXjXgX.Xh.+XdXk.S ` D ` /.i.d d i d s j K M K 3.Y.,X:X*X*X*X*X,X].",
"%X-X*X}.1X6X}.%XT.I.a.E MXCX7XDXAX9XZXsX1XgXdXzXBXkXdXdXnXzXzXHXvX1X~.` G Q ` K i J ;.:...4.5. .U I N J R.<X%X*X*X*X<X{.",
"].-X-X{.1X1X%X_.6X~.h.( 7XDXhXNXMXMXVXaXnXVXMX1XfXgX1XDXJXjXnXFXzXaX+X,.] S C w >.0XqXd.z.6.` I I P L a 2.<X$X*X$X*X*X{.",
"_.}.:X$XrX>X}.OX(.7.f.L h.VXdXFX:XV.V.{.VXMX2X,XnXhXsX[.m.8 5 5 D.KXsX7Xh.s p 1.Q.x.5Xb.c.! A I N P N b R  X].:X*X$X*X{.",
"[.{.,X}.2X1X'.4X5./ E.^.6XMX2XL.L.wXiX=XF.$X<XmXzXBXoXM.iXSXuXK.3 5 NXMX6XI.>.6...z.5X@X .S ' T P N I N W `.}.*X{.*X*X$X",
"].}.<X].:X2X'.^. .i.KXMXNXDXJ.SXSXL.F.=XSXJ.<XVXhX}.oXLXLXLXPXLXPX2 8 HX>X6X .D ~ s./.(.Q ` [ K m U U N R }.*X*X*X*X*X*X",
"_.[.<X].-XrX}.~...L E.zXDXeXSXK., q.q.7 t.uXeXNX1X=XLXPXPXPXPXSXGXSXo L.6Xh./ { S  .!.b...[ B K Y Y ^ f W OXXXXX{.*X*XXX",
"_._.-X*X,X1X}.+X_ ;.;XMX1XDX=X1 w., r.LX3Xt.uXfX,XGXLXLXLXLXLXGXSXGXm.5 KX^./ [ { ^ c.z./ V ! ..! U K q 9.eX{.-X{.XX*X,X",
"S.{.-X{.<XrX XE.>.4XJXfX6XPXL.u.7 . 2 xXF.u.G.MXgXKXLXPX=XL.iXPXGXnXM.2 KX4X( A [ ' s.z.` O.^ U I M q u .X}.-XXX*X'.}.*X",
"D.'.*X'.-X1X{.R.f.>.bXDXNXPXLXLXK.  X   1 n.N.hXgXLXiXo . . . 2 iXGXM.3 kXW.^.+X_ ' s.c.` ~ Q B b 9 q h.<X}.-X-X*X}.}.-X",
"H.[.-X}.<XaX}.>Xa.m 4XDXdXKXwX3X5   O . 7 u.t.2XgXyXX   3 2 3 X   M.m.3 >X$XsXhXl.Q s.s.P I M h q 9 J :. X}.%X-X*X*X{.*X",
"].}.-X}.-X1X}. Xv.L &XDXdXKXN., q.O O o r.< H.vXCX8 8 uXGXGXSXiXm.3 X M.dX:X>X9Xk.~ 4.Y g p 9 0 h n n a 2.OX-X-X*X*X$X*X",
"[.}.-X}.<X1X*XT.j.Y.KXHXbXvXSX7 < w.q.w., m.eXkXaX<XPXPXxXyXyXwXnXN.3 DXCXMX2X4X( j p i p j b b n M n b J `.,X-X,X}.}.<X",
"].*XXX}.<XrX}.E.<.2.Y.6XCXsXSXiXr.7 < < m.oX<X1XgXCXpXzXxXeXoXeXV.5 ,XMXkXkXdX&X1.M 5.1.P ~ I N N I I n k R.1X*X-X}.}.-X",
"].-X*X].1XpX{..Xk.Z v E.HXkXdXxXyXJ.G.K.,XpXbXdXMXkX6XdXpXuXtXFX).2X2X$X>X2X;X3Xv.T 5.Q.) V Q ~ ! .. .N e R.<X}.*X].XX-X",
"}.-X-X}.<X1XXX<Xi.B qXPXZXjXhXVXFXtXeXXXdXfXMXBXjX<XhXMXNXGXJXfXy.$.1XaX:X$X&XY._ [ Q c.f.V ~ ! .. . .M e ).<XXX*X*X}.,X",
"}.*X1X{.<X1X-X<XI.I >.7XcXgXHXsXC.,XFXFXFXMXMXCXcXFXBXkX6XT.#.+.Z.$.T.JX9X1X3XY.F } Q s.h.I ~ ~ ^ ..Y s J |.1X<X-X-X}.-X",
"}.*X<X{.<X1X-X<XE. .S ~.PXMXvXB.4 #.+.#.C.Z.C.Z.Z.C.#.+.$.#.|.GXPX,X$.jX%XpX1Xv.[ } ' s.v.Q ]  ...! K q @.*XXX-X-X}.*X-X",
"}.-X<X'.<X<X*X*X.Xa.[ Y.JXMXMXy.8 PXxXoXD.A.A.A.A.Z.oXpXGXLXLXLXPXy.*  X$X:XqX/ D ' { s.Q.) ' ! Y K 0 e R.*X-X:X,X*X*X*X",
"}.-X-X'.<X-X'.{.$XY.) sXNXjXkXB.& xXLXLXLXLXLXLXLXLXLXLXLXLXyXG.$.$ = 1XvX%XU.h.5.~ D p.b.U A Q K 0 q -.|.].-X,X-X$X:X-X",
"].-X<X}.<X-X].*X%XW.h.AXVXhXFXT.+ * 8 SXPXyXPXLXGXuXPXLXGXG.& $ & = & OXhX$X7XvX+XY V 5.8.M B M q q g n 1.{.:X:X-X*X-X*X",
"}.-X-X-X-X;X{.}.>XR.%.E.JXcXDX X= = @ * 4 $ %.I.@.y @.%.&.r - = & & & ).1X].%X&Xh.V ~ 6.4.j f q 0 g n n g U.<X:X1X}.*X].",
"}.-X-X*X-X:X].2X>X+X<.4XNXnXHXaX> ; ; # - R J J W E E W W *.*.v % = * }.:XrXmXMXj.A ! Y 0 0 0 f g h b m h g.,X<X1X}.*X}.",
"$X-X1X:X-X,X*XrX-XQ.R.LXhXnXDXBX+.= = t :.3.-.4.4.4.3.-.=.*.*.*.z + : dX:XNXMXMX+Xm j j f g n g b g b M w g.*X-X1X'.*X*X",
"}.<X1X-X:X:X-XrX-X^.:.E.MXsXgXJXT.& - -.4.4.4.3.3.3.0.x y y z W =.% #.BX>X2XMXMXR.T  .s...M K g g h n n 0 P.*X-X,X}.*X}.",
"-X<X1X:X<X1X-X2X-X+XT h.DXaXNXMXkX6 t 4.0.4.4.4.4.4.*.r r y u *.z # }.:X$XgXHXFXx.V Q ..5.n j h h K N p 0 P.XX<X<X*X X}.",
"*X1X<X>X<X>X-X1X,X4X..f.sXhXzXDXMX`.c 4.3.0.3.3.4.=.r - t y z z @ B.FX-X$XCXCX0X_ ~ S A 5.m K K I K w 0 k `.}.<X1XXX{.}.",
"].:X1X>X<X>X-X;X<X4XX.L 9XnXnXFXcXhXY.E ..3.:.4.-.y - r t y r @ #.zXaX1X>XkX2XW.T ' F U k.P I M f 0 f i R }.].<X-X'.XX}.",
"].-X<X-X>X:X].1X2X9Xa.,.7XsXNXcXkX6X:XI.=.*.=.z % - = % + $ : ).DXhXzX1X%X3X].&X,.B ` ) k.h p 0 w f f q g.oX`.;X*X-X X}.",
"*X*X-X-X-X1X$X:X9X%XQ...L 6XVXgXnXmXgXNX7X.XfXB.: * : 4 $.G.gXMXaXCXCX;X&XE.&X6X,.F [ ) h.w g g n g q @.XX'.}.-XXX{.-X].",
"{.XX-X-X;X1X{.-X1X>X&Xk.U x..X.XVXVXCXjX1XDXHXCX1XgXFXgXgXFXjXXX2XbXbXsX9X<.1.k.Q } Q l.f.N I K a 0 <.{.[._.{.-X}.}.-X`.",
"<X-X-X}.-X<X`.-X>X1XaX;X1.p 0 P.HXzXnXjXsXNXBX9X<XNXcXpX{.gXJXkX6XkXsXjXVXh.j Z S S ) Q.L b a 9 l P.rX{.H.[. X<XXX-X-X{.",
"rX>X-X[.XX-X{.{.1X2X2XaXpX9.@.aXgX<XJ.eXpXfXzX1XgXDXsXsXhX<XMXMXjXaX1X:XCX+XK I V Z v.>.p p w @..XgX1X-X_.[.].<X}.}.XX}.",
"-X<X-X[.}.].[.[.<X>X1XaX*X<X=X'.}.}.H.H.oXXX<XaXaXaXdXjX9X1XdXaX1X*X,X-XeXpXL A V i.i.9 p =.C.2XrX<X2X}.)._.}.-X}.{.%X{.",
"}.<X$X_.'.{.'.H.-X1X<X1X-X[.].].$X{._.S.[.XXXX-X-X}.<X-X{.}.{.<X2X2XtX1XXXtX<.i ) h.z @.Z.*X$X>XrXrX1XXXH.[.}.-X*X}.}.}.",
"<X-X].[.[.{.{.[.}.rX<X6X-X{.-X}.}.}.[.H.[.*X[.;X9X X}.].{.J.G.1X2X>XtX2X;X-X;X%.W.T._.-X$X*X{.:X2X2X1X}._.[.].-X}.*X%X}.",
"rX-X%X[.{.}.{.[.'.-X1X1X-X'.*X{.].}.'.[.'.*X$X>X>X}.}.$X{.{.D.2X>X:XrX1X-X}.-XrX,X}.*X].'.$X}.-X2XrX1XXX_.`.].-X[.].%X{.",
"aX<X`._.{.}.[._.'.$X1X1XXX].}.{.}.'.[.[.'.$X%X%X*X}.}.*X*XH.D.,X2X1XrX1X1X-XXX-X*X].[.{.].$X-X-XaX1X1XXXH._.].-X[.}.}.}.",
"<XrX*X}.[._.}.{.-X1X>X1XXX'.}.}.{.}.[.[.{.XX}.-X-X}.XX X}._.D.:X1X<X2X2XrX%X$X*X}.}.}.-X}. X-X-XaXrXrX}._.H.}.XX[.}.$X'.",
"*X-X-X}.]._.}.].}.-X<XrX,X'.}.-X}.{._._.XXXX}.*X].}.'.%X}.[.S.,X2X<XrX2X2X$X*X*X-X-X-X-X}.-XXX-X1XaXrX{._.[.$X-X[.].}.'.",
"H._.{.].].}.].*X}.OX1XrX,X}.}. X}.{._.H.{.-X}.}.].{.{.-X%X_.H.rXrX2XrX2X1X*X*X:X-X%X;X:XXXXX-X-XrXrXrX{._.].%X-X{.*X%XXX",
"H.{. X}.$X-X$X{.-X<X1XrX-X'.{.}.{.{.H._.{.{.-X}.].[.'.}.-X{.H.1XrX:X2X2X2X].-X<X-X-X>X:X-X}.-X-X2XaXrX{._.].-X*X}.-X}.<X"
};
