/* XPM */
static char *sushi_2[] = {
/* columns rows colors chars-per-pixel */
"60 60 241 2 ",
"   c #4B0000",
".  c #560101",
"X  c #5B0202",
"o  c #540B0C",
"O  c #5F1214",
"+  c #650706",
"@  c #661819",
"#  c #79130F",
"$  c #7B211F",
"%  c #661C2A",
"&  c #611D35",
"*  c #5E2936",
"=  c #553839",
"-  c #632533",
";  c #652C3B",
":  c #6B2D3C",
">  c #6B2A35",
",  c #6A373B",
"<  c #73353F",
"1  c #6E252E",
"2  c #7B423F",
"3  c #533F45",
"4  c #642F41",
"5  c #6B2E41",
"6  c #6C3144",
"7  c #6C3449",
"8  c #673548",
"9  c #743844",
"0  c #6B3B55",
"q  c #723E53",
"w  c #702F44",
"e  c #794546",
"r  c #6D445C",
"t  c #6F455A",
"y  c #744453",
"u  c #71445C",
"i  c #70485F",
"p  c #7A4C5A",
"a  c #79565A",
"s  c #675254",
"d  c #77615C",
"f  c #6E4860",
"g  c #734A62",
"h  c #744962",
"j  c #7B5265",
"k  c #796566",
"l  c #7E756E",
"z  c #59494E",
"x  c #981B06",
"c  c #891B18",
"v  c #AA1D01",
"b  c #BF1E00",
"n  c #95271A",
"m  c #8E291B",
"M  c #A72509",
"N  c #B62906",
"B  c #BD3109",
"V  c #A72916",
"C  c #AD351C",
"Z  c #B63111",
"A  c #9B3624",
"S  c #903730",
"D  c #A93B25",
"F  c #B32F21",
"G  c #C52D05",
"H  c #C63304",
"J  c #CC3304",
"K  c #C8360B",
"L  c #D43304",
"P  c #D53A08",
"I  c #C33B16",
"U  c #E33C02",
"Y  c #87423E",
"T  c #964637",
"R  c #B84828",
"E  c #A54A38",
"W  c #BB4E33",
"Q  c #A94E33",
"!  c #C9451C",
"~  c #D8491F",
"^  c #F74907",
"/  c #EB5A1D",
"(  c #F25416",
")  c #EE4C12",
"_  c #C94A26",
"`  c #CC512E",
"'  c #D3542A",
"]  c #D75E38",
"[  c #CF4F2F",
"{  c #E35929",
"}  c #F25A22",
"|  c #D3623A",
" . c #86484A",
".. c #924845",
"X. c #885555",
"o. c #995A58",
"O. c #985747",
"+. c #A65848",
"@. c #A55653",
"#. c #B25F46",
"$. c #97645D",
"%. c #85625F",
"&. c #A9665A",
"*. c #A96754",
"=. c #845868",
"-. c #925763",
";. c #8A6769",
":. c #966969",
">. c #89726E",
",. c #9A756B",
"<. c #857371",
"1. c #8B7978",
"2. c #937C7C",
"3. c #997777",
"4. c #936E71",
"5. c #A66C69",
"6. c #A67767",
"7. c #B17769",
"8. c #A67A79",
"9. c #B27272",
"0. c #D66E4A",
"q. c #E77A49",
"w. c #CD5B44",
"e. c #9A847C",
"r. c #A5837B",
"t. c #CA8C6F",
"y. c #E59F7D",
"u. c #997D80",
"i. c #8E7E81",
"p. c #A87F81",
"a. c #948582",
"s. c #9D8282",
"d. c #9C8C84",
"f. c #978B8B",
"g. c #9D9496",
"h. c #9C9288",
"j. c #A28483",
"k. c #AB8C84",
"l. c #A38B89",
"z. c #A8888A",
"x. c #B88988",
"c. c #A5948C",
"v. c #A8968C",
"b. c #B48F91",
"n. c #AB9C93",
"m. c #A89797",
"M. c #BB9191",
"N. c #B59A98",
"B. c #B9928E",
"V. c #ADA296",
"C. c #AFA49B",
"Z. c #B2A396",
"A. c #B4A59B",
"S. c #B5A89C",
"D. c #BAAC9E",
"F. c #BEA29D",
"G. c #B09AA1",
"H. c #BBA4A2",
"J. c #BCADA1",
"K. c #BCACAC",
"L. c #B3A8A5",
"P. c #BEB2A3",
"I. c #BDB5AC",
"U. c #B9B3B3",
"Y. c #AAA0A1",
"T. c #C49A99",
"R. c #C08486",
"E. c #C4AA9F",
"W. c #C29EA1",
"Q. c #CCADAD",
"!. c #C5A7A7",
"~. c #C3B5A5",
"^. c #C6B8A7",
"/. c #C9BAA7",
"(. c #C5B7A8",
"). c #C6B9AA",
"_. c #CBBDAC",
"`. c #CBB4AA",
"'. c #C4ABB1",
"]. c #D1AEB1",
"[. c #C4B4B3",
"{. c #CDB2B3",
"}. c #CCBEB0",
"|. c #CCBBBB",
" X c #C4BBBC",
".X c #D2B3B3",
"XX c #D4BBBB",
"oX c #D7B9B9",
"OX c #D0B1AF",
"+X c #CEC0AE",
"@X c #D1C2AE",
"#X c #CEC1B1",
"$X c #CFC9BA",
"%X c #CCC7B9",
"&X c #D2C4B4",
"*X c #D5C8B6",
"=X c #D9CAB7",
"-X c #D2C7B8",
";X c #D5CAB9",
":X c #DACDBC",
">X c #DDD0BE",
",X c #E1D3BE",
"<X c #E0C2BD",
"1X c #D9BEC3",
"2X c #CBBDC0",
"3X c #CBC3C7",
"4X c #D2C3C3",
"5X c #DCC4C4",
"6X c #D5CCCC",
"7X c #DBCDCC",
"8X c #D7C9C6",
"9X c #DDD2C1",
"0X c #DCD2CF",
"qX c #DBD3D4",
"wX c #DFDADA",
"eX c #D9D4D4",
"rX c #DBCDD1",
"tX c #E2D5C3",
"yX c #E5D9C6",
"uX c #E8D7CB",
"iX c #E3DBDB",
"pX c #EADDDC",
"aX c #E4D7D6",
"sX c #E3CCCA",
"dX c #EAE0CC",
"fX c #E5E1DD",
"gX c #EEDCE0",
"hX c #E6E2E1",
"jX c #EBE4E3",
"kX c #EEEAEA",
"lX c #EAE7E9",
"zX c #F2ECEA",
"xX c #F1E7E5",
"cX c #F2F1EF",
"vX c #F3EEF0",
"bX c #F5F4F3",
"nX c #F8F6F5",
"mX c #FBFAF7",
"MX c #FEFEFE",
"NX c #F6F9F6",
"BX c #EFF0EF",
/* pixels */
"+X_.^.~.+X&X).~.}.).}.-XtX:X@X=X,X&X_.@X_.}.).(.^._._._.+X+X~.;X:X&X-X>X:X;X&X+X+X(.P.P.P.~._._.#X-X9X-X&X&X+X+X=X-X).&X",
"/.}.).^._._./.~.~._._.-XuX:X*X:X=X@X_.&X#X#X_.D.^./._.+X&X_.~.-X>X&X-X>X9X;X-X#X+X).~.^.^.(._.#X#X-X-X;X*X-X#X_.-X-X_._.",
"~.^.^.^.).).~.E.~.).}.=XuX>X*X>X=X*X/.)._._.).D.^._._.+X%X).(.;X>X&X%X$X;X-X#X#X+X_.^.).~._.#X_.+X#X:X:X&X#X_.}.&X&X&X_.",
"~._.).P.).~.^./.~.).#X-XtX>X-X,X,X@X/._.#X+X).~.^._._.+X#X_.).:X>X*X&X$X:X;X#X+X+X+X).E.~.~.#X_.#X-X9X:X&X-X_.}.&X&X#X_.",
")._._._.(.^._.@X^.).+X#XtX=X*X,X,X@X/._._.).~.P.).)._.#X#X}.).:X>X>X=X>X:X:X+X+X_.#X_.^.J.~._.+X#X-X>X-X@X&X+X~.-X-X#X_.",
")./.~./.).).@X_.).#X_.&XyX-X&X,X,X@X`._._.).^.).~.(._.#X-X#X[.;X;X$X+X$X$X:X:X*X#X#X@X~.D.^._._._.;X9X&X+X&X+X~.-X:X#X_.",
"^.^.).).)._.+X_.#X&X_.#XyX-X&X,X=X@X_.}.+X).^.).~.).-X).C.h.e.6.6.7.*.t.6.e.e.n.P.%X-X~.~.).+X_._.%X>X-X+X#X_.P.-X-X_.&X",
"~.~.^.~.^._.&X&X-X&X_.-XtX-X=XtX,X}._._.+X(.~.~.^.L.d.6.7.t.] } / ( ) ( / | ' ` #.6.V.^.^.).+X_.+X#X:X-X#X#X-X~.-X;X_.#X",
"~.`./.^.&X&X=X&X&X&X_.&X9X9X:XtXtX_.^._._.~.^._.d.6.0.( q.t.^ ^ ^ ^ ^ ) ^ q./ ^ ) / R 1.P._.+X_.+X#X9X#X_.=X-X_.-X9X_._.",
"~._.).).&X=X=X&X*X&X}.}.9X9X-XtX,X_.^.+X-X).^.v.#.{ ^ P K { L L ^ U U ^ L y.{ ^ ^ ^ ^ 0.>.).+X+X).$X9X#X+X=X#X_.&X:X}.#X",
").@X_.&X:X:X&X*X-X#X).#X9X:X*X,X=X=X&XA.Z.a.f.e +.5.S @.N...R.R.A 5.7.m 5.O.A C L ) U 0.` ,.#X_.#X:X9X#X&X:X-X_.#X9X&X_.",
"_.&X_.&X:X:X&X-X*X_.).}.yX:X:X>XtXA.l m.f.U.MX6XhXMXjXkXMXbXMXMXhXmXMXeXMX4XiX{.5.D G ` _ R D.-X#X;X9X;X&X:X-X_.#X:X#X/.",
"_.&X_.&X*X=X&X#X-X#X).#XtX=X:XuXl.g.6XNXMXMXMXMXMXmXMXMXMXMXmXmXMXMXMXMXMXMXmXpXXXS G [ ! H 6.-X_.#X>X*X+X-X#X_.-X-X#X^.",
"_.&X&X_.:X&X#X}.&X#X).&XtX;X9XC.e.lXkXwXhXpXeXlXMXMXbX6XbXMXMXMXMXmXwX6X4X0X1X].W.m J ` K L +.%X#X-X;X-X+X:X}._.#X-X_.~.",
"_.&X)._.9X_._.}.-X#X_.-X9X9X-Xl.MXbXhX[.K.K.qXbXMXMXhX3XlXMXMXMXMXnXqX'.'.!.{..XoX@.Z _ H L Q I.-X-X>X-X+X*X#X#X#X:X#X(.",
"_.}.&X_.:X`._._.&X#X_.-XtX;XtX<.eXMXMXMXMXMXMXMXMXMXMXMXMXMXMXMXMXMXMXMXaXQ.OXOX1X9.V P H J R I.-X#X-X-X+X*X#X_.#X:X#X(.",
"~.+X&XI.*X&X+X+X#X}.~.}.9X:XI.g.NXMXMXMXMXMXMXMXMXMXMXMXMXmX8XhXMXMXMXMX-XQ..X.X'.m Z K H P R P.#X-X-X#X_.:X#X+X+X-X-X^.",
"/.+X*X+X*X=X=X;X9X#X(.-X9X:XJ.Y.MXMXMXMXMXMXMXMXMXMXMXMXMXbXeX XMXMXMXMX'.W..X].oX@.N L H P R n.#X-X;X-X&X=X#X#X+X-X-X).",
"+X+X#X).>X*Xg.e.c.c.d.V.$X9X+Xk bXMXMXMXMXMXMXMXMXMXMXMXMXMXMXbXMXMXMXMXN.!..X].{.Y N J H K Q v.-X-X-X*X&X*X&X#X#X#X-X_.",
"@X@X#X+X9Xa.3XeXy p j j k :XP.U.MXMXMXMXMXMXMXMXMXMXMXMXMXMXMXMXMXMXMXMXqXM.oX].XX@.N P H ' W k.&X%X-X-X&X*X@X&X#X#X-X_.",
"+X+X+X+XJ.U.6XwX[.* i i 8 s.).l MXMXMXMXMXMXMXMXMXMXMXMXMXMXMXMXMXMXMXMXfX{..X]..XS N L K ] I r.#X%X-X+X&X&X_.#X_._.#X_.",
"~.+X-X*Xm.2XQ E pX0 t t 0 ;.m.3XMXMXMXmX6XlXMXMXMXMXMXMXMXNX6XkXMXMXMXMXzXoX].].4X5.N L w.` B r.&X+X;X#X-X_._.&X#X#X#X_.",
"~._.-X*Xn.[._ W qXy 7 ; q j h.lXMXMXbX3.3.;.-XMXMXMXMXMXvX1.u.;.8XMXmXMX[.N.oX{.oXO.v w.0.J K ,.%X).;X+X+X+X).#X_.#X#X_.",
"/._.&X@Xn. X*.7.sX; ; > 4 >.V.2XMXMXv.N.3.% 2 cXMXMXMXMXz.N.,.@ e nXMXMXeXoX{..XXXr.+.0.Z Z c 0 +X#X;X#X+X#X#X%X_.#X#X#X",
"~.^.*X+X(.f.aXgX=.& % % - D.+Xd bXMX4.mXQ.X X 2XMXmXMXbX>.MXH.X X 6XMXmXMX8XQ..X].Y W K N $ 6 ; V.#X>X#X#X&X_.#X(.#X#X_.",
"P.~.*X_.;X_.;.-.2 y % , v.yXv.3XMXlXs.H.e + X K.MXMXMXjXu.H.Y + X {.MXMXMX5XQ.]..Xx.n M % q 6 - n.;X:X%X-X_._.-X_._.#X-X",
"P.^.&X).#XdX1.d.tX-Xk c.dX9XZ.g.MXmXs.j.  + X -XMXMXMXbXa.8.  + . 6XMXMXMX5XQ..X5XT.@ : 7 5 : * n.:X:X#X&X_.+X&X#X)._.#X",
"S.).#X).-XyXn.1.>X%Xs n.,X,X~.a.MXMXn.r.:.@ 9 bXMXNXmXMXm.l.$.O  .mXMXMXMX8X.XoX9.> 6 7 5 6 6 > P.*X:X#X&X).&X&X#X_._.-X",
"P.(.#X).;X9X#Xk _.+Xs L.9XyXC.Y.MXNXmXl.3.;.rXMXMXMXmXjXnXs.3.;.aXMXmXmXMXsXT. .; 7 6 5 5 6 ; p &X-X:X*X@X_.&X&X}.#X_.+X",
"/._.-X+X-X=X-X<.v._.z P.;XyXe.m.MXMXMXMXiXnXqXX.B.N. .o {.MXaXbXMXMXMXMXkX8.- 5 7 6 5 5 5 6 @ :.>X-X-X_.+X_.&X-X#X&X_.#X",
"/._.#X_.-X:X*Xv.>.#X3 ).9XyX2.e 7XMXMXMXMXMX`.. .   X . z.MXMXMXnXjX8XN.a - 7 7 5 : w 7 ; # x &.$X-X&X&X}._.&X&X#X_._.:X",
"_.#X&X+X-X>X-XJ.= >.s ;X>X9X1.p ; ;.p.m.H. XH.O # V n X ,.K.b.u.4.;.=.=.=.7 5 : 6 6 w % # M K +.%X&X&X&X&X}.&X&X-X_._.&X",
"/.&X&X).;XtX`.u.4Xb.= -XtX>X<.j f q q t y y j 9 c ~ F > =.p p h j j g f q 8 5 w 5 & @ x M G G +.$X;X9X#X#X_.&X&X}.).+X&X",
"_.#X&X_.;XtXc.n.MXrXa V.yX,Xi.h r r f f u u u u 9 > 5 h u u t f r 0 r f r 7 5 - % o.S N I _ 0.,.).%X:X#X}._.&X&X#X}._.-X",
"+X+X;X_.*XtXc.H.MX XK.k -X).a q g t u u r u r u t g u u r t u u 0 r f f q - %  .T.M.$ K ~ ` ' $.+X+X;X#X#X).=X&X-X&X_.-X",
"_.#X;X).=XtXn.M.zXMXeXm.f.m.-Xy 4 t t i f f f u f u u u i g f f f 0 0 4 %  .M.<X7XzXN.S x v G T $X-X9X-X}._.&X&X-X_.+X&X",
"/.*X-X).&X:XP.3.5XcXMXMXMXMXMX4. .9 : ; 5 5 4 5 4 8 5 4 4 ; : : w  .X.5.M.oX].x.xXMXMXvX}.x.5.:.m.#X>X#X}._.&X*X&X_.+X+X",
"_.&X-X_.=X&X+Xl.x.1XjXbXNXzXaX:.!.sXT.B.p.8.5.:.:.:.5.8.8.p.M.T.{.1XuXaXaX|.].:.o.5XnXmXMXMXMXMX[.l.>X_.(._.&X-X-X+X&X&X",
"_.&X&X_.-X&X/.&XN.z.T.{.oXQ.T.X.iXMXnXnXxXjXxXpXpXgXjXzXxXzXzXnXnXMXMXMXmX'.].oXr.X.5.!.6XsXpX8Xk.A.9X_._./.*X*X&X#X&X#X",
"/.&X*X#X-X=X)._.,X~.v.k.z.j.l.a l.MXMXMXMXMXMXMXMXMXMXMXMXMXMXMXMXMXMXMXqXz..X].1XR.# ..MX!.T 8.K.-X:X}.(._.*X*X=X_.&X_.",
"_.&X&X&X&X&X).:X:X:X9X;X+XP.#Xe.eXMXmXMXMXMXMXMXMXMXMXMXMXMXMXMXhX6XMXMXkXz.].{.oXo.V A !...n ^.:X#X-X#X)._.&X=X:X_.@X_.",
"_.-X:X&X&X&X&X>X=X*X;X;X_.P.I.a.U.mXMXMXMXMXMXMXnXMXMXMXMXMXMXMXBXK.MXMX6Xb.oX].XXR.E I v G &.#X#X}.-X#X~./._.&X:X)._.&X",
"+X*X:X&X*X=X-X9X=X-X9X9X_.D.+XS.<.MXMXMXMXMXMXhX XMXMXMXMXMXMXMXBXkXMXMXbX!.Q.].XXo.D ' P C v.*X&X}.;X_.(./._.&X&X}.@X).",
"&X;X:X*X:X=X&X>X=X:X>X>X/.~./.~.a.wXMXMXMXMXMXnX XkXMXMXMXMXMXMXMXMXMXMXbX|.].].XX9.M P Z ,.#X@X-X&X:X}.(.^._.=X:X#X}._.",
"+X:X*X=X=X=X&X:X>X>XtX>X_.~.~.+Xl L.MXMXMXMXMXMXMXMXMXMXMXMXMXMXMXMXMXMXmX4XQ.1X].m N C r._.).@X&X-X:X_.`././.=X=X}._.).",
"/.*X>X=X=X=X&X&X>X>X>X9X#X~.+X~.f.K.MXMXMXMXMXMXMXMXMXMXMXMXMXMXMXMXMXMXnX|.<Xx.X.X.:.Z.+X).).@X&X:X9X_.~./._.=X&X)._._.",
"/.+X-X-X=X*X_.:X,X:X9X>X+X).I./.V.;.aXMXMXMXMXMXMXMXMXMXMXMXmXMXMXMXMXMXcX!.o.>.Z.;X&X`./._._.&X=X:X-X#X~././.=X}.&X}.}.",
"#X&X&X&X&X:X_.*X,X*X>X9X#X)./.^.~.a.a kXG.hX|.bXL.kXkX7XMXbXMX3XzX_.7X3.8.8.2.).-X_.~.~.).@X_.@X:X-X9X}.`._._.&X}._.@X/.",
"/.&X&X&X;X:X`.&X,X:X>XtX&X~.).~._.(.n.a.<.4.e :.$.:.4.k L.2.`.k 1.9 :.r.9.;.>X-X#X)._./.~._.+X&X:X=X:X`.(.^.).&X_._.&X`.",
"-X&X&X_.&X*X`.&X=X=XtXtX-X).+X~.~.).).D.>XS.n.aXsX>.n.#XA.J.V.;X-Xa.xXzX8X3.#X+X_.(.@X@X~._.+X&X>X:X;X_.J.^._.=X_.&X@X_.",
"9X-X&X^.+X&X`._.>X>XtXyX&X_._.~._.).D.P.D.>.>.MXMXm.A.&X_.).P.;XyXa.6XMXzXa.#X&X_.^.@X@X~._./.+X:X9X>X}.~.^._.=X_._.}._.",
"&X=X&X^._.).~.~.&X=X=XtX_.).).^.#X_.~.h.f.6XK.6XMXL.Z._.(.(.D.-X>X<.j.wXMXf.#X&X_./.*X*X~.+X^.#X:X>X9X_.~.~.).&X_._.}.).",
"+X-X+X~.).).~.P.&X:X*X:X&X_._.^.+X).).1.hXMXMXmXMXm.Z.+X(.(.J.9Xn.4XMXmXjXa.;X#X_._././.)._._.*X9X9X:X#X~.`./.&X+X_.+X_.",
"*X&X_.^.).)._.^.+X:X=X:X&X).@X_._._.^.v.8.8.2.p.8.3.+X^.(.~.S.9X~.8.j.s.8.n.*X#X_.).+X_.).+X_.=X9X:X:X_.~.~._.}._.#X@X_.",
"9X&X+X~.)._._.~.^.*X:X:X&X)._._./.).^.).S.D.S.E./._.+X+X_.I.A.:X>X_._.(.~.#X#X-X#X).).+X/.+X_.&X>X9X:X_.~.`.`.&X(.)._._.",
"9X*X`.~./._.^.P.^.+X:X:X+X/._._._.).^.^._.&X*X=X-X_._.+X_.~.D.-X:X:XtX9X9X&X+X-X#X_.~.(.+X+X@X*XtX>X:X+XP.^./.@X^.).@X_.",
";X9X-X_.`.E.+X_.+X*X=X:X+X).+X_._._.~.^._.)._.&X#X_.}.}._.~.A.-X>X=X9X:X9X+X+X#X+X_._.&X_.}.oX*XtX9X:X}.~.~._._.^._._.).",
"#X-X#X_./.~._._.+X&X:X9X-X^._.#X_.).~.~._.&X_.#X)._./.@X_.^.D.-X>X-X9X>X>X+X#X#X&X&X&X-X_.}.@X@X:XtX>X_.~.^._.@X(._.@X).",
"~.^._././._._.+X_.&X;X9X-X_.).&X_.).~.P.).}._._./.)._.@X@X~.J.9X9X>X9X:X:X#X&X-X*X@X*X&X}.&X}.=X9X9X9X_.~.).&X&X).&X_._.",
"D./._._.+X@X_.).&X-X:X9X&X/.`._.).(.~.~._._._._._.^.(._.@X).~.=X>X:X>X>X:X_.@X-X&X@X=X*X}._.&X&X>X9X9X(.~.^.&X#X_.@X_.:X"
};
