/* XPM */
static char *moha_back[] = {
/* columns rows colors chars-per-pixel */
"60 60 190 2 ",
"   c #010102",
".  c #0A0504",
"X  c #02020B",
"o  c #09070A",
"O  c #0C0A0B",
"+  c #0B0A06",
"@  c #100F0D",
"#  c #100404",
"$  c #12120F",
"%  c #050411",
"&  c #141313",
"*  c #191614",
"=  c #1B161C",
"-  c #1B1B1B",
";  c #181818",
":  c #271C1B",
">  c #1E201F",
",  c #25221D",
"<  c #29211F",
"1  c #3C231C",
"2  c #1A1B2A",
"3  c #181727",
"4  c #181A32",
"5  c #231C23",
"6  c #281F22",
"7  c #1E2621",
"8  c #252224",
"9  c #2C2426",
"0  c #232A25",
"q  c #2C2924",
"w  c #26222B",
"e  c #2D2529",
"r  c #2D2D2D",
"t  c #302627",
"y  c #312927",
"u  c #302728",
"i  c #322A29",
"p  c #35322D",
"a  c #39342F",
"s  c #2D2532",
"d  c #2E2D35",
"f  c #22263B",
"g  c #2B2838",
"h  c #332D33",
"j  c #362E38",
"k  c #382E37",
"l  c #333232",
"z  c #3A3531",
"x  c #39343B",
"c  c #3E3D3E",
"v  c #383536",
"b  c #40352F",
"n  c #423C36",
"m  c #423D3D",
"M  c #4A3B35",
"N  c #412D26",
"B  c #3E403D",
"V  c #45413C",
"C  c #49453D",
"Z  c #584239",
"A  c #252846",
"S  c #3E3D41",
"D  c #383749",
"F  c #2E3556",
"G  c #2E345A",
"H  c #323354",
"J  c #313259",
"K  c #3F3C5B",
"L  c #282A51",
"P  c #363964",
"I  c #3A3D65",
"U  c #363D6C",
"Y  c #3A3D6B",
"T  c #313460",
"R  c #413C41",
"E  c #3E426F",
"W  c #3A4064",
"Q  c #3D4271",
"!  c #444141",
"~  c #4D4944",
"^  c #4D4C4C",
"/  c #4A4740",
"(  c #534B45",
")  c #524D4B",
"_  c #584A48",
"`  c #565249",
"'  c #5A534C",
"]  c #494858",
"[  c #545454",
"{  c #5C5C5B",
"}  c #595955",
"|  c #4F5553",
" . c #704E44",
".. c #675148",
"X. c #775548",
"o. c #665C5B",
"O. c #7F5E55",
"+. c #674C41",
"@. c #55605A",
"#. c #6C645C",
"$. c #656158",
"%. c #7C6158",
"&. c #43456D",
"*. c #46486F",
"=. c #484564",
"-. c #434675",
";. c #434877",
":. c #494B75",
">. c #464A79",
",. c #4A4D7B",
"<. c #504F77",
"1. c #4D527D",
"2. c #51517A",
"3. c #6E6E6E",
"4. c #656566",
"5. c #746D64",
"6. c #746962",
"7. c #7E746B",
"8. c #7B756B",
"9. c #6E6E70",
"0. c #717171",
"q. c #7E7E7E",
"w. c #856252",
"e. c #A9735D",
"r. c #B17158",
"t. c #81796E",
"y. c #997C6E",
"u. c #857C72",
"i. c #897E73",
"p. c #827E7D",
"a. c #A57763",
"s. c #7C817F",
"d. c #89806F",
"f. c #898175",
"g. c #8D867B",
"h. c #81817F",
"j. c #91877D",
"k. c #BB8A75",
"l. c #B18A74",
"z. c #D89C79",
"x. c #C88D75",
"c. c #E7A072",
"v. c #4D5181",
"b. c #505382",
"n. c #827F80",
"m. c #838383",
"M. c #99999A",
"N. c #9A8F83",
"B. c #A5998C",
"V. c #B19184",
"C. c #B4A79A",
"Z. c #BAAC9D",
"A. c #B5AA9C",
"S. c #A8A39F",
"D. c #BDAFA2",
"F. c #BEB2A2",
"G. c #BCBBBA",
"H. c #A7A7A7",
"J. c #C79886",
"K. c #DEA68B",
"L. c #E1A586",
"P. c #C3B5A5",
"I. c #C8B7A6",
"U. c #C5B8A7",
"Y. c #C9BAA7",
"T. c #C5B7A9",
"R. c #C6B9AA",
"E. c #CBBDAC",
"W. c #C9B7A9",
"Q. c #D0BFAF",
"!. c #CDBEB1",
"~. c #CDC0AE",
"^. c #D1C2AE",
"/. c #CEC1B1",
"(. c #D2C4B4",
"). c #D5C8B6",
"_. c #D9CAB6",
"`. c #D5C6B8",
"'. c #D6CAB9",
"]. c #DACDBC",
"[. c #DDD1BD",
"{. c #E2D3BE",
"}. c #DDCFC1",
"|. c #DDD2C1",
" X c #D8D4CC",
".X c #DDD8D2",
"XX c #E1D4C3",
"oX c #E4D9C6",
"OX c #EBEBEB",
"+X c #E9E9E7",
/* pixels */
"/.E.U.P.~./.Y.P.!.R.E./.|.].(._.{.^.E.!.E./.E.T.P.R.Y.E././.R.'.'.'.'.|.].'.(.(.E.R.P.Z.P.F.E././.'.'.'././././.'.!.E.(.",
"Y.(.R.P.E.E.Y.F.T.R.!.'.oX[.(.].{.Q.E./.~./.E.D.Y.Y.~.~.(.R.U.'.[.).'.].}.(./.)./.R.P.I.U.P.E.E././.(.'.'.)./.E.'./.!.~.",
"P.U.P.U.R.T.U.P.P.E.(.'.oX].'.{._.^.Y.E.E.E.E.D.P.E.E.E.(.R.T.'.|.(.(.(.'.'.(.(./.E.I.E.P.P./.E.E./.'.'.)././.!.'./.(./.",
"P.R.U.P.T.P.I.P.P.W.~.].XX}.'.{._.^.E.(.E.W.T.W.P.E.E././.R.R.|.].'.(.'.].'././.Q.W.W.Z.U.F.~.E././.|.'.(.'./.R.'.(./.Y.",
"T././.E.W.R.~.E.R.R././.oX'.'.{.{.^.i.( ~ ( ~ ~ C ( ~ ( ^ ( ( ` ` ) ( ) ` ( ( ( ( ( #.R.Z.P.E./.!./.|.).(.(.~.P.'.(./.E.",
"W.E.P.R.T.R.Q.^.R./.E./.oX(.).[.{.Q.(       X   .                   .               8 T.Z.R.E./.E.'.|.).~.(./.P.].'./.E.",
"P.P.R.Y.E.Y.~.(./.)././.XX(.(.[.].E.`               X X   X X   X             X     u P.F.~.R.).E./.|.(.~././.P.(.'.(.E.",
"P.U.U.P.R.W.(.E.(.).~./.|.'.).B.t.6.<     4 f f f f f f f f f f f f f f A f f f f f j 6.#.u.E.~.R./.[.(././.'.F./.'.E./.",
"P.W.E.R.(.(.].(.(./.E.(.XXXX'.C         X L I I P I W I I I W U Y Y Y Y Y Y I I Y R D o . - ~.E././. X/.~.'.(.E.`.}.!.(.",
"P.E.Y.W.).'._.(.(././.(.|.].]./         X L Y Y U E U U U U U U U Y U U U U U U Y I H X   - E./.!.(.|./.(.'./.E.`.'.E.(.",
"W.!././.'.].).`././.W.~.|.[._.C   X & 3 4 J -.-.Q Y E Q -.;.Q U U Y -.-.-.U E E v.Y I X   - T./.(.'.|.(.(.'.'./.!.|.Q.E.",
"W.(.E.'.'.'.(.`.'./.R.E.oX].'.C   X A G G -.b.,.Q E U ;.v.v.;.U Y Y v.v.>.Q U Q v.b.:.X   * R.(.(.(.|.'.'.'.'.E.(.'.(.E.",
"^./.E.(.'.'.(.(.'.~.E./.|.'.XXC   X A G T ;.v.v.-.Y Y ;.v.v.;.U Y Y b.v.,.Y Y Q v.v.;.%   & P.`.R.(.'.'.~.'./.E.'.'.(.P.",
"~.)././.'.(./.E./.E.E./.|.'.'.V     f G J ;.v.v.-.Y Y ;.v.v.;.U Y Y b.v.,.Y E E v.v.;.% X o F.(./.(.'.'./.'.(.E./.'.!.P.",
"E././.W.|.R.!.E.'././.(.|.|.'.C     f F G ;.v.v.-.U Y >.v.v.>.Y Y Y v.v.,.Y Y E ,.b.-.%     C.(.(.(. X'./.).~.~./.}.E.P.",
"E./././.}.W.E.!././././.XX'.]./     f F G ;.v.v.-.Y H w s s s e r h =.v.,.Y Y -.2.b.*.% X X C.'.(./.(.(./.'./././.'./.T.",
"U./.).R.'.(.(.E././.T.(.|.).).C     f G G Y >.>.Q Y H 5 5 6 6 t t i =.v.>.Y Y &.1.v.:.4 3 3 5.g.N.}.'.`.(.'./.E.~.).(.Y.",
"Y.Y.'.Y.'._.(.~.'./.F./.].).].V   X f G J U U Y Y U Y I P P &.,.,.:.,.,.:.Y Y Y v.v.,.Y Y J   X 0 /.'.'.~.'.E./././.).R.",
"^.~.(.R.].{.(.E.'.E.R.!.|.'.].V   X f H J P I Y Y Y Y I Y E -.,.2.2.2.<.:.I Y &.2.2.1.Y Y J     0 (./.'./.'.).).!.E.(.G.",
"^.(.(.W.[.].^.~.'.R.!.!.R.A.A.a . X 5 w 5 s s s s s s s s s h j k k k k v h h j v v v k l d   o - u.f.B.)././.(././.`./.",
"Y./.(.Y.|._.(./.(.R././.p o         = 5 5 5 5 5 w 5 8 8 6 6 w 9 9 9 e 9 e t t t u u y y i r o   X     p `.`.!./.E././.E.",
"P.E.'./.[._.^./.!.P.E./.z       . X = 5 : 3 5 5 5 5 6 5 6 9 8 9 6 e 9 t q 9 t t u u y y y e .         z (.E.E././././.~.",
"U.E.'.E.}.'.(././.U.R./.q     o o o : 3 5 3 5 5 6 8 8 6 8 8 8 9 6 t 9 t t t t t u u i y i y @ @       z ~.~.R./.R./.E.E.",
"Y.W.).W.].[.E./.F.7.7.5.      5 5 5 5 5 5 5 6 5 w 6 6 w 6 9 8 9 6 e 9 6 9 t 9 t u u t u y y i i *     p E./././.~./././.",
"P.E.'.Y.'.].!.(.f.            5 5 3 5 5 5 5 5 8 5 8 5 w 9 8 9 9 6 t t e e t t t t t y y y p y i *     p (.E.E./.R.(./.~.",
"F.P././.'.'.(.'.f.          X : 5 5 5 5 5 5 5 5 5 6 6 9 8 w 8 8 9 9 6 t e e 9 t t y y y y y i i *     z '.Q.E.(.R.R.R.'.",
"Z.R./.E.`.]./.!.f.          + 5 5 5 6 5 5 5 5 8 8 9 6 8 9 8 9 9 6 9 e 9 6 t 9 t t t y y y y i i *     z (.E./.(.R.E.E.`.",
"A.!./.~.(.]./.(.f.      : 2 5 5 5 5 5 5 5 w 6 w 8 w 8 8 6 6 9 9 e 9 9 9 t t u u u i i y i y y i *     a (.Y.(.'.E.~.E./.",
"F.T./.E.(.[.(.].u.      5 5 5 5 5 5 5 5 5 w 6 5 6 9 w 8 9 9 9 e e 9 t t t t t u u i i i i i i i *     z (.W.(./.E./.E./.",
"R./././.(.'.~.'.u.      5 5 5 5 5 5 5 5 6 8 8 6 w 8 9 9 9 8 e 6 9 t t e t t u u i i i i i i i i *     p )./.(.(./.(.!.`.",
"Y.E././.(.].~.).i.      3 5 5 3 5 5 5 6 5 8 5 6 6 8 6 9 9 9 9 6 e 9 9 t t t u u i y t y i i y i &     z E.Q.(.`.'.E.R.'.",
"E././.!.'.|.E.(.i.      5 : 5 5 5 5 5 6 6 8 8 6 w 8 9 w 6 9 9 e 9 9 t q t e u u u y i y i q * * O     z (.E.].(.'.Y.E.(.",
"Y.(.~.E.].}.E.(.i.      6 5 5 5 5 5 5 5 w 8 6 8 5 w 9 9 9 e 9 e e e 9 t e t t y u i y i i q           p (.Y.(./.(.E./.(.",
"~.^.(.E.'.].(.'.i.      5 5 : 3 5 5 5 6 6 8 6 8 w 8 6 9 6 e 6 t e t t t t u e y i i i y i t   .       p !.E.'.E./.E.E.'.",
"~./.'.E.'.].(.'.f.      5 3 5 5 5 5 5 5 6 8 8 8 w 6 6 9 6 e 9 9 e t 6 t e u u u e t y y y q     & #.5.7./.E.`./.(.(.E.(.",
"E./.'.Y.'.'.(.'.i.      * = = 5 5 6 5 8 8 5 w 8 6 6 6 9 u i i u u i i i i : 5 6 z z a i i 8     0 `.|./.!.Y.(.(.(.E.'.(.",
"E.(.(.E.'.(./.!.t.      .   + : 8 : 8 8 8 0 7 7 : : : i n m m m R R S R h X   @ ^ ^ ~ p p 9     q /.'.`.E./.(.(.'././.^.",
"Y.(.(.R.'.(.E.R.f.          O 6 : 8 8 9 q 0 0 7 8 6 5 k m m S S R R S S h . . & ^ ^ ^ r i w     q /.'./.P./.(.'.(./.(.(.",
"E.(.'.E.(.(.E./.F.#.#.#.    O 8 9 8 0 9 9 q 8 8 ~ o.o.) m R R R R S S c m ' ' ^ S x c V / z     9 /.'.E.E.E.(.(.'./.~./.",
"E.(.'./.`._.Y.E.].^.).P.    O , 8 w w w 0 8 9 0 { m.n.{ m R R c R S S S ) p.p.9.h g l ^ ^ B     q /.}.E.R.E.(.'.'././.E.",
"W.(./.(./.(.E.).'.'.].T.    + , , 8 0 8 8 9 q 0 { m.s.{ B B B B c c c B ^ s.q.0.d d d ^ ) V     8 ~.].E.U.E./.].`.E.(.P.",
"~.'.'.'.(.(.).[.{.'.'./.@   + Z  . .w.w.%.n 9 , { s.s.{ v v v l l l r r R s.q.0.i d c y.j.%.    8 /.).R.P.R.^.(.'.E.!.(.",
"E.'.'.).).(.(.|._.'.XX'.p   # %.e.r.x.x.V._ 9 8 @.s.s.} r r r r r r 5 8 l s.q.0.l r M J.K.V.    , /.'.~.Y.R.E.(.'.~.(.W.",
").'.).].'.).'.[.].'.|.[.a   + %.e.e.k.x.J._ 9 8 @.s.s.| r r r r r q 7 8 l q.s.3.l r M z.z.l.    , (.].E.E.T.E.'.'.E.^.E.",
"(.[.).[._.(.(.[.[.[.XX].a   . b Z M  .+...z 8 w B | [ S r r l l r 0 r q h [ { ^ - - N z.c.k.; > z '.'.E.Y.W.W._.].E.E.E.",
"R.]._._.'._.Q.].[.].|.[.a         . . . . & 7 7 7 7 7 q l l r r l l l l l r r 8     1 K.K.k.C.~.(.].XXR.P.W.E.'.(.U.E.E.",
"E.(.(.(._.^.Y.'.{.].[.}.z                 & 7 8 > 8 2 q r r r r r r d r h r r 0     1 L.K.k.Z.^.).].)./.P.W.W.(.E.(.Q.(.",
"^./.(.).(.).(.).[.[.].{.B.t.t.t.7.8.a     d ! B 8 & & ; - - - > - - - - 0 [ ) !     : e.e.w.P.^.'.'.'./.Y.W.(.(.E.W.(.I.",
"I.(.`.(.]._.Q.(._.].{.|.~.R.P.U.E.U.'     ^ 3.3.0                       ; h.q.4.o X . X .   Z.(.{.'.`.E.P.P.W.(.E.~.(.W.",
"'.(.(.E.(.`.W.(.).].oX{.~.E./.U.T.U.'     ~ 3.3.r                       - s.q.4.            C.'.[.'.`.E.D.P.Q.'.E.!.E.E.",
"|.(.(.P.~.(.P.!.}.[.XXoX/.Y.!.P.R.T.[     4.M.M.c     ( t.7.5.g.g.5.    8 H.H.m.    * d.t.#.F.(.].[.].(.P.R.E.).E.!.E.E.",
"(.'.(.T.R.R.U.W.(._.'.{./.E.E.F./.~.'     M.+X+X}     g.W.P.F.].[.F.    r OXOXG.    p _.P.E.R.).].[.}.E.P.P.E.(.E.E.^.W.",
"^.)./.F.R.R.P.F./.].'.].(.E.Y.R.E.E.`     M.OXOX{     j.T.F.F.'.[.F.    l OXOXG.o   q Y.F.E.Y.'.|.|.].E.P.W.E.(./.E.~./.",
").(.R.P.R.R.R.P.E.[.'.{./.E.E.W./.Y.7.V z S. X.X7.V V B.R.F.D.'.].R./ C $. X.XG.V m $.E.E././.).[.|.'.E.P.P.W.(.E./.Y./.",
"|./.).R.Y.E.W.P.R.).].]./.E.~.E.E.R.P.Y.Y.~.~._._.Q.E.!.!.F.Z.'.).).|.'.(././././.W.Y.~.R./.R.(.|.XX'.E.P.T.I.(.R.Y.W.E.",
"|.).Y.P.W.W.P.P.R.~.'.'.!.E.E.W.W.R.P.R.Y.~.~.)./.!.E.!./.U.Z.'.'.'.|.[.'.(.~.'.E.E.E.P.E.E.(.(.XXXX'.E.F.Y.U.(.R.R.Y.E.",
"'.|./.E.W.I.E.E./._.'.'.E.~.E.E.E.E.P.U.E.R.!.(.(.E.(.E.E.T.C.'.].'.|.'.|./.~.(.E.!./.(.W.E.(.`.XX|.[.E.P.P.Y./.P.R.~.Y.",
"/.'./.E.W.P.W.E.E.(.].|.(.E.Y.(.E.W.P.P.R.!.E./.E.!.Y.^.E.P.D.'.[.].|.].[.~./.~./.(.'.(.E.Q.Q.(.].oX].E.P.W.~.).R.R.~.R.",
"P.P.E.R.Y.E.E./.E.(.].XX(.~.W.(.E.R.P.P.T.!.E.E.Y.E.W.~.^.P.F.|.[.].|.].[./.~.(.(.Q._.(.Q.Q.(.'.|.XX|.E.P.W.(.(.E./.~.E.",
"F.W./.E.~.^.~.Y.(.(.|.].(.E.W.Q.E.E.P.F.R.!.E.E.Y.R.P./.^.R.P.'.[.[.[.[.[././.).(.(._._.(.E.(.`.].XX|.R.T.I.(.!.E.).Y.]."
};
