/* XPM */
static char *moha_right[] = {
/* columns rows colors chars-per-pixel */
"60 60 236 2 ",
"   c #010101",
".  c #090303",
"X  c #04040B",
"o  c #0C0B0B",
"O  c #060A06",
"+  c #110D0C",
"@  c #160806",
"#  c #12120E",
"$  c #1F1608",
"%  c #0D0D1A",
"&  c #130F12",
"*  c #180F11",
"=  c #141313",
"-  c #1D1B1B",
";  c #191617",
":  c #0F101A",
">  c #251A14",
",  c #241D1D",
"<  c #2A1D1C",
"1  c #291815",
"2  c #2E170E",
"3  c #22211E",
"4  c #2B211D",
"5  c #2E2013",
"6  c #37231A",
"7  c #161723",
"8  c #251D22",
"9  c #281F21",
"0  c #2C1D27",
"q  c #1E2521",
"w  c #1E2134",
"e  c #242222",
"r  c #2A2323",
"t  c #2B2628",
"y  c #2C2C2C",
"u  c #262827",
"i  c #342C2D",
"p  c #392B2C",
"a  c #362725",
"s  c #35322D",
"d  c #37322C",
"f  c #2A2935",
"g  c #332D32",
"h  c #3A2D31",
"j  c #333232",
"k  c #3B3532",
"l  c #3E3935",
"z  c #3D3D3D",
"x  c #34323A",
"c  c #2E3526",
"v  c #1E201D",
"b  c #43251B",
"n  c #482614",
"m  c #4B2514",
"M  c #442927",
"N  c #413B36",
"B  c #423B3C",
"V  c #4A3D3A",
"C  c #4B3A37",
"Z  c #50352A",
"A  c #421D12",
"S  c #0E5B1C",
"D  c #1A4C2A",
"F  c #195A29",
"G  c #12622B",
"H  c #27632F",
"J  c #295328",
"K  c #4A443E",
"L  c #594234",
"P  c #64483E",
"I  c #754D3B",
"U  c #7B553C",
"Y  c #67422A",
"T  c #2A2C4B",
"R  c #2A2B45",
"E  c #2C304C",
"W  c #3E3C41",
"Q  c #38344A",
"!  c #2E345A",
"~  c #2F3455",
"^  c #333658",
"/  c #2A2D52",
"(  c #3D3D64",
")  c #363C6B",
"_  c #3A3E6C",
"`  c #343663",
"'  c #3D3F70",
"]  c #2F3262",
"[  c #423B42",
"{  c #463847",
"}  c #4F3F4C",
"|  c #403F67",
" . c #603B43",
".. c #3D416B",
"X. c #3D4266",
"o. c #3E4372",
"O. c #424143",
"+. c #4D4943",
"@. c #4D4B4B",
"#. c #4B4448",
"$. c #514D4C",
"%. c #544945",
"&. c #54514D",
"*. c #5A544D",
"=. c #554454",
"-. c #595857",
";. c #4A534D",
":. c #664E43",
">. c #775447",
",. c #635D55",
"<. c #70544A",
"1. c #68625A",
"2. c #75665C",
"3. c #434366",
"4. c #414574",
"5. c #444876",
"6. c #464979",
"7. c #4C4E7B",
"8. c #524E74",
"9. c #4D517E",
"0. c #545479",
"q. c #6E5868",
"w. c #6E6D6D",
"e. c #666463",
"r. c #746C63",
"t. c #736B69",
"y. c #7A7268",
"u. c #777675",
"i. c #5C6260",
"p. c #B36736",
"a. c #CE7134",
"s. c #865D4A",
"d. c #8A6353",
"f. c #966C56",
"g. c #9D725C",
"h. c #94644E",
"j. c #AA6C54",
"k. c #A97557",
"l. c #B37858",
"z. c #AA7448",
"x. c #84786D",
"c. c #937666",
"v. c #9A7572",
"b. c #87736D",
"n. c #A87A66",
"m. c #B67C67",
"M. c #A17371",
"N. c #F88634",
"B. c #BA8159",
"V. c #8B8479",
"C. c #94887B",
"Z. c #8E8961",
"A. c #BA8269",
"S. c #A28374",
"D. c #B79277",
"F. c #BBA27D",
"G. c #85895D",
"H. c #C3875E",
"J. c #E18042",
"K. c #C38569",
"L. c #C58A6C",
"P. c #CB9679",
"I. c #D2997C",
"U. c #D29379",
"Y. c #C28C70",
"T. c #EA9F69",
"R. c #4E5281",
"E. c #505283",
"W. c #7D8380",
"Q. c #838483",
"!. c #868A87",
"~. c #988E82",
"^. c #9C9285",
"/. c #979793",
"(. c #A49A8C",
"). c #A89C8C",
"_. c #B49D94",
"`. c #ABA194",
"'. c #B6AA9A",
"]. c #BAAD9D",
"[. c #B3A598",
"{. c #9FA0A0",
"}. c #BBAFA1",
"|. c #BEB2A3",
" X c #BBB4AB",
".X c #B1B1B2",
"XX c #9DA29A",
"oX c #D59E83",
"OX c #CB9C94",
"+X c #DBA68C",
"@X c #DAA488",
"#X c #DAA892",
"$X c #CDAC93",
"%X c #E3AB8D",
"&X c #E1AB94",
"*X c #DAAAAB",
"=X c #C3B5A5",
"-X c #C7B8A6",
";X c #CABAA7",
":X c #C5B7A8",
">X c #C6B9AA",
",X c #CBBDAC",
"<X c #C8B7A9",
"1X c #D9B9A6",
"2X c #CCBFB0",
"3X c #C6BCB0",
"4X c #C7AEA1",
"5X c #E4ABAB",
"6X c #D89CA5",
"7X c #CEC0AE",
"8X c #D1C2AE",
"9X c #CEC1B1",
"0X c #C7C3BC",
"qX c #D2C4B4",
"wX c #D5C8B6",
"eX c #D9CAB7",
"rX c #D3C7B8",
"tX c #D6CAB9",
"yX c #DACDBC",
"uX c #DDD0BF",
"iX c #E8CFB5",
"pX c #B6D2C4",
"aX c #C8C8C6",
"sX c #D7CEC3",
"dX c #DDD2C1",
"fX c #D9D1C8",
"gX c #D8D8D7",
"hX c #C3DACE",
"jX c #E2D4C3",
"kX c #E7D9C8",
"lX c #E4CCC7",
"zX c #ECE0CD",
"xX c #EBE2D4",
"cX c #FEFEFE",
"vX c #F4F6F5",
"bX c #EFEFF0",
/* pixels */
"qX>XqXtX2X9XqX9XtXuXrX9X9X,X=X|.].=X=X,X7XqXrXtXdX9XqXyXtX|.7X9X>X-X,X-X=X>X,X,X,X>X8XyXeX8XuXuXwX7X>X2X=X>XqX2X=X-X,X7X",
",X,XqXtX,X9XqXrXtXwX9X9X9X,X>X:X>X>XqXqXeXtXyXkXkXdXyXjXuX>X9XtXwX7X8X,X=XqXrXqXwXqXeXuXuXwXuXkXtX,X,X=X|.>X2X,X=X,X,X,X",
",XqXqXqX2X,XqXqXtXuX9X,X,X7X>X>X].K s l k l l N l l l N l k k l l k k k i k k l k k C =XuXeXdXkXtX7X,X|.=X=X,X:X-X=X=X-X",
",XqXqXqX3X,XwX8XuXdXqX0X,X7X|.:X).o                                                 . '.jXqXuXjXtX7X>X=X<X:X=X<X=X>X,X=X",
",X9XrXtX:X9XqXqXwXdX9X7X7X9X,X,X].=             X                 X           X     X :XzXjXuXdX9X8X>X=X,X8X=X<X;X,X,X>X",
",X9XtXtX=X2X9X7XwXdXtX7X7X`.,.,.*.o   X 7 w w w w w w w w w w w w w w w w w w w w w f ,.r.1.`.zX9X,XqX>X,X8X-X>X<X=X>X,X",
"9X9XtXrX|.,X9X,XtXdX9X,XwXV.          X ! 3...X.X.X...................o.........X.3.{ o     x.zX9X,XqX7X8X,X,X>X-X>X=X=X",
"7X,XtXqX=XwX9X9XrXtX9X>XwXC.            / _ ) ) ) ) ) ) ) ) ) ) ) ) ) ) ) ) ) ) ) ( ^ %     V.kXqX,XqX9XqXwX,X=X-X<X=X=X",
",X2XuXqX>XrXtX7X9XyX9X9XwXC.    . % % % ] 5.o.' _ _ _ o.o.o._ _ _ o.o.o.o.....) o.4.4.%     V.zXqX,X9XrXqXeXqX2X<X>X;X=X",
"9X2XdX9X,X9XtX9XqXdXrX,X8XC.    X / ^ ! 5.R.R.4..._ o.R.R.R.o.) _ 6.R.R.6..._ o.7.E.7.%     x.xX,X,X9XrXrXeXeXwX>X>X;X<X",
"7X9XsX9X7XwXyXqXwXyXtX9XwXV.    X ! ] ] 5.E.R.5._ ) o.R.R.R._ ) ) 6.R.7.o._ _ o.R.R.7.% X   x.xX9X,X9XtXtXqXtXyX2X2XqX,X",
">X9XyXqX>XqXuXqXrXfXrX9XwXV.    X / ! ] 5.E.E.5._ _ o.R.R.R._ ) _ 6.R.9.5.o...o.R.E.7.%     y.dX}.'.|.=X:XwXyXyXwX,X2X;X",
"=X9XrX9X9X9XtX7XwXuX9X>XtXV.    o E ^ ! 6.E.R.6._ ) ' R.R.R._ ) _ 6.R.9.5._ ....R.E.R.%   X & - ; = ; = j ,XeXrXwX,XqX,X",
"=X7XrXwX,X9XtX9XwXtXrX7XtXV.    X E ^ ! 6.E.R.5._ _ o.E.R.R.' ) ) 6.R.R.5._ _ o.R.R.R.:   X             3 >XrXtX2X,XqX2X",
"=X9XtX9X7X7XrX,XrXsXwX9XrXC.    o E ! ! 6.E.E.6.' _ 4.E.E.E._ ) ) 6.R.9.5._ ( o.9.9.7.%   X   X X X     e >X9XjX,X,XqX,X",
"=XqXtX9X9X9XwX,XrXrX9X9XuXC.    X E ! ! _ o.' ' _ _ _ o.4.4.6.6.6.9.R.R.5._ ( 4.9.R.R.~ R T T T T R R f x B z K '.rX2X>X",
">XqXrX7X9X8XyX7X9XrXrX,XtXC.    X E ! ! ) | ' | ' ) ' ) ' ' 6.E.E.E.7.7.| | _ | E.E.E.' _ o._ _ _ ' ( | Q X     (.yX,X;X",
">XqXrX9X9XqXtX9XrXtXtX9XjX^.    o E ^ ~ ` ` ] | | | | | | | E.E.E.8.8.8.5.| _ | 0.0.0.| ( ( _ 4._ 3.^ | Q       ).uX;X;X",
",XqX9X9X9X9XwX9XrXyX).2.r.%.    X f g f } q.q.} Q { { { { { } } } q.b.q.=.Q { | } } #.Q Q Q R f f f f f x &.,.1.'.wX,X,X",
",XtXqX9XqX8XwXqX9XfX-.          X 8 e < <.M.M.>.A M A b b b b b b >.M.M.>.M M M M M p h g y &       .   e 2XkXkX,X7XqX8X",
",X9X,X,X9X9XwXtXtXzX1.  .       . - 8 1 <.n.j.>.A n m m m m m n A s.g.j.s.n b b m M b M d c # .         , =XeXtX,XqX9X-X",
",X9X9X9X9X,X7X`.^.[.+.      o X o 8 8 1 d.m.l.d.P :.L 6 b 6 Z Z Y d.M.j.s.P %.L A b 6 a a y #     = y r +.,XyXuX7XrX7X=X",
",X9X3X,X9X,X7Xd   O       o r 9 8 8 8 1 c.U.K.$X0XaX/.    @ k.D.m.m.m.m._.2XaX/.. . . 4 s y #     K >X,X2X,XeXjX,XwX>X=X",
"9X9X9X7X9X9X7Xd           . 8 9 8 8 8 1 c.oXY.4X0XaX/.    o g.K.m.K.K.m._.aXaXXXO   . a i s #     +.7XwXqX8XyXtX,XrX,X-X",
"3X9X9X>X9X9X2Xj       .   o < < < < 1 > c.oXP.=X0XaX/.O O # g.A.L.L.K.A.[.aXaXXXO O O r p i =     +.qXwX9X2XyXqX,XtX>X=X",
"rX9X,X,X9X,X,Xd   . # v ; a %.P L 4 < 1 C.#X#XlXbXcXpXD D J D.%XI.@XI.@XuXvXcXhXJ F D c p i =     +.7XyXqX9XyXqX,XrX=X=X",
"9X,X:X9X9X9X>Xs     * r 1 N <.I <.6 1 > M.5X6XlXcXcXpXG S H F.%X+X+X+X+XlXcXcXhXH G F c a i =     +.qXwX,XqXdXrX>XqX=X].",
"qX7X7X9XtXtXqXd     * r , M >.s.I 2 1 2 ^.5X6XlXcXcXpXF S J F.%X+X+X+X+XlXcXcXhXF S D c p k =     +.wXyXtX9XyXrX,X9X>X'.",
",X>XqX X&.K K *     * 9 < a Z M Z >.s.U k.Y.A.$X8X8X$XZ.G.Z.I.%X#X#X#X#X1XiXiX;XC.C.Z.C a h 0 8 , i K K r.qXdXrX>XqX:X=X",
"qX,XrX].O           * 9 < , , - 6 k.B.B.k.z.z.B.L.Y.P.@X@X@X$X%X+X+X+X#X#X@X@X@X5X5X*X .a h h h h ;     v >XyXrX,XqX,X>X",
"tX,X7X|.#           * 8 8 8 r , a c.A.A.n.A.l.A.U.U.I.I.I.I.%X%X%X+X%X+X#X1X1X1X*X*X*X} a h h p i ,     u ,XuXrX,XqX,X-X",
"rX>XqX|.+     + + & * < 9 8 4 e 6 I U <.>.<.I z.L.K.L.L.L.L.P.I.I.I.P.U.D.c.c.c.v.v.v.C i h p p i -     u ,XuXtX,X9XqX;X",
"rX,X8X}.#     - e 8 < 8 8 9 9 8 < 2 2 2 1 > $ Y l.j.j.j.k.l.l.l.z.z.l.B.U 5 6 6 6 b M p p h i i i ,     u :XjXwX;XqXqX>X",
"qX>XqX].o     ; , 8 9 r 9 9 8 < 4 < < < e e 1 P n.l.l.l.l.l.l.B.H.B.B.H.s.6 c k p p p i i h i p k -     e >XuXtX,XqXqX,X",
"9X,XtX|.#     = e 8 e 9 8 8 < e , 4 4 r e r <  .d.d.h.f.f.f.f.k.f.z.g.k.I 4 t t l j k i i g t 0 t r r 3 O.,XyXtX;XtX2X2X",
"qX9XqX=X#     ; e e 8 8 < < 8 , < e r e e q e a 0 < a V C K C V C K N L 6 .   = $.%.+.j i g & .   +.wX7X9X9XyXtX>XtXqX;X",
"9X7XqX|.#     ; q 8 e 8 8 9 8 e 8 r r r q q q 3 9 , r z B z z W W W W O.u     & $.$.$.k g j =     &.eX9XqX9XwXtX>XrXrX>X",
"wX9XwX|.o     ; 8 , 8 , e 9 < r 9 9 t t c u u u 9 9 a B K [ O.W O.W W O.t . . ; @.@.@.j i g = .   %.qX7X>X-XwXtX>XrXqX,X",
"9X9XwX|.#     . o . = , < r e e u u t u q u e #.t.t.q.{ [ [ [ [ W W W z $.t.e.-.x x x #.#.@.-     %.yXqX,X>XwXwX,XrXqX;X",
",X7X9X:X#           & 4 < < e u u y u u u u e &.!.Q.u.B z z z z z z z z -.!.Q.u.x f y @.;.&.,     +.wXyX,X>XeX9XqXrXqX;X",
">X9XqX=XO           o r 4 4 3 3 8 - e < u u e &.!.W.w.O.O.O.K z W z W z r.E.Q.w.g f x O.@.$.-     &.kXjXuX,XqXqXqXqXwX,X",
"qX,X,XqXx.y.r.2.r.x.l o @ 4 <.>.>.d.d.r.C 9 v ;.W.W.w.j j j j x x j y u *.Q.Q.w.j f g c.S.C.k     e *.*.r.,XtX9XwXtXrX,X",
",X9X,XrXyXeXqX2XrXzX1.    a n.l.l.U.U.OX=.9 - ;.W.W.w.y y y y y c u q - ;.V.W.w.j y d D.%X1X+.  .       ; }.tXwX8XyXtX,X",
",X,XqXtXrX>X=X=X,XdX,.    a n.l.m.P.P.OX%.< e ;.W.!.w.j y y j y y e e - @.!.!.w.j j k P.%X#XV           ; 3XkXdXtXtXtXqX",
",X,X2XeXtX;X,X<X>XjX,.    ; :.:.:.s.2.2.z e q W i.i.&.y y j y j y u u u W e.e.-.8 v 4 H.T.I.g.&.-.-.-.-.-.u.x.u.,XeXyXqX",
",X,X>XqXwX,X<X=X>XkX1.  .           .   ; e 8 q q v u j y j j y j j j j y y y e .   @ a.N.N.iXcXcXcXcXcXgXo     '.jXwX-X",
"2X2XqX2XrX;X>X=X,XkX,.                  ; v v 8 q e u j g y j j j g j j j y y v     @ a.N.N.iXcXcXcXcXcXgXo   O [.jX,X-X",
";X8X,X2XqX,X,X,X,XdXy.; 3 3 - , -       e f y u - - e u u u u u r u u u y z z y     @ p.a.p.$XkXgXgXgXxX.Xo   O `.yX,XqX",
";XqX2X,XqX;X<X<X>XyX9XqX=X=X|.].).#     @.w.w.x       . O   O   .   O   j W.u.e.  . . + * @ # = = = = = #     . [.eX2X<X",
";X2XqX2XeX,X=X}.,XtXyXjXrX2X7X,X].;     $.u.u.z                         z Q.Q.e..                               `.tXrXwX",
";X2X,X,XwX>X:X=XqXyXyXyX,X>X>X>X].=     @.u.u.z       .           .     W !.Q.e.      . .   . O . O . O O     o (.wXtXyX",
";X2X;X,XrX>X=X4X,XdXyXuXqX<X,X>X=X#     /.gXgXw.    u `.(.C.^.~.^.j     i.gXgX{..   O u.^.~.~.^.`.(.(./.~.C.^.^.|.qXtXwX",
",X8X,X2XrX;X<X=X2XtXdXdXyX,X,X,X'.=     {.vXcXQ.    k kXdX=X,X2XqXK     w.cXvX0XO   o [.wXqXqXyXkXuXjXyX>X,X9X7X=X7XwX,X",
",X7X9X,XqX;X:X=X,XyXuXdXeX,X,X2X'.+     {.bXvXu.    y eXtX'.|.:X,XN     i.vXbX.X    . (.8X,X:X9XeXrXyX,X=X>X>X=X-X,XqXtX",
",X2X>X<XqX;X<X=X7XyXuXuXqX,X,X;X=Xy.r.r. XsXsX`.y.y.V.yXsX[.:X,X8XC.r.r.(.fXfX Xr.2.2.4X,X2X>X9XyXuXrX-X=X,X7X>X=X8XqXjX",
";X2X>X=XqX<X=X=X,XuXuXdXwX7X2X2X>X8XeXyXwX,XqXfXkXzXkXsXtX'.|.,X8XwXeXdXeX,X3X<X8XqXqX2X>X,X,X2XyXeX7X=X=X=X,X>X=X=XrXjX",
">X,X,X=X,X8X=X=X,XyXdXjXqX9X,X,X9X,X>X,X9X,XqXdXtXyXwXuXwX[.|.7X2X,X;X2X9X7X,X>X=X|.>X,X,X,X>X9XeXeXeXqX,X2X=X<X,XqXdXrX",
">X8X,X=XqX8X=X=X>XuXjXyXqX9XqX;XqXwXqXqX9X7X7XyXuXdXtXuXtX].:X,X8X;X,X;X8X7X9X2X=X=X>X,XqX,X>XqXjXtXqX,X;X,X=X;X,X2XrXqX",
",X8XwX>XqX8X>X=X>XdXdXdXrXqX9X9XqXqX2XwXwXqX8XyXuXjXuXdXdX|.=X8XqX>X,X;X,X,X2X>X=X|.,X,X2X,X,XqXjXyXqX2XqX;X,X;X<X,X=X=X",
"tX,XqX,X,XwX<X=X>XkXdXuXrXqX,X9XeXeXqXqXwXqX>XeXuXuXtXuXtX|.;X8X,X<X<X;X>X2X2X<X|.=X,X<X,X>X>XqXyXyXeX8X;X,XqX,X,X,X:X]."
};
