/* XPM */
static char *front_moha[] = {
/* columns rows colors chars-per-pixel */
"60 60 225 2 ",
"   c #020202",
".  c #0A0505",
"X  c #0A0807",
"o  c #04050C",
"O  c #060908",
"+  c #0C0B0A",
"@  c #130704",
"#  c #110D0C",
"$  c #0C1107",
"%  c #17100E",
"&  c #050613",
"*  c #090B16",
"=  c #0A0B19",
"-  c #141312",
";  c #181715",
":  c #1B1916",
">  c #1D1C1B",
",  c #281A15",
"<  c #241E1D",
"1  c #291E1D",
"2  c #311E18",
"3  c #1F261F",
"4  c #25211E",
"5  c #2C211E",
"6  c #35231C",
"7  c #3C241A",
"8  c #0B0D27",
"9  c #111122",
"0  c #1A1A25",
"q  c #231C22",
"w  c #281E21",
"e  c #1C2722",
"r  c #242323",
"t  c #2A2423",
"y  c #272B26",
"u  c #252428",
"i  c #2D2D2D",
"p  c #362625",
"a  c #3B2A22",
"s  c #342B2C",
"d  c #392B2C",
"f  c #2B3628",
"g  c #33322B",
"h  c #2E2D34",
"j  c #2F2D3D",
"k  c #3B2D35",
"l  c #2F3332",
"z  c #323232",
"x  c #3A3532",
"c  c #3A3537",
"v  c #3D3D3D",
"b  c #42291B",
"n  c #482819",
"m  c #4F321B",
"M  c #462722",
"N  c #422B2B",
"B  c #4E362A",
"V  c #55362A",
"C  c #59352A",
"Z  c #472E31",
"A  c #46383C",
"S  c #413D3E",
"D  c #623A31",
"F  c #703934",
"G  c #1A4E2B",
"H  c #175829",
"J  c #2B582C",
"K  c #0F6127",
"L  c #256125",
"P  c #386125",
"I  c #44423F",
"U  c #55433B",
"Y  c #59433A",
"T  c #6E4D3D",
"R  c #2B2E4A",
"E  c #2C304D",
"W  c #3E3D41",
"Q  c #373549",
"!  c #2A2E50",
"~  c #2E3556",
"^  c #2D345A",
"/  c #363B5B",
"(  c #393958",
")  c #313662",
"_  c #373C65",
"`  c #3A3C65",
"'  c #353968",
"]  c #363C6B",
"[  c #3A3E6C",
"{  c #413C41",
"}  c #453C58",
"|  c #376C4C",
" . c #3C416E",
".. c #3C4170",
"X. c #434342",
"o. c #4C4847",
"O. c #574848",
"+. c #504A53",
"@. c #585859",
"#. c #6B4E43",
"$. c #6F5E57",
"%. c #4C7756",
"&. c #6A615E",
"*. c #564E67",
"=. c #5E516B",
"-. c #454A7A",
";. c #4B4E7D",
":. c #4D517E",
">. c #7B5F64",
",. c #656363",
"<. c #6F6769",
"1. c #6C6C6C",
"2. c #6D7872",
"3. c #727272",
"4. c #767976",
"5. c #7D7D7C",
"6. c #823930",
"7. c #EA7B2F",
"8. c #FE7D25",
"9. c #976B4F",
"0. c #8C6657",
"q. c #986C5A",
"w. c #9C725D",
"e. c #A76E58",
"r. c #AB7456",
"t. c #A4745C",
"y. c #B07655",
"u. c #B2745A",
"i. c #B37C5C",
"p. c #876567",
"a. c #946967",
"s. c #987469",
"d. c #8E7776",
"f. c #A06D60",
"g. c #A57865",
"h. c #B87F69",
"j. c #C57752",
"k. c #7D807E",
"l. c #938B7E",
"z. c #BC8366",
"x. c #AE8976",
"c. c #B68975",
"v. c #AA9774",
"b. c #B69579",
"n. c #B5A07A",
"m. c #E18345",
"M. c #C3866B",
"N. c #CD8E73",
"B. c #D0847A",
"V. c #CA9377",
"C. c #D2997C",
"Z. c #E4A27A",
"A. c #4C4F80",
"S. c #4E5181",
"D. c #8F8880",
"F. c #9D9285",
"G. c #9F9488",
"H. c #A59587",
"J. c #A19689",
"K. c #AC938A",
"L. c #A59A8D",
"P. c #BB9D8E",
"I. c #AEA393",
"U. c #B3A798",
"Y. c #BAAC9D",
"T. c #ACACAC",
"R. c #BBAFA2",
"E. c #B7ADA8",
"W. c #BEB1A2",
"Q. c #B7B3AE",
"!. c #B9B8B5",
"~. c #C79C87",
"^. c #D59D83",
"/. c #CD9E9A",
"(. c #F48D82",
"). c #C8A48D",
"_. c #DCA386",
"`. c #D5A589",
"'. c #DDA68B",
"]. c #DBA88D",
"[. c #C6A498",
"{. c #D9AA93",
"}. c #D9A996",
"|. c #C0AAA2",
" X c #D8A7A6",
".X c #C3B5A5",
"XX c #C8B6A6",
"oX c #C6B8A7",
"OX c #C9B9A6",
"+X c #C5B7A8",
"@X c #C6B9AA",
"#X c #CBBDAC",
"$X c #DAB9A5",
"%X c #C2B8B7",
"&X c #CCBEB0",
"*X c #BFC2BC",
"=X c #CEC0AE",
"-X c #D1C2AF",
";X c #CEC1B1",
":X c #C5C3BB",
">X c #D2C5B4",
",X c #D5C8B6",
"<X c #D9CAB6",
"1X c #D4C7B8",
"2X c #D6CAB9",
"3X c #DACDBB",
"4X c #DDD1BE",
"5X c #E1D3BE",
"6X c #E8D1BE",
"7X c #C3C4C5",
"8X c #CBCBCA",
"9X c #DBCFC0",
"0X c #DDD2C1",
"qX c #D6D3CF",
"wX c #D8D8D7",
"eX c #E1D4C3",
"rX c #E5D8C7",
"tX c #FAE7D6",
"yX c #DFF3EB",
"uX c #E8E8E8",
"iX c #F5ECE8",
"pX c #EAF3E9",
"aX c #F2F9F2",
"sX c #F7F9F5",
"dX c #FDFFFE",
/* pixels */
"=X#X@X.X#X;XOX.X&X@X&X1X0X3X>X<X5X-XOX&X#X;X#X+X+XOXOX=X;X;X@X3X3X3X1X9X3X2X>X-X;XW.oXY..XW.#X;X;X3X3X1X;X;X;X;X2X;X=X;X",
"OX>XOX.X#X#X@X.X@X@X=X1XeX4X>X3X5X-X#X>X#X;X@XR.@XOX=X#X;X@XW.3X4X2X1X3X9X1X1X>X=XoX.X@X.X.X#X#X&X;X>X1X>X3X>X#X>X;X=X=X",
".XoX.XoX+X@XOX.XW.#X;X3XrX3X3X5X<X>XOX#X#X#X#XR..X&X#X=X;X%XoX3X0X>X;X1X2X2X1X1X;X#XoX=X@X.X;X#X;X;X3X1X>X;X;X&X1X1X1X=X",
".X@X@X.X+X.XXX.X.X@X=X3XeX4X1X5X<X-X#X>X#X#X@X+X.X&X#X=X;X#X@X3X3X1X>X3X2X2X;X=X=XOX@XY.@XW.=X=X;X;X3X3X;X1X;X#X2X;X=X@X",
"@X>X#X#X#X+X=X#XOX@X;X;XeX3X3X4X5X&X.X=XW.oX.XR..X.X@X@X;X#X@X9X3X1X1X1X3X>X&X#X@X#X#X@XY..X#X;X;X>X9X>X>X>X=X.X2X1X;X#X",
"@X#X.X@X+X@X-X#X@X;X=X;XeX>X,X4X6X#Xt . O + X X + + X O X X X O X . + . X . + O X # .X.XY.@X@X;X=X2X0X>X=X>X;XW.3X1X;X=X",
".X.XOXOX@X#X-X>X>X>X=X;XeX,X;X5X<X#X4                                             . @X.X.X=X@X,X=X!.4X1X=X;X>X.X;X3X>X=X",
".XXXOX.X@X@X>X#X>X>X;X;X0X3X,X4X5X=X<   o & * * * * * = = = = = * * = = = = = = = = +X.XY.=XOX;X=X=X4X1X;X;X2X.X>X>X=X=X",
".XOX#X+X>X>X3X&X>X&X#X<X0X0X3Xg # #     & ( ( / / / / / / / / / / / / / / / ) / ( { 0 + - .X#X=X;X;X9X;X;X2X2X@X1X3X=X;X",
".X#X@X#X1X<X<X>X1X>X#X1X0X4X3X>         & _ _ ] ] _ ] ] ' ] ] ] ] ] ] ] ] ] ] ] ` ( *   . .X#X=X=X;X9X1X-X2X=X=X2X2X=X1X",
"OX#X;X#X3X3X1X>X;X;X@X#X4X4X,X>     O o 8 _ [ ..] [ [  ... .] ] ]  . . .] ] ] ] ..` 9   . W..X>X>X1X4X1X1X2X2X>X;X9X=X@X",
"#X>X#X3X3X<X>X1X2X;X@X#XrX3X3X>   o R E ^ ;.A.;. . .[ ;.A.;. .]  .;.;.;...[ ..A.S.:.9   O oX@X,X>X1X0X2X2X2X2XW.1X3X>X@X",
"-X>X#X1X1X3X>X>X1X;X@X;X0X3X4X<   o ! ) ) A.A.;.[ [ [ ;.S.:. .] [ ;.;.;. .[  .;.S.:.9 . o .X.X>X=X;X3X,X=X3X>X=X2X1X=XoX",
"#X>X&X#X3X>X>X#X>X;X#X;X0X2X3X>   o ! ^ ) ;.A.A...[ [ ;.S.A. .] [ ;.S.;. . .[ ;.S.:.9   . R.@X>X;X>X,X1X;X,X>X=X>X2X=XOX",
"#X;X&X#X3X@X&X#X;X;X>X>X0X0X3X<   o ! ~ ) A.S.A...[  .A.S.A. .] [ ;.:.;. .[ [ ;.S.;.9     L.@X;X>X>X3X1X>X>X;X=X;X2X;X.X",
"#X;X;X;X3X#X#X#X>X;X&X;XeX2X3X>   o E ~ ) A.S.A.[ ] [ A.S.A.[ [ [ ;.S.:. .[ ` ;.S.A.9   o L.@X3X:X>X2X>X;X1X;X;X=X2X>XQ.",
"oX;X>X@X,X>X>X#X;X;X+X>XeX1X<X>   o R ~ ) -.A.-.[ [ [ A.A.A.[ [ [ ;.S.;.[ [  .;.:.:.0 & & G.@X3X;X9X2X1X>X1X=X=X=X1X;X#X",
"OX#X2XOX<X<X<X#X2X;XW.;X4X>X3X:   o R ~ ) [ [ [ [ [ [ [ [ ..A.A.S.;.S.;.-.[ _ ;.:.:.[ ^ ^ . O : :X>X2X>X#X3X=X;X;X;X1X#X",
"-X=X1X@X3X3X>X#X1X&X#X#X0X1X3X>   o R ~ ^ ' [ [ [ ' ` [ [ [ A.A.S.:.:.;.` [  .-.:.S. .` _     # =X;X1X3X;X,X;X>X;X#X;X@X",
"-X-X>XOX0X3X-X;X1X@X;X#X3X3X3X:   o h Q ( } } } } } } } } } *.=.=.=.=.=.} ( } *.*.*.} ( (     - =X1X>X>X,X>X>X1X;X;X1X&X",
"OX>X>X@X0X<X-X;X>X@X>X&Xx > :     o q q p >.p.p.Z N N M N N N N C p.a.p.{ k Z Z Z x z z j *   ; W.;X>X;X1X>X=X;X#X;X;X#X",
"oX#X1X;X0X<X>X=X;X+X#X;X:         . q q 2 p.e.q.V n n n n n n n n 0.q.e.C M N n n M a s i .   + =X;X2X;X;X#X=X;X;X;X;X#X",
"OX#X1X=X4X3X;X;X;X.X@X;X;       o o < q 6 a.u.e.C V B b b 7 n m C 0.e.f.F B B b b 7 a s y +   # oX:X2X:X;X=X@X;X@X;X;X#X",
"OXOX1XOX3X3X;X;X>XoX@XG.      > q q q q p x.N.N.[.!.E.< . # 0.i.g.h.h.h.|.Q.T.i @ @ 5 s t +   # =X;X1X=X#X;X;X;X;X;X;X;X",
".X#X1X#X1X3X;X>X,X#X;Xl.      < w w 1 < 6 x.V.V.;X:X!.4   X w.z.z.M.h.c.%X7X*Xy     5 s i +   # @X;X2X1X1X=X@X>X@X;X;X&X",
"W..X;X;X1X3X>X1X3X@X;Xl.      5 1 1 , < 6 v.V.~.:X:X!.e O $ q.z.z.M.h.z.!.7X7Xh O O 4 a s +   # @X3X2X1X2X=X=X;XoX#X#X2X",
"R.@X;X#X>X3X>X&X3X;XOXD.    % O.#.Y 2 , a P.}. XiXaXyX| G J v._._.'.].}.iXsXpX%.H G f s p O   # =X1X3X;X>X=X;X;X#X#X&X>X",
"Y.@X;X&X>X3X;X>X>X;X;Xl.    % #.T #.6 1 7 U. X XsXsXyX| K L n.'._.'.].}.iXdXaX%.K H f a s +   + =X1X2X;X>XOX;X1X&X#X#X>X",
"W.+X;XOX>X3X1X3X>X#X;XF.    # #.T T b 2 7 P.`.[.iXpXpX%.L P n.'.'.'.].}.iXsXpX%.L J f d s .   + ;X1X3X1X1X@X>X=X#X>X#X;X",
"OX&X>X;X>X3X=X1X;X@X#XF.    # p 7 b 9.9.9.z.z.z.C.).).b.v.b.`.].}.'.{.}.$X$X$X[.P.P.U d s     + >X2X>X;X>X=X>X>X=X>X#X>X",
"OX#X;X;X>X4X#X1X>X&X.XF.    # w 5 6 t.i.z.r.z.y.V.V.V.C.C._._.].'.{.'.}.'.].{.}. X X#.s s     + =X1X>X;X=X&X1X>X1X#X@X,X",
"#X;X;X;X1X4X=X>X>X#XoXF.    # 1 < t q.t.w.w.9.r.M.N.V.V.C.C._.'.'.'.'.].).)./././. X{ s s     + ;X1X3X;X>X=X3X>X1X#X#X1X",
"OX>X#X#X3X3X>X>X1X#X#XF.    # 1 < 1 b n b a 7 n r.u.u.u.i.i.j.m.m.m.m.$XR.E.E.E.E.j.D d d     X >X3X3X;X1X#X>X>X&X#X-X>X",
"=X>X>X#X1X3X>X1X>XOX#XF.    # < w < 2 2 , w < 7 q.r.r.r.y.y.j.8.8.8.8.tXdXdXdXdXdX(.6.d h     # ;X;X9X;X#X#X1X#X>X#X#X1X",
"#X;X1X#X3X3X>X3X>X#X&XF.    # w 4 < 1 1 w r 1 p a.s.e.t.t.r.j.7.7.7.7.6XqXqXwXwXwXB.F s s     # #X;X4X&X&X#X1X;X>X,X#X1X",
"#X>X,X#X1X3X>X1X>X1X&XJ.    # < q 4 5 t t r u w M a 7 U U U U U Y Y Y Y % + X c { O.k z i     + 1X;X0X;X;X#X>X>X>X#X>X>X",
"#X>X>X#X3X>X;X&X=X>X>XG.    # w w r w t r e e 3 w , 5 x I I S { I v W v +     W +.+.x z s     + 2X1X2X>X@X>X>X>X2X;X=X;X",
"#X-X>X@X3X>X#X@X>X=X;XL.    # w w t r t u y e r w q 5 I v I v W W v W W # . . W o.o.z i i     + 2X&X1X;X.X-X-X>X1X;X-X>X",
"=X>X,X#X>X>XOX=X3X;X1XL.    # t r r t u t y y i ,.<.<.U S S S { W W v S &.&.,.W c c X.o.I     # 2X;X3X#X#X#X1X1X3X>X=X>X",
"#X>X,X;X>X,X#X#X4X=X1XL.    # 4 r u y u t u r i 4.d.S.@.S S v W W v v X.3.5.5.{ h l o.o.o.    # >X;X3X#X@X#X>X1X1X#X=X#X",
"OX>X>X>X>X>XOX,X4X,X2XI.    + 5 1 t t t s u u i 4.k.5.X.S S v v A Q J X.3.D.5.W h h o.O.o.    $ >X&X3X&X@X#X-X3X1X#X>X@X",
"=X,X,X,X>X,X1X4X4X,X2X=XO   % $.0.0.g.g.d.d r y 4.k.5.v l g l l z s u y 1.5.5.X.h z l.V.x.    + &X;X1X@X+XOX-X1X1X#X#X>X",
"#X3X,X,X>X,X>X0X,X,X4X3X:   @ q.u.u.N.N.K.k t y 2.k.5.v i i i l i q 4 r 3.S.5.{ i g c.'.).    + >X>X1X&X@X+X#X>X3X#X>X@X",
">X3X>X3X4X>X3X4X3X4X0X4X:   # 0.e.g.c.b.x.d t y 2.5.4.c i i h i i r 5 y 2.l.5.W s s c.Z.`.    # >X1X3X#X#X.X#X1X3X=X$X#X",
";X3X,X4X,X>X>X3X4X4X0X4X:   . , , , 1 2 5 r 3 r l z c i i i l i i i i i c v v ; + # V.Z.C.x U @.&X3X1X#XOXOX@X<X3X#X#X#X",
"OX4X,X3X3X<X-X3X4X3X4X0X:               . 0 r r e 0 y i h i i z i h z z h i y +   @ ^.].^.F.OX-X>X3X3X#X.XOX#X1X>X.X#X#X",
"OX>X-X,X,X>XOX3X4X4X4X4X> . . O .         r 4 r > r r i i i i i i h i l z z i X   @ ^.'._.J.=X-X>X3X1X&X.X#XOX<X#X>X&X>X",
">X=X>X,X>X<X=X,X4X3X0X0X#X#X@XW.@XY.>   O @.@.@.* O O + + + O + + + + + @.1.,.:   . B V B H.#X-X3X1X3X#X#XXX&X1X#X#X-XXX",
"XX;X1X>X<X1X#X>X<X3X5X4X=X@X.XoX#XoX4   + ,.1.,.+                       1.k.5.>           G.;X>X3X3X1X#X.X.X#X>X#X-X>XOX",
"3X,X1X#X>X<XXX>X3X<XrXeX>XOX;XoX@XoXr   O ,.3.1.+       X   O O .       1.5.5.>     . O . J.OX3X3X3X1X+XW..X#X<X#X&X&X#X",
"0X,X;X@X>X&XOX&X3X4XeXrX;X#X#X.X#X@X3   * Q.7X!.-   # W.@XW.Y.1X>Xi   O T.8X7Xi     .X-XW.Y.@X>X3XeX3X>X.XOX#X1X#X&X#X&X",
"-X1X>X@X#XOX+XOX1X<X<X5X;X#X@X.X;X#X<   - qXuXuX:   - oX#X.XW.2X4Xg   . 8XpXuXz     OX,XW.;X@X>X3X3X0X#XW..X@X<X#X#X#XOX",
"-X<X#X.X+X@X+XW.>X3X3X3X&X#X#X+X=X@Xt O : 8XuXwX< . ; OX+X+XW.2X4Xx O + 7XuXwXz   X W.=X.X#X@X<X0X0X3X&X.XOX#X>X#X#X-X&X",
"1X>XOX.X+X@X+X+X#X3X3X3X>X#X#XOX=X@XI.G.L.:X=X>XU.L.I.OX+XW.R.2X,XY.U.I.>X9X7XI.L.L.=X@X@X;X=X<X0X9X2X#X.X.X#X>X@X>X#X&X",
"0X>X1X@X+X#X#X.XOX1X3X3X&X#X&X#X#XoX.XOX@X=X;X<X<X&X#X;X&XW.Y.3X,X,XeX3X>X&X&X>X&X@XOX=XOX;XOX>X5X0X2X#X.X+XXX>X@X@XOX#X",
"0X>X@X.XOXOX.X.X@X-X3X1X&X#X#XOXOXoXoXoXOX=X=X>X&X>XOX#X&X+XR.2X3X3X0X3X3X>X#X3X#X#X#X@X#X#X>X>XeXeX2X#X.XOXOX>X@X@X#X#X",
"1X0X>X@X#X.X#X#X&X>X3X3X#X#X#X#X#X@X.XOX&X@X#X;X>X&X>X#X=X+XU.1X2X2X4X2X0X=X=X1X@X=X;X;X#X&X>X1XeXeX3X&X+X.X#X>X.X@X#X@X",
">X1X;X#XOXXX#XOX&X<X4X3X>X#X#X>X#X#X.X.X@X&X#X>X@X&XOX-X#X.XR.3X4X3X0X3X4X=X;X=X>X;X,X>XOX#X&X>X3XrX3X#X+XOX#X>X@X@X#X#X",
".X.X@X@XOX#XOX-X#X>X3X0X>X&XOX>X#X+X.X.X+X&X#X#XOX#X@X-X-X.X.X4X4X4X4X3X3X;X=X2X>X>X,X,X#X>X>X,X0XeX0X#X+XXX&X>XOX>X#X-X",
".XOX&X-X#X-X#X@X>X>X3X0X<X&XXX#X#X#X.XW.@X&X#X#XOX@XXX&X-X+XW.3X4X3X4X4X4X=X;X>X>X-X<X,X1X#X>X<X3XeX0X#X+XOX>X&X#X1XOX3X"
};
