/* XPM */
static char *mohap[] = {
/* columns rows colors chars-per-pixel */
"60 60 234 2 ",
"   c #010101",
".  c #0A0302",
"X  c #010109",
"o  c #0D0C0B",
"O  c #050906",
"+  c #120D0D",
"@  c #1A0B08",
"#  c #12110E",
"$  c #090A13",
"%  c #090A15",
"&  c #141313",
"*  c #1A1515",
"=  c #1C1B1B",
"-  c #1A1816",
";  c #30170D",
":  c #241D1E",
">  c #2B1D1C",
",  c #271A15",
"<  c #29150F",
"1  c #1E211E",
"2  c #23211E",
"3  c #2A211D",
"4  c #2C2013",
"5  c #382419",
"6  c #1D1C25",
"7  c #16162D",
"8  c #251D21",
"9  c #281F21",
"0  c #321E22",
"q  c #1E2621",
"w  c #1E2134",
"e  c #242222",
"r  c #2A2324",
"t  c #2C2C2C",
"y  c #282827",
"u  c #342C2D",
"i  c #392B2C",
"p  c #372825",
"a  c #35322B",
"s  c #2D2B33",
"d  c #262535",
"f  c #342D32",
"g  c #3A2C30",
"h  c #333232",
"j  c #3B3532",
"k  c #3E3835",
"l  c #3E3D3E",
"z  c #363239",
"x  c #401E13",
"c  c #462618",
"v  c #4A2716",
"b  c #442926",
"n  c #413A35",
"m  c #423D3E",
"M  c #4B3D3A",
"N  c #4A3636",
"B  c #513629",
"V  c #613B27",
"C  c #0E5C1C",
"Z  c #194928",
"A  c #175829",
"S  c #0B5520",
"D  c #116429",
"F  c #37662B",
"G  c #395632",
"H  c #48423C",
"J  c #534035",
"K  c #67493B",
"L  c #774E37",
"P  c #292B4B",
"I  c #2A2A44",
"U  c #3E3C42",
"Y  c #39354B",
"T  c #2E355A",
"R  c #2F3253",
"E  c #313553",
"W  c #31355B",
"Q  c #313048",
"!  c #3D3C64",
"~  c #353C6B",
"^  c #393D6C",
"/  c #353664",
"(  c #3C3F70",
")  c #2F3262",
"_  c #423B42",
"`  c #463844",
"'  c #513E51",
"]  c #403F67",
"[  c #3D416B",
"{  c #3C4266",
"}  c #3E4472",
"|  c #3F4543",
" . c #424243",
".. c #4D4945",
"X. c #4C424D",
"o. c #4E4B4C",
"O. c #4B4743",
"+. c #534D47",
"@. c #55514D",
"#. c #534853",
"$. c #585856",
"%. c #684A45",
"&. c #775447",
"*. c #635C54",
"=. c #655D5B",
"-. c #70564C",
";. c #6B645C",
":. c #786358",
">. c #444366",
",. c #424574",
"<. c #494D7C",
"1. c #484A75",
"2. c #514E74",
"3. c #4D517E",
"4. c #53547A",
"5. c #6E546A",
"6. c #5D6261",
"7. c #6A6A6A",
"8. c #666463",
"9. c #746C63",
"0. c #766867",
"q. c #7B746A",
"w. c #797167",
"e. c #787675",
"r. c #B96D3A",
"t. c #80593F",
"y. c #D87736",
"u. c #855B47",
"i. c #855C53",
"p. c #8B6557",
"a. c #966B56",
"s. c #9E7158",
"d. c #A97457",
"f. c #B27758",
"g. c #A96F50",
"h. c #97786B",
"j. c #8D726D",
"k. c #A97966",
"l. c #B77C67",
"z. c #A07370",
"x. c #F78536",
"c. c #BA815A",
"v. c #9C8569",
"b. c #8B8478",
"n. c #968B7A",
"m. c #878660",
"M. c #AA816A",
"N. c #B78269",
"B. c #B18971",
"V. c #86895D",
"C. c #C48A6D",
"Z. c #C38469",
"A. c #CF997B",
"S. c #CB9578",
"D. c #D3977A",
"F. c #D38F62",
"G. c #E79053",
"H. c #4E5281",
"J. c #515384",
"K. c #4C4F82",
"L. c #7D8381",
"P. c #838383",
"I. c #898B87",
"U. c #988E82",
"Y. c #9C9387",
"T. c #90938F",
"R. c #A59B8D",
"E. c #B09488",
"W. c #ADA394",
"Q. c #AFA498",
"!. c #B2A699",
"~. c #B5A99C",
"^. c #B9A99B",
"/. c #B1A693",
"(. c #A4A4A5",
"). c #B9AEA1",
"_. c #BEB1A1",
"`. c #BABABA",
"'. c #A4BCB0",
"]. c #D59D83",
"[. c #C39A86",
"{. c #C9A587",
"}. c #DBA58C",
"|. c #DCA88E",
" X c #D9A387",
".X c #D9A894",
"XX c #D2B39C",
"oX c #E2AB8E",
"OX c #E5A784",
"+X c #E0AA96",
"@X c #D49EA4",
"#X c #C3B4A5",
"$X c #C6B8A6",
"%X c #C9BAA6",
"&X c #C5B7A9",
"*X c #C6B9AA",
"=X c #CBBDAC",
"-X c #C8B7A9",
";X c #D9B8A6",
":X c #CDBFB0",
">X c #C7BFB7",
",X c #D4A6A6",
"<X c #E4AAAA",
"1X c #E0B4AD",
"2X c #A7C9B7",
"3X c #B3C3B8",
"4X c #CEC0AE",
"5X c #D1C2AE",
"6X c #CEC1B1",
"7X c #C4C4BE",
"8X c #D2C5B4",
"9X c #D6C8B6",
"0X c #D9CAB7",
"qX c #D3C7B8",
"wX c #D6CAB9",
"eX c #DACDBB",
"rX c #DCD0BF",
"tX c #E1D2BE",
"yX c #EDD2B8",
"uX c #B2D0C1",
"iX c #C9C8C8",
"pX c #D7CEC3",
"aX c #DDD2C1",
"sX c #D9D2C9",
"dX c #D8D9D7",
"fX c #E2D5C3",
"gX c #E9DDCB",
"hX c #E5D7C7",
"jX c #EBD9D5",
"kX c #ECE0CC",
"lX c #F0E0CA",
"zX c #FEFEFE",
"xX c #F4F6F5",
"cX c #E8E8E8",
/* pixels */
"4X=X&X_.6X8X%X#X>X-X=XqXaXeX8X0XtX5X%X=X=X=X*X#X#X%X=X=X4X4X_.wXeX8XqXrXwXqX6X4X=X&X_.^._.#X=X:X6XqXrXwX6X8X6X4XwX6X=X6X",
"%X:X=X&X4X=X%X_.&X:X=XwXhXaX8XeXtX9X8X8X9X8X8X#X4X5X5X8XwX6X=XaXfXeXeXhXhXaX0X9XqX6X%X%X&X-X=X6X6X6XqXwX9XqX6X=X9X8X4X4X",
"#X$X&X$X&X-X&X#X_.*X6XwXgXeXwXtX4XH j n j j j u j j j j k j j k n j k k k k k k j j n !.$X=X6X=X6X6XwXeX8X6X4X:XqXqX6X=X",
"#X=X$X_.&X#X$X&X#X$X6XwXfXeXqXtX%X+                                                 O U.-X#X=X=X6XqXhXwX6XqX:X*XqX6X6X=X",
"$X:X:X=X$X&X6X4X$X=X6X6XaX0XaXlX8X*   X   X   X     X     X       X           X X   o W.=X=X8X=X6X8XrXqX8X5X4X&XeXqX6X*X",
"*X$X#X%X%X$X4X=X$X6X=X6XkX~.;.9.;.d 7 d w w w w w w w w w w w w w w w w w w d 7 X   . +.;.$.R.4X4XwXaX8X4X8X4X&XwXwX6X4X",
"_.&X*X$X*X%X4X4X6X6X=X6XkXU.    O Y >.! { [ [ [ [ [ [ [ [ [ [ [ { [ { { { { >.W X           w.0X*X6XaXqX4X6X4X_.qXwX4X6X",
"#X$X&X-X$X=X5X8X6XqX=X6XkXY.    $ E ! ! ~ ~ ~ ~ ~ ~ ~ ~ ~ ~ ~ ~ ~ ~ ~ ~ ^ / ^ T X X         q.9X6X6XaX6X6X6XqX_.6XwX=X4X",
"#X%X$X$X6X8XeX8XqX8X=XqXgXY.    % { } } ^ ^ ^ [ } } } ^ ~ ^ } } ,.( ^ ^ } } ,./ 7 % % O     j.0X`.6XrX6X4XwXqX*X8XrX4X4X",
"&X=X*X*X8X0X0X8X8X:X=X=XgXY.  X % <.J.K.} } ^ 1.H.H.<.^ ^ ^ 3.H.K.,.^ } } K.J.1.T E R $     q.8X*XqXrX8X6XwX6X4X6XpX4X6X",
"%X8X:X6XeXeX8XwXwX6X=X6XkXY.    % 1.J.H.} [ [ ,.3.H.<.~ ~ ^ <.H.J.,.^ ^ ,.H.J.<.) ) T %     q.9X6XeXeX8X8XeXqX6X6XsX6X=X",
"=X6X=XqXeXeX8X$X&X_.~.~.pXb.    % ,.J.H.} [ [ ,.3.H.<.~ ^ ^ 3.H.K.} ^ ^ ,.H.J.1.) T E $     q.9X6XwXaXwX8XeX6X*X8XwX6X$X",
"=X8X=XqXqX0X8XH & - & - = & X   $ 1.H.H.} ^ ^ ,.<.J.<.~ ~ ^ <.J.H.} ( ^ } H.H.<.) T E $     w.eX*X6XrX9X4XwX6X*X8XwX6X&X",
"=X6X:X:XwX8X4Xu             X   $ 1.J.H.,.[ ^ ,.J.K.<.~ ^ ^ K.H.J.} ~ ^ ,.3.H.<.T T E $     q.eX4XqXeX8X6XwX6X4X8XqX4X&X",
"=X8X=X=XfX:X6Xh   X X X X X X X $ 1.3.3.,.! ^ ,.<.J.<.~ ^ ^ <.J.H.} ~ ^ 1.H.H.<.T T E $     q.9X6XqXpXqX4X9X4X4X6XeX6X_.",
"%X6XqX_.+.k m z s I P P P P P I P 3.J.4.,.^ ^ ,.3.H.K.1.<.<.,.,.} ( ^ [ } } } [ T E R $     q.rX6X6XqXqX4X9X6X4X6XwX6X*X",
"$X=XeX!.O     Q >.! ^ ^ ( ^ ^ } } H.H.H.] ] ( ,.K.K.J.J.J.J.( ^ ^ ~ ^ ^ ^ ~ ( / ) T R $     q.rX4X8XqX8X4XeX6X6X4XwXqX&X",
"%X=XeX/..     Q >.] ] ^ >.{ ^ { { 4.4.4.] ] ( ,.2.2.2.4.4.4.] ] ! ! ! ] ] / ] ] R E Q $     j.sX6XpXwX8X6XwX6X6X4XqX8X*X",
"5X5X8X_.9.$.$.z d d d d d I Y Q Y ` X.X.' R Y #.0.5.5.' ' ' ` ` ` ` _ _ ' 5.5.' f s d o .   H 9.8.Y.eX8X8X9X8X6X6X6XqX*X",
"5X5X8X=XhXhX9Xj           $ t h i b b b b b b %.k.z.i.v c c c b c c b c %.z.z.-.9 8 8 o           O.rX6X6X9X4X8X6X6XqX=X",
"%X4X8X*XwX0X=Xu           # t 5 i b v v v c x L d.s.u.v c c v v v v v 5 K g.k.i.> 8 8 . X     O   @.hXwXwX8X4X4X4X4X6X*X",
"#X4X9X6XaX0X8X@.r u -     # t a p 5 c 5 B +.J u.k.d.p.V V B 5 5 5 B %.K i.f.l.p.0 8 8 $ . o       k Q.Y.W.4X%X8X6X4X6X=X",
"#X=XqX4XaXeX=X6X=X%X*.    o t a 5 . .   T.iXiX@Xl.l.l.N.B.M.-     P.iX>X@XF.A.v., 8 8 8 8 y $       O   r &X>X6X*X6X6X4X",
"&X=XqX%X0XeX4X6XqX4X*.    + u u p O     I.iXiX^.l.Z.Z.Z.N.d.*     P.iX7X,XC.A.k., > 8 8 8 8 o           e _.6X6X6X6X6X6X",
"#X&X9X%X6XrX4X6X9X8X*.    o u i p o O . T.iXiX^.l.l.Z.Z.Z.k.- O   L.iX3X$XA.].z.; > > > > 9 + X O   .   2 &X5X6X>X4X6X=X",
"#X#XqX4XqXrX6X8X0X8X*.    # i i t Z A Z 3XzXxXhX}.}.OX].].[.G Z Z '.zXxXhX.X@XE.3 , > M K %.i * 1 #     2 &X4X6X*X=X6XqX",
"_.&X6X*XwXaX8X=X0X8X$.    o u i a A D A uXzXzXjX.X}.}.}.oX{.F D D '.zXzXjX@X<XE.4 > 5 K &.&.N , r -     2 #X6X4X6X*X4X6X",
"^.&X6X=XqXeX6X8XeX0X*.    o f i a A C A 2XzXzXgX.X}.}.}.|.A.F C S 2XzXzXjX@X<XE.< , ; K t.&.N , r *     e %XeXwX6X=X=X6X",
"_.&X6X*XwXeXwXq.H O.u : 8 9 f 0 b b.n.b.%XyX0X1X.X.X|.}.|.{.V.V.m.^.5X;X{.c.N.N.t.u.&.B b B 0 > 9 *     # H H +.~.9X*X6X",
"&X6X6X4XqX0X6Xh     & j g g g i M .X<X<X|. X}.|..X|.|.}.|. X|.oX XA.F.C.c.g.g.d.c.c.N.c * : 9 9 9 *             R.0X4X6X",
"%X4X6X=XqXrX4Xz     * g g g g i N @X1X<X+XXXXXXXoXoXoXoXoXoXD. XD.D.S.A.C.c.c.M.N.N.M.p : 9 9 9 9 *           O Q.8X*XwX",
"=X4X4X4XwXrX6Xj     * g i i g f n j.z.h.h.v.h.B.A.S.A.D.A.A.C.C.C.Z.Z.C.s.L -.&.&.&.&.5 > > 9 9 9 * + + +       Q.8X*XqX",
"%X6X6X=XwXaX:Xh     - f i u g g i b 5 c 0 5 4 L c.f.c.d.g.f.f.g.g.g.g.f.L @ , , ; ; ; > 9 > r 8 8 : : e 8     O W.8X=XqX",
"4X4XqX=X0XeX8Xz     - j g u g f u i p p g j 5 L c.c.c.c.c.c.f.f.f.f.f.l.&.> 2 e > > > > 8 : 9 9 r 9 8 : =       R.wX&XqX",
"4X4XwX*XwXeXqX@.: r r r r r u u u j z k t y 4 K g.g.s.s.s.s.s.a.a.a.p.p.%.> r e r r > : : : : 9 8 e 8 e -       Q.eX=X8X",
"=X8XwX*XwXeX6XqX$XwX*.  . o f u h ..o.o.- . . : H n H J M M M M M p > 0 r r q q e r e 2 8 9 : 8 8 8 e 8 - X   . Q.qX4X6X",
"%XqX9X$XwXqX6X6X5XeX;.  X + f f j ..o.@.-     6 | l U U U l l l n p 6 : 9 q q q r r r 8 e r 8 9 9 8 e q -     O !.8X4X4X",
"%X8XqX*XeX8X$X$X6XqX*.  . + u f h ..o.#.=   . 8  .l U  .U U m H m f 8 0 y y y y r y r e 3 8 9 9 : 8 8 8 -       !.8X8X6X",
"=X6X9X=X9X8X=X=X8XrX*.  X & ....X.z z z $.8.0.@.l U U U U U m _ ` =.0.7.o.e y y y r y 8 r e 3 3 : & O o O X   . !.wX8X4X",
"=X8XqX6X6X0X%X=X0X0X;.    - @.o.o.f d s 7.I.P.8.k l l l l U l _ k 7.I.I.$.e y y y d y y y e 2 > > &           . ^.6X4X4X",
"%X8X8X8X8X8X=XaXfXgX;.    - ....X.s s s 8.L.L.8.l  .| l l  . .| U 7.L.I.$.e r r 2 2 8 8 6 : > > 3 #             ~.8X:X%X",
":XqX0X8X8X8X:Xe.+.$.y     y n.M.h.j s h 7.P.P.$.t t t h z h h h h 7.L.L.$.8 r n :.p.i.&.&.-.p + o a q.q.;.9.w.q.6X=X=X8X",
"=XwXeX8X8X0X*Xe .     O   k ;XoX{.n y t 8.L.P.#.= 1 e t t t t t t 8.L.L.$.q 2 M [.].S.f.f.M.b     +.gXqX8X8X9XeXwX=X8X=X",
"6XeXwX0XfXhXqXy           u .XOXA.N h h 7.I.I.$.= q y t t h t t t 7.L.L.$.q r ` [.].].l.l.M.b     ..aX=X#X#X=X8X0X:X=X=X",
"6X0XeX4Xe.q.e.=.$.$.$.$.@.j.D.G.F.5 8 8 o.7.8. .y y y t t h t h t o.6.6.| y e j :.:.p.%.%.%.3     +.rX$X$X=X-XwXeX=X=X=X",
"=X8XrX&Xo   . 3XzXzXzXzXzXyXG.x.y.@   X 1 t y h h h h h f t h t h q = q = e e -               .   +.hX%X#X-X=X9XqX-X=X=X",
"%X4XrX_.#   O iXzXzXzXzXzXyXx.x.y.<     = t t h h h s t t h h s h y q e q 6 8 -                   +.aX=X#X-X=X9X:X8X=X=X",
"6X6XeX_.+     (.dXdXdXdXdXXXr.y.r.@     y l l h y y y y y y y y y e = = y t t y       - = : 1 2 * =.fX=X=X=X=X8X=X%X8X=X",
"%X6X0X#X+     # & & & & & # @ @ @       $.L.L.`   O   O   .   O X O     t 7.7.$..   o n.#X^.#X#X6X6X0X=X&X&X-X8X=X:X8X-X",
"wXqXwX^.o                         X     $.P.I. .                        h e.e.$.    O W.4X4X6X9XfXeXwX=X).&X=X0X:X6X=X=X",
"eXwXqXQ.&   X . . O   O O   O           $.P.P.O.      O   O   .         h e.e.$.    o R.%X$X=X6XeXaXeX:X#X&X=X9X=X=X:X=X",
"8X0X8X#XY.U.U.n.R.R.R.W.Y.U.U.U.b.#     T.dXdXe.    r n.U.U.b.R.!.j     $.dXiX(.O   o /.=X=X&X6XeXeXaX:X#X#X=X8X=X=X5X%X",
"=X9X4X&X4X6X4X&XeXfXtXhX0X8X8X8X#X-     (.zXzXP.    j 4X:X:X&XaXlX..    7.zXxX`.O   o R.4X=X%X0XaXaXeX:X#X-X%X8X6X=X=X=X",
"wX8X%X&X&X&X$X#X=XeX8XeX6X-X=X=XQ.o     (.xXxXe.    y &X&X_.~.wXrXn     6.xXcX`.    O R.6X=X=X9XfXeXeX=X#X#X=X:X=X6X6X=X",
"aX8X6X&X$X6X*X#X$XqXaXeX8X%X:X=X#Xw.9.;.).sXpXQ.9.:.b.6X*X&X~.wXrXU.w.q.R.pXsX`.w.:.9._.=X=X=X8XeXfXeX:X#X-X%X8X-X*X=X%X",
"aX9X&X#X%X=X$X_.$X4X0XeX6X$X=X=X=X8X8X8X-X=X=XwXtX9X8X6X:X_.~.wXrXfXgXgXaX8X=X8XeX9X8X=X=X4X8X8XfXeXeX=X#X$X%X:X&X%X6X=X",
"wXrX6X=X&X#X=X=X:X0X0XeX:X$X:X=X=X%X_.#X=X=X=X8X:X=X=X=X=X#X!.qXrX9XrX9XrX4X4X6X*X=X=X4X=X=X8X8XfXaXaX=X#X).=X4X&X=X=X%X",
"qXqX8X=X%X$X=X%X=X9X0XaX8X=X=X8X=X%X#X#X>X6X=X6X%X=X-X5X=X#X^.eXrX9XaXrXrX4X6X6X6XqX8XqX=X:X8X8XeXfXaX*X#X&X5X8X&X=X=X$X",
"#X#X%X$X%X=X=X6X=X8XeXaX8X%X=X:X=X*X_.#X*X6X=X=X=X$X=X5X5X#X_.aXrXrXaXrXrX4X4X9X8X5X8X9X=X:X8X8XaXaXaX*X#X=X5X8X%X8X5X=X",
"^.=X=X=X4X5X=X=X8XwXeXpX8X=X$X=X-X=X#X_.*X=X:X=X%X&X-X=X8X=X_.wXrXwXrXrXeX=X8XwX8X5X0X9X8X=XqX0XrXfXaX*X#X%X8X:X:X8X=XwX"
};
