/* XPM */
static char *mur_boit[] = {
/* columns rows colors chars-per-pixel */
"60 60 150 2 ",
"   c #5F4029",
".  c #63442C",
"X  c #68462E",
"o  c #664630",
"O  c #694731",
"+  c #664831",
"@  c #6D4B33",
"#  c #714E33",
"$  c #745136",
"%  c #7A5436",
"&  c #74533A",
"*  c #7A563B",
"=  c #7D593C",
"-  c #7A5640",
";  c #7E5A40",
":  c #825C3E",
">  c #86613F",
",  c #825E42",
"<  c #885F42",
"1  c #845F48",
"2  c #856245",
"3  c #8A6445",
"4  c #8D6947",
"5  c #866349",
"6  c #8A6549",
"7  c #8D694A",
"8  c #916745",
"9  c #936946",
"0  c #90674A",
"q  c #936C4B",
"w  c #996E4A",
"e  c #96704D",
"r  c #9B724D",
"t  c #926A50",
"y  c #9D7552",
"u  c #9F7855",
"i  c #9F7858",
"p  c #A2774F",
"a  c #A4794E",
"s  c #A17652",
"d  c #A37A55",
"f  c #AB7D54",
"g  c #A47C5A",
"h  c #A97F5B",
"j  c #B17F55",
"k  c #A47F60",
"l  c #AC8056",
"z  c #A6815C",
"x  c #AB825C",
"c  c #B28256",
"v  c #B3845A",
"b  c #B8875C",
"n  c #BA8B5F",
"m  c #A58261",
"M  c #AC8462",
"N  c #B08664",
"B  c #B58D66",
"V  c #BB8E65",
"C  c #B68F69",
"Z  c #BA8E69",
"A  c #BE9063",
"S  c #B7906B",
"D  c #BD936C",
"F  c #BF9671",
"G  c #BF9871",
"H  c #C39366",
"J  c #CC9767",
"K  c #CC9867",
"L  c #C2966B",
"P  c #CB9768",
"I  c #C4986D",
"U  c #CC9A6B",
"Y  c #D09E6F",
"T  c #C09772",
"R  c #C39A74",
"E  c #CB9E76",
"W  c #C69E78",
"Q  c #D19F70",
"!  c #CFA06F",
"~  c #D4A16F",
"^  c #D8A36C",
"/  c #CDA175",
"(  c #C6A17A",
")  c #CDA27B",
"_  c #D3A373",
"`  c #D9A774",
"'  c #D6A877",
"]  c #DDAA76",
"[  c #D2A57B",
"{  c #D5A97B",
"}  c #DBAB7B",
"|  c #E2AC75",
" . c #E1AE7A",
".. c #E5B276",
"X. c #E5B27B",
"o. c #EAB57D",
"O. c #EDB97E",
"+. c #F2BB7E",
"@. c #CEA781",
"#. c #CFA881",
"$. c #D0A783",
"%. c #D6AB82",
"&. c #DAAE82",
"*. c #D8AE88",
"=. c #DBB185",
"-. c #DEB38A",
";. c #E0AF81",
":. c #E4B484",
">. c #EAB683",
",. c #EDBA85",
"<. c #E2B68C",
"1. c #E9B788",
"2. c #E7B98B",
"3. c #ECBB8B",
"4. c #F3BD83",
"5. c #F1BE8B",
"6. c #F8BF8B",
"7. c #E2B790",
"8. c #E4BA94",
"9. c #EABC92",
"0. c #F0BF90",
"q. c #EFC08F",
"w. c #F6C085",
"e. c #F9C286",
"r. c #F5C28C",
"t. c #FBC58B",
"y. c #FEC98E",
"u. c #EDC194",
"i. c #EFC499",
"p. c #F5C491",
"a. c #F9C692",
"s. c #F7C893",
"d. c #FDCB93",
"f. c #F2C79B",
"g. c #F3C99E",
"h. c #FECD9C",
"j. c #FFD196",
"k. c #FFD39C",
"l. c #FFD89F",
"z. c #F4CDA1",
"x. c #FDCFA1",
"c. c #F6D1A7",
"v. c #FFD4A2",
"b. c #FFD9A4",
"n. c #F6D1AA",
"m. c #FBD4AA",
"M. c #FFDDA9",
"N. c #FFDFB0",
"B. c #FFE1AE",
"V. c #FFE4B3",
/* pixels */
"5.3.@ a.[ ; M.g i V.; R v.& u.%.= k.d z V.1 } } = v.m l k.= >.[ > l.9 I b.2 h.S M b.2 5.P d k.e u.[ < v.d [ 9.r v.q U p.",
"5.2.@ p.E , M.i i V.; ( h.& q.%.= j.d z V.; ` } = v.m l h.= 1.[ > j.4 ( z.< d.C M v.3 O.L s k.q u.@.: k.r [ 9.w v.8 E h.",
"5.2.@ r.E ; M.g i V.2 R h.& 9.{ * h.d k N., } } ; k.g x d.= 2.$.3 j.4 G h.2 t.B M k.3 ,.L s k.q u.#.2 b.s E 9.w b.0 E h.",
"0.2.@ r./ - M.g i V.2 R k.& q.#.* h.d h N., } } ; b.g z k.: 2.[ 3 j.7 D c.2 y.B x h.3 4.I g k.q 9.#.< b.s [ 3.r k.q U h.",
"3.2.O p./ ; M.g i V.; W x.& 3.$.* h.g l V.2 ` } ; l.z z k.; 3.{ 4 k.7 G v.2 y.B M v.3 ,.L d k.q 9.@.< M.y [ 9.w h.t E h.",
"3.3.O r./ ; M.g y V.; ( x.& p.[ * d.g g M., } } ; v.k l k.; 3.$.4 j.7 G l.3 s.B x v.6 ,.L u h.q u.) < b.y [ 9.w h.t P h.",
"5.1.O r./ ; M.i y V.5 L x.& 5.[ = h.g g M.; } %.= k.m z k.= 3.[ 6 k.7 D g.3 s.B x v.6 ,.L d h.q 9.$.< b.s [ 9.r v.0 U h.",
"3.1.+ r./ - b.g y V.5 D h.& 3.{ % k.g g M.2 ` } ; k.z l k.: :./ 4 j.q D c.3 a.B N v.3 ,.L d k.q 9.$.1 m.s E 8.w v.0 E x.",
"5.9.O 5./ = b.g y V.5 R h.& 2.[ * k.i d b.1 ` &.= k.m h k.:  ./ 3 j.q F m.3 a.B M b.3 ,.L d k.q 3.$.2 l.y [ 8.w d.0 U x.",
"5.3.O r.E = b.g t V.5 R x.& 2.[ * x.g g b.1 ` } * h.m h k.: :.%.3 j.7 T m.3 a.S N v.3 ,.L d k.q u.$.: l.s [ 9.w g.0 U x.",
"5.3.O 5._ ; M.k e B.5 R v.& 3.[ * h.g g b.1 ` ' ; d.d h l.; X.*.3 j.7 F m.5 r.B x k.6 ,.I d h.e 9.) : v.s E 9.w g.0 U x.",
"5.3.O 5.E = m.k e B.5 L h.& ,.[ = d.g g b.1 ` } = h.i h k.= } *.6 j.q F m.3 t.S M v.2 3.L y k.e 9.E : l.s E 8.w g.1 P x.",
"3.9.O 5./ = M.k e B.6 D v.& 1.{ = k.d d v.5 } &.* l.g h k., :.*.3 j.7 F m.2 r.B N b.6 >.L y h.q 0.) : l.y [ 8.r x.8 H v.",
"5.9.O 5./ ; M.M q V.6 D x.& :.[ = k.g g l.5 ` } * b.m g k.= :.%.3 j.7 R m.6 a.B v m.2 O.L y d.q 9.) : l.y E 8.r x.< P x.",
"5.9.o 5.[ = M.m e V.5 R x.& :.[ ; k.g g l.1 ` ' % v.m f k.; :.%.3 j.7 F m.6 t.B N m.3 ,.L u d.q 3.) > l.s ) 9.r x.1 I v.",
"0.9.o 5./ = b.M e V.6 R x.& 2.) * k.g g v.6 ` ' % l.m d k.; :.[ 2 k.q L m.6 a.B N b.6 ,.L d d.7 9.) , M.y [ 8.r v.3 H h.",
"3.9.. q.[ * b.M q N.5 R v.& :.[ * h.g g l.2 ` } * l.m d d.; :.%.3 j.q G c.6 a.B N b.2 ,.L u d.q 9.W , M.s E 8.s m.1 L v.",
"3.2.X r.[ & b.m t V.5 R v.# 1.[ = l.g g l.5 ` ` % l.M a d., :.[ 3 j.e D c.2 a.B M b.3 3.L y d.q 9.@.< M.s $.8.w m.6 H x.",
"q.2.o ,.[ * M.M e M.5 D v.& 2.[ * k.d y b.5 ` } * h.g s d., X.[ > y.q F h.2 y.B M b.6 O.L y d.q 0.@.: v.s $.8.w b.< A h.",
"5.2.+ ,._ * M.M q M.5 Z x.& 2.[ * k.g s v.2 ~ ` * h.u s k.= :.[ 3 d.q D c.6 s.B N m.6 O.A y d.q 9.@., m.i E 8.w v.3 H h.",
"3.2.X w.{ * M.M 7 M.6 F v.& :.[ = k.i u l.2 _ ` * d.z r d.; :.{ > j.q F m.5 s.B N b.4 >.D d d.q 9.@., v.y E 9.w v.< H h.",
"5.2.X 5.[ * M.m e M.6 D x.& :.%.= d.g y k.2 _ ` % k.m p d., :.[ 3 d.q F m.7 a.S x v.6 ,.D d h.q i.W : k.y $.8.t v.1 H h.",
"5.3.X ,.[ * M.m q B.6 D v.- :.{ = d.g y k.2 _ ` * d.g y d., } { 3 y.q T c.5 a.B x v.3 ,.L u d.7 9.) : d.r E 8.w v.< V h.",
"3.9.+ ,.[ - M.M 7 V.6 D x.& :.{ = k.g y k.5 ~ _ % h.z d d., } [ 3 d.q R m.5 a.B x v.6 ,.L r d.7 u.) : k.s E 8.q v.1 V h.",
",.3.+ 4._ & b.M 7 B.7 D v.& 2.} = d.d u l.6 Y _ % d.u d d.; ` { 3 d.e G m.5 a.S M v.4 ,.L y s.q u.( : h.r [ 8.q v.1 V k.",
",.9.+ ,.[ - m.M 7 M.7 S v.& :.{ = k.g r l.5 ~ ~ % y.g u y.= } { 3 y.7 G m.5 a.S M x.3 >.D g s.7 u.( : k.r ) 8.q v.< n h.",
"2.3.+ >.[ - b.M 7 M.4 Z v.& :.{ * d.d y l.2 _ ` % y.g d d.; ` [ 2 y.7 G m.5 t.S M x.4 ,.A y d.7 9.( , l.y [ 8.8 v.1 V x.",
"3.3.X o./ * b.m 4 M.4 Z v.& :.{ = y.u y v.5 Y ` % d.m r d.; _ _ 6 y.q G m.5 a.B M v.3 3.L y d.q u.( : b.y E 8.q v.< n h.",
"2.3.+ o._ % l.m 7 B.4 Z v.& =.' = d.u u l.2 E ` % d.z p d.= } [ > y.q G m.5 a.C M v.3 ,.L u d.q 9.W , b.g ) 8.8 x., V v.",
"3.3.. >.[ % k.z q B.7 S k.& :.' % d.u y b.2 Y ` $ y.z r j., } _ > y.q I m.5 s.S N v.3 5.D d h.q 9.R : b.d ) 8.3 x.1 n h.",
"3.3.. >.[ % j.g 7 B.4 Z v.& :.[ = d.d y l.5 U ` % d.z r d.,  .{ 2 y.7 F m.5 d.C M v.3 ,.L u h.e 9.W , b.y / 8.8 x.1 V x.",
"5.3.X X.! & k.z 7 M.5 B v.& :.' * y.i e l.5 U ~ = k.z r d.; :.%.2 y.7 F m.5 a.Z x v.3 ,.L y p.7 9.R , b.y ) 9.8 x., b x.",
",.3.o o./ % k.z q b.7 B v.& =.{ = t.u y l.2 ! ` % k.x r y.; :.=.2 y.4 G m.5 f.S M v.3 ,.L r d.q 3.G 2 b.y ) 8.9 v., b h.",
">.3.X o./ % j.z 7 M.4 Z v.& } } = y.u u l.; ! ` % k.x w t.: :.%.> e.7 R m.5 s.S M v.6 ,.L y d.q q.G = M.i ) 8.8 b., b h.",
",.,.. o./ & l.M 7 M.7 B v.& :.} = s.d d l.; U _ = d.z q w.= :.[ : e.4 R m.5 a.C x k.6 ,.L y p.q 2.R , b.d ) 8.8 x.: v h.",
" .:.X :.[ * v.M 7 M.7 B l.&  .} = d.u r b.2 U ~ % y.z q r.= :.{ = w.4 R m.2 r.B z h.6 o.L y a.q 2.R = b.u ) 8.8 v., v d.",
"} ,.X ..[ @ y.l 2 M.4 Z k.% &.{ * j.g r l.2 U _ $ h.x w r.= :.' : 4.4 R n.1 p.B z k.6 o.D y a.q 3.G = v.d / 8.8 x., b d.",
" .>.X X.[ X e.z 3 b.6 l r.& X.{ % d.g e l.5 U ^ % d.m w e.= } { < 4.3 R n., a.B l k.6 q.L y a.q 2.D : b.i E 8.8 x.1 j g.",
"]  .. .._ X t.f 3 b.6 d t.@ =.} $ 5.e y k.2 K ] * d.M w t.= } } : 4.4 R n., p.B z h.5 ,.D y a.q :.F ; v.y E 8.q x., j d.",
"] ] .  ._ X 4.d > b.5 l t.@  .} # e.y y l.2 U } * a.g r d.2 } =.: w.7 R z., p.B g k.4 3.L y a.7 2.D = b.y E <.3 x., j d.",
"] | . .._ X +.z 2 b.6 a e.@  .{ # t.p r l.: U ..= t.d 9 y.= } =.: e.q G g.2 s.D g h.4 3.L u p.7 2.F , v.r E -.q x., j d.",
"] ]   X._ + y.z 2 l.6 f w.# X.} $ e.r r l.; U } $ e.g w y.> } =.: w.8 L g.= r.S g s.5 ,.I u s.q 9.G = v.r ) 8.8 h., j a.",
"] | . .._ + y.l 3 l.6 d w.@ } { $ t.d e k.; U | $ w.z w y.=  .{ % w.7 D f.= X.l d r.6 >.D y a.e 1.F , h.r ) 8.8 h.- b d.",
"] X.. .._ X y.l 3 v.3 d w.@  .{ $ e.y e k.2 K ] $ y.z w y.: ` { % +.4 D g.; ..z f r.6 r.! y a.7 2.F : x.y [ 8.w x., j d.",
"} >.. .._ X y.l > B.5 a ,.# } { $ +.d e k.; U ] $ t.x e t.: ^ { % o.3 L g.= o.l z a.4 ,.G y y.7 3.W , x.s E 7.w x.- j 6.",
"X.X.o X._ X y.l > l.5 l w.+ X.' # e.d r j.2 K  .& s.x w t.: ` { : +.8 D g.; X.x a a.6 q.I r y.7 9.W : a.y E 7.8 h.- j d.",
" .X.. .._ X e.z > l.5 a w.@ } { $ y.d y j.2 K ] $ y.z w t.= } { = +.q D g.= ..z d t.3 r.( u y.7 1.W - 6.y E 7.8 x.- j d.",
"] :.. ..~ X 4.d , b.6 d w.# { { $ y.d e j.; K } * t.g w y.= &.{ = 4.q D g.* O.x z t.6 q.R r r.4 1.W : d.w $.7.8 x., h 6.",
"] X.  | ~ X +.d 2 l.5 d w.O } _ $ t.d e j.= U ] % s.x r y.= =.{ = +.7 D g.= o.N d w.2 3.R d r.3 3./ = l.w ) <.9 g., j p.",
"] X.. | Y . w.l 2 l.5 a e.# ` _ $ e.d w j.= U X.* a.z r t.= } { : 4.8 D z.= ..l g r.6 r.R u r.6 2.R : j.r ) :.8 g.- j 6.",
"] X.. ] ! . w.l 2 l.7 a w.@ ` _ # e.d w j., U ..* a.z w t.= ` ' % 4.w D g.= o.l f a.6 5.R u p.q 3.W = k.s E <.3 a.- j 6.",
"] X.. ] _ . +.l 2 b.6 a w.# } _ # e.p e d.: U } & t.l w y.: _ [ = +.q D f.= O.x g a.3 5.U y d.q 2./ : d.y [ :.3 a.* j 6.",
" ....  ._ . +.d , l.6 a w.# _ _ $ t.u w y.: K } * r.z w y.= _ [ = w.q D f.= o.x f r.2 5.T y a.7 3./ % k.y E <.3 h.* f 6.",
"` |    ._ . +.f 2 l.5 p w.# ` _ @ e.d w y.= U | * t.g w t.: ` [ % w.e D i.= O.v g 6.3 ,.I s r.4 3.R = v.y E :.9 x.* f 6.",
"] |   | ~ X ..r , l.7 a w.@ ` _ # e.d w d.* P ] % r.f w e.: _ [ = w.q D i.* o.l f 5.< 5.I s a.0 3.W = l.y E *.q g.* j r.",
"] ... | ~ X ..r : l.6 p ,.@ ` ! @ e.d w y.= P ] % 4.g w t.: ~ Q % w.7 D i.= X.l d 5.< 3.I y a.4 2.W : v.y Q *.8 h.- j 6.",
"` X.. | Q X +.s : l.6 p ,.@ ` _ # +.a w y.* H ] * 4.z w e.: ~ _ % +.e D u.= ..d l r.2 3.L y a.4 ,.W = k.y E =.9 h.* f 6.",
"`  .  | Q X +.p , k.7 a 4.O ` _ # +.r w d.= P | % r.h w 4.: ~ _ = +.q D u.= X.g l p.3 5.L y p.4 1.W = k.e ) =.9 v.- f 6.",
"^  .. ^ Y X +.a < l.6 a e.& ` _ @ +.r e d.= H | $ t.z 9 6.: ~ _ % 4.q D u.= ..g h r.3 5.L y r.7 ,.R = l.y / } q x.& f p.",
"^ o.. | Q . 4.f 1 v.2 a e.# ` _ # +.r e d.* H | % t.h 9 e.: _ [ = O.e G f.= ..a l r.< 4.L s a.7 2.( : k.y / =.q h.* f a."
};
