/* XPM */
static char *naruto_exit[] = {
/* columns rows colors chars-per-pixel */
"60 60 249 2 ",
"   c #010000",
".  c #06080D",
"X  c #080609",
"o  c #150802",
"O  c #191506",
"+  c #1B1608",
"@  c #1C1D1E",
"#  c #191515",
"$  c #100C10",
"%  c #280C0C",
"&  c #2C1516",
"*  c #371918",
"=  c #2F100C",
"-  c #3B201D",
";  c #1E1F20",
":  c #391E22",
">  c #1F2020",
",  c #232424",
"<  c #2C2C2C",
"1  c #272728",
"2  c #392426",
"3  c #333333",
"4  c #3B3C3C",
"5  c #383737",
"6  c #2F2F30",
"7  c #47170D",
"8  c #461916",
"9  c #4E1311",
"0  c #472318",
"q  c #582518",
"w  c #5F210D",
"e  c #662919",
"r  c #71341A",
"t  c #452A2B",
"y  c #482828",
"u  c #552C27",
"i  c #54322A",
"p  c #4B3435",
"a  c #563634",
"s  c #4C2F2F",
"d  c #673829",
"f  c #653A36",
"g  c #73362D",
"h  c #6A1B13",
"j  c #48433D",
"k  c #5C4138",
"l  c #67443A",
"z  c #764938",
"x  c #724128",
"c  c #7E613A",
"v  c #3E3F40",
"b  c #434343",
"n  c #4E4A46",
"m  c #4D4C4A",
"M  c #494543",
"N  c #514E4B",
"B  c #514C45",
"V  c #55514C",
"C  c #575654",
"Z  c #795444",
"A  c #635E58",
"S  c #755149",
"D  c #6C655C",
"F  c #66635E",
"G  c #70685E",
"H  c #6A6763",
"J  c #726D66",
"K  c #79746D",
"L  c #7C7772",
"P  c #993A17",
"I  c #882F13",
"U  c #AB3B17",
"Y  c #893C22",
"T  c #95481B",
"R  c #AA461B",
"E  c #B54F1A",
"W  c #864529",
"Q  c #984628",
"!  c #884935",
"~  c #995638",
"^  c #8E5236",
"/  c #A8572A",
"(  c #B95B2B",
")  c #A75C3A",
"_  c #B65C34",
"`  c #AC4922",
"'  c #8F6433",
"]  c #A9653B",
"[  c #B9663B",
"{  c #AF6E2E",
"}  c #9F6B1F",
"|  c #D04C1A",
" . c #D5641F",
".. c #CD5827",
"X. c #E65524",
"o. c #C76B29",
"O. c #C66739",
"+. c #D7743B",
"@. c #D2702F",
"#. c #E86C26",
"$. c #EC752A",
"%. c #EF732E",
"&. c #EE5C1C",
"*. c #835B48",
"=. c #985B43",
"-. c #9F4E41",
";. c #88614C",
":. c #9D6345",
">. c #8B6452",
",. c #956853",
"<. c #977555",
"1. c #A56343",
"2. c #A86848",
"3. c #BD6D44",
"4. c #B56944",
"5. c #B8724C",
"6. c #AB6E51",
"7. c #AC7555",
"8. c #B57554",
"9. c #B06B52",
"0. c #827C74",
"q. c #A05940",
"w. c #C46C46",
"e. c #C47348",
"r. c #C67853",
"t. c #D47B48",
"y. c #DF300D",
"u. c #AD8835",
"i. c #B09539",
"p. c #D78935",
"a. c #F8862D",
"s. c #F88935",
"d. c #FB9837",
"f. c #EB9038",
"g. c #FBA93B",
"h. c #FBB133",
"j. c #D7A237",
"k. c #B08E4C",
"l. c #89837B",
"z. c #92847E",
"x. c #B28B6E",
"c. c #BAA24D",
"v. c #D3924B",
"b. c #F79846",
"n. c #EA9048",
"m. c #D1AA50",
"M. c #FBAA42",
"N. c #FBBA45",
"B. c #EEB053",
"V. c #CA9977",
"C. c #CD9069",
"Z. c #D6A772",
"A. c #E5B36F",
"S. c #E39369",
"D. c #FDCB4B",
"F. c #FAC646",
"G. c #FCD54B",
"H. c #F8C757",
"J. c #FDD859",
"K. c #FCE54C",
"L. c #FDE854",
"P. c #FFF159",
"I. c #F9CC66",
"U. c #FCD868",
"Y. c #FDDC74",
"T. c #FCDE7A",
"R. c #F4CA70",
"E. c #FEE46B",
"W. c #FDE473",
"Q. c #FFEB73",
"!. c #FEE779",
"~. c #FFF075",
"^. c #FFF469",
"/. c #DBC064",
"(. c #FAD83D",
"). c #968D84",
"_. c #9C948C",
"`. c #928F8B",
"'. c #A69B8E",
"]. c #A39C94",
"[. c #B58E82",
"{. c #ABA298",
"}. c #BBAD9E",
"|. c #B3A99C",
" X c #ABA18E",
".X c #B7ACA3",
"XX c #BEB1A2",
"oX c #B9B2AA",
"OX c #ACADB1",
"+X c #B6B7B9",
"@X c #A6A8AD",
"#X c #D3AE89",
"$X c #EABC8A",
"%X c #C3B5A5",
"&X c #C6B8A7",
"*X c #C9BAA6",
"=X c #C5B7A9",
"-X c #C6B9A9",
";X c #CBBCAC",
":X c #C8B7A9",
">X c #CDBFB0",
",X c #C0BFBF",
"<X c #D3BBA8",
"1X c #D1A891",
"2X c #F4CD91",
"3X c #CEC0AE",
"4X c #D1C2AE",
"5X c #CEC1B1",
"6X c #D2C4B3",
"7X c #D6C9B6",
"8X c #D9CAB6",
"9X c #D6C9B9",
"0X c #DACDBB",
"qX c #D8C7B7",
"wX c #DDD0BE",
"eX c #E2D2BE",
"rX c #F7D7AF",
"tX c #FDE6B7",
"yX c #FBE6A6",
"uX c #EED096",
"iX c #BDBEC2",
"pX c #C0BFC0",
"aX c #BFC0C5",
"sX c #C3C3C5",
"dX c #C8C9CC",
"fX c #DED2C1",
"gX c #CCCDD1",
"hX c #CFD0D4",
"jX c #D3D3D5",
"kX c #D5D6D9",
"lX c #DADBDD",
"zX c #D8D8D8",
"xX c #D0C9C1",
"cX c #E2D4C3",
"vX c #E9DBC9",
"bX c #ECDBD0",
"nX c #FBE8C9",
"mX c #F8E9D9",
"MX c #FDF5DB",
"NX c #F0E8D4",
"BX c #DDDFE1",
"VX c #DEE0E3",
"CX c #F9EDE4",
"ZX c #FBF4EC",
"AX c #FBF4E8",
"SX c #FCFAF5",
"DX c #FEFEFE",
"FX c #F9F5F1",
"GX c #ECE8E4",
/* pixels */
"3X;X*X%X0XeX8X6XxX0X0XvXNXvXeXvXnXeX8XeX8XeXqX6XqX8XqX0XfX0X6XvXvXcXcXNXvXcXcXeX8X6X>X<X4X6X0X0XwXcXbXvXcXcXeX0XcX0X;X6X",
";X;X;X}.F j j p p j j n V B V V V B B B N N N M B B n B N B M N N B N N N N B M M M p M b b n n n N N N n M j j B ).6X;X",
"%X%X6XJ   # @ @ @ @ ; # @ @     o   o o O O o + O + + + O O + O O O O O O O O O + O + + O O o o o o o o # @ @ +   # ;X;X",
"%X*X6XA   lXDXDXDXDXDXDXDX1X1.2.] _ v.R.A.B.B.I.Y.U.I.T.H.I.I.I.I.W.!.Y.Y.E.H.E.W.Q.Q.E.Q.U.b.p.v.A.$XNXDXDXZXrXk.. -X3X",
"*X;X8XD   BXDXDXDXDXDXDXGX[.2.1.[ v.A.U.B.n.Y.Y.!.Q.Y.!.I.I.Y.Y.U.W.!.H.J.U.E.E.Q.E.E.W.W.E.U.j.#XDXDXDXDXDXmXtXu.. %X>X",
";X%X<XA   lXDXZXFXDXDXDXqX6.9.4.{ [ v.v.{ v.Y.!.Y.H.B.M.f.j.!.W.W.W.Y.J.W.W.~.Q.U.H.J.^.~.W.Q.E.B.rXDXSXDXFXmXyXu.. %X>X",
"%X%X8XD   lXDXmXmXDXDXfX] 1.) 1.2./ { { o.v.E.!.c.W / { @.} v.~.W.W.Q.m.H.^.G.F.H.E.E.B.H.J.H.F.B.$XZXDXDXZXmXU.i.. -X6X",
"%X%X6XF   lXDXCXFXDXbXx.V.1X<Xx.~ { O.{ T p.W.Q.;.u f a l f i m.~.Q.~.' W { E p.^.W.Q.c.* w E A.$XrXSXDXDXCXCXU.u.. XX6X",
"%X%X6XD   lXDXFXDXDXFXDXDXDXFXzXx.{ ' 0 r d Y.W.c l S B S l f x m.!.~.c.G ,.<.d } Q.^.m.o : v.#XDXDXDXDXZXCXSXnXk.X %X5X",
"%X:X6XD   BXDXDXDXDXDXDXDXFXFXGX{ 2.% * - 0 /.R.^ ;.<.7.x.#XuX#Xm.R.E.T.yX2XA.;.% } ^.E.} S DXcXGXDXDXDXMXAXDXDXk.X %X6X",
";X>X0XH   >XDXDXDXDXDXDXDXSXDXx.x.GXp % * O c./.l c Z ;.>.7.Z.uX$XR.U.!.2X/.C.^ q = } ^.j.A.ZXDXDXDXDXDXnXCXDXAXk.. -X3X",
";X>X8XG   / <XDXDXFXDXDXDXDXBX1XFXDX).o - $ u.c.l ;.;.,.>.l 7.Z.A.2X/.E.2XZ.r.Q q 9 = v./ x.DXDXDXDXDXDXrXZXDXtXi.. -X;X",
"<X;X0XJ   2.4.V.FXDXSXDXDXDXCXSXDXDX0.o - & ' k.f ;.;.>.S ;.;.7.#X2XA.m.A.C.O.Q 8 7 9 h T #XDXDXDXFXMXCX2XAXuXE.i.X -X&X",
";X5XfXD   1.r.) r.mXDXDXDXDXDXDXDXDXS % 2 & x ;.z Z ;.;.l G ;.,.x.$X#XZ.C.9.O.Y * 9 9 9 R ` bXDXDXnXtXnXI.H.F.^.i.. XX3X",
"5X>X9XD   1.r.r.4.w.vXDXFXFXDXDXDXDX*.9 i y i z Z Z >.Z l S Z Z ,.x.V.x.7.] ..r = 9 h P O.P mXDXnXnXSX2XR.D.E.P.i.. oXXX",
"*X>XfXD   q.r.t.r.[ O.r.t.e.r.Z.rXDX|.h x u y i l Z >.>.Z ;.Z >.<.k.x.k.;.! g 8 9 I E ` ` ) DXtXtXDXtXmX2XJ.K.P.i.. 3X3X",
"&X;XcXD   1.w.w.w.5.3.( ( O.o...@.v.V.q d ! d 0 & 0 s s k l k k a i a s u 9 d ~ ) ) E P U _ nXyXSXZXuXnXG.L.L.MX XX -X-X",
"*X*XcXG   2.e.V.C.3.e.3._ ..O.O._ ( ` e e ! y y Q I e g z i d d g S ! Y h I Q d ! _ ` Q U v.CXSXDXmXMXY.K.W.MXDX X. -X;X",
"4X;XwXD   ) C.SXSXV.O.w.O.[ _ _ _ O.Y g e g *.f n.h.( Y ) 9.x.9.2.) Y I $.h.+.u q...@.P E nXDXDXSXAXyXL.E.uX2XH.{ . 3X3X",
"4X4XfXF   2.Z.DXDXFXr.4.[ [ _ / _ Y r I ! Y =.=._ n.v.1.:.1.8.9.~ ^ -.9.M.M.[ ) 4.+...P S.DXDXDXDXnXP.L.D.D.F.G.u.. 5X3X",
"*X3XwXD   qXrXrXrXtXS.@.t.[ [ [ Q P | I W ) =.:.2.6.7.8.7.7.9.8.8.8.5.r.5.w.4.w.O.%.#.#.rXDXCXtX2XL.G.G.G.J.D.J.u.. 3X3X",
"%X;XcXF   A.yXmXZXCXMXuXB.B.+.{ @.%.$.R I g ~ =.2.6.7.9.7.9.8.8.8.8.8.5.5.3.w.+.%.s.#. .n.b.h.h.(.K.F.g.h.D.D.J.u.. XX3X",
"%X-XcXG   m.] [.bXzX:Xx.! / d I d.$.#. .P w ~ =.,.6.6.7.7.9.6.8.5.5.5.5.5.w.w.+.b.@.R | d.g.F.K.L.F.D.F.d.N.F.G.u.. &X3X",
"*X*XcXD   ' - = 7 7 = = * % 2 g #.a.a. .U I W ) =.2.6.6.9.9.Z.2X8.5.5.3.4.w.O.+.s.R | | #.g.G.L.h.D.D.D.g.g.g.D.i.. 3X6X",
"%X%XcXG   o = * & * 8 2 * * a l ! @.a.#.| I e q.=.2.6.6.6.) $XtXC.4.5.5.e.O.+.s.a.| | &.y.$.K.D.d.d.g.M.g.d.d.M.{ . -X3X",
"%XXXcXG   & * * * * * * & & f z -.t.t.Y  .I e ! =.:.2.2.2.^ C.C.4.5.3.[ +.O.%.a.a.a.$.d.d.F.L.K.N.d.d.d.d.d.d.M.{ . XX0X",
"}.XXfXD   * * * * * * & o 2 f a a g 4.g u q e g ! 1.1.2.9.1.Y Q 4.3.O.e.+.%.g.G.K.K.P.K.K.P.P.P.J.G.D.N.M.s.b.M.{ . %X5X",
"}.%XfXF   * * * * * %   & y a a a a a a a p s : d 1.1.=.~ ) 1.9.2.[ [ O.+.N.L.f.$.p.F.L.L.G.h.d.g.h.D.D.b.b.n.M.u.. %XqX",
"XX%XeXD   8 u 8 : &   = = t a a a a s s s s p s d y z ] 1.) ~ ) ) [ O.O.s.G.%.| | U g.h.%.&.&.&.a.d.M.s.n.n.n.b.{ . %X5X",
":X:XeXH   _ v.g s & = q % y a s p a z p s s s d ~ y y u ! ) ~ ~ ) 4.w.+.#.M.+...R .. .| | | X.%.%.%.d.n.n.n.n.$X' . -X6X",
":X*X0XD   ~ -.f s & = & & t a a p a z p p s s i d t s y y q g ] [ [ +.` o.d...U U | R E | ..#.#.X. .#.n.mXSXDXDXx.  XXwX",
"*X;X0XH   : : y & % % & : 2 y s s t 2 s t t y u y 2 * y y y 8 7 W ~ r T @.` r r P P Y P R ` ` ` ` ` E ..+.eXVX<X;.$ =X8X",
";X5XwXD   . X   X                                                                                                 # =X7X",
";X5XeXK $ , 1 , , , , , > > > ; ; ; ; ; ; ; ; ; ; ; ; ; ; ; @ @ @ ; , @ @ @ > > @ > @ ; > @ > @ @ > @ & ; , @ 1 > 6 XX7X",
";X>X0XoX@XOXOXOX+X+X+X+XiXaXsXsXaXdXdXdXgXgXgXgXhXhXjXjXkXjXjXjXkXkXkXlXlXkXkXlXlXzXzXzXzXlXlXlXlXlXlXlXlXlXlXkXBXzX5X5X",
";X5X0X.X@XOXOX+X+X+X+XaXaXaXsXdXdXgXgXgXgXhXkXkXkXkXkXkXzXzXlXlXlXlXlXlXlXBXBXBXBXBXVXVXVXVXBXBXBXBXBXVXVXVXVXVXVXlX5X5X",
"*X7X9XoX@XOXOX+X+X+X+XiXiXaXsXdXdXdXdXgXgXgXjXjXkXkXkXkXkXkXkXlXlXlXkXBXBXkXlXlXlXlXlXlXlXlXBXlXlXBXBXlXlXBXlXlXVXzX5X5X",
";X6X6XoX@X@XOXOX+X+XiXaXaXsXaXdXdXgXgXgXhXhXhXkXhXkXkXkXlXlXlXlXlXlXBXBXBXBXVXVXVXBXBXBXVXVXVXVXBXBXBXBXVXVXVXVXVXzX5X6X",
";X5X9X-XOXoXOX+X+X+X+X+X5X+XiXaX,X5XsXsXdXdXdXdXjXhXgXgXgXgXgXhXhXkXkXhXgXhXhXhXjXjXjXjXjXzXzXzXkXjXzXzXzXzXzXzXzXxX5X5X",
"-X6X9X5X6X6X*X;X0X6X6X6X,XXX%XXX}.}.%X}.}.}.*X*X).C b b 4 4 4 b M C H `.5X5X-XXX}.*X;X&X&X*X*X;X6X5X0X*X&X*X6X6X0X;X5X3X",
"3X6X6X5X6X6X3X9XwX7XwX6X;XXX=XXXXX%X}.%X}.&X4XJ > , , , 1 1 1 , , , , 1 J 6X5X*X%X%X;X;X*X-X*X4X6X6XxX5X=X;X6X9X0X>X5X*X",
"3X7X9X6X6X7X5XwX8X7X9X9X;XoX;XXX%X*X%X|.%X3X_.@ < < < < < < < < < < < < ; ).9X;X;X;X6X*X*X-X%X;X5X5X9X5X%X-X3X6X0X-X>X6X",
"3X7XwX6X7X9X6XwX7X7XwXwX;XXX3XXX3X|.j 6 G 6XG @ < < < < < < < < < < < < , A wX).B C %X*X*X%X;X6X6X5X9X;X%X-X5X6X6X>X6X;X",
"5X9X0X9X9X9X9X0X0X0XfXwX&X%X&XXX4Xz.@ , < 4XF @ < , 1 1 < < < < < < 1 < , C 6Xb 1 , l.4X%X-X;X4X9X6X9X>X-X%X;X9X9X>X>X;X",
"5X9X9X9X8X8X6X0XwXwXfXwX;X%X&X}.4Xl.> < 3  Xj > , 1 1 1 1 1 < < < < < 6 , B =Xb 3 < 0.<X%X-X*X6X6X9X9X;X:X*X;XqX9X5X;X;X",
"3X6X0X9X8X8X5X9XwXwXfXwX3X=X3X}.4XK > < 5 j @ 1 , , 1 , 1 1 1 < < < < 3 6 ; H b 6 1 K 4X%X-X*X4X9X9XfX;X%X*X;XqX6X-X>X;X",
"3X3X9X7X7X7X3X0XwX0XfXwX3X-X=XXX4XL , < 6 |.V > , , , , , 1 1 1 < < 6 3 < A oX5 3 < K >X*X;X;X6XqX9X9X;X%X;X*XqX>X6X;X;X",
"3X3X7X6X6X7X3X8XwX9XwXfX3X3X;XXX7XL 1 6 < V t , , , , , , , , , , < < 3 < V J 3 3 < 0.;X=X;X;X6X0XqXfX>X;X;X;X6X>X;X>X;X",
"=X3X7X5X9X0X-X6XwX8XwXcX5X=X-XXX7Xl.< 6 6 0.n > , , , , , , , > , 1 1 6 6 m F 5 5 < l.4X%X3X3X6XwX9X9X-X-X=X*XqX;X;X6X:X",
"9X6X5X3X6X7X=X6X8X8XvXwX5X3X5X=X3X'.6 , n cX).# , , , > , , , , , , , 6 1 {.cXb , , '.7XXX3X3X6X0X0X9X;XXX%X;XqX5X5X5X*X",
"wX9X5X-X5X6X-X;XwXwXcXcX5X;X3XXX-X;X_.l.XX8X|., > > , > > , > > , , > 1 5 oX9X|.L z.4X4XXX3X&X3X0XfX0X5X%X%X;X6X;X>X>X*X",
"6X9X6X-X;X*X%X=X9X8X8XcX5X;XXX-X5X3XXX=X5Xl.J 5 @ > @ > @ @ & @ @ & , , j _.3X8X7X4X7X6X%X3X-X3XwX0XcX;XXX%X;XqX;X=X6X;X",
";X7X5X%X-X-X%XXX5XwX7X0X6X;X;X-X3X-XXX.X{.b b b 4 3 3 6 6 < 6 6 3 3 5 5 b b K 6X-X*X;X;X-X-X-X0XfXfX9X5X%X=X;X6X5X;X3X;X",
"9X6X;X&X=X;X;X%X3XwX9X0X5X-X4X;X3X3X=X-XH b l.J b v 4 4 4 4 4 4 v v v m 0.L v {.5X&X3X;X-X3X3X8XfX0XfX;X%X=X:X6X>X5X3X;X",
"fX6X5X%X=X>X;X%X&X6XwX0X5X;X5X;X-X=X5X{.v J ].{.C 4 b 4 4 4 4 4 v v 5 0.oX].C F 7X-X;X3X-X5X3X5XwXwXqX5X%X:X;X6X-X-X;X;X",
"fX9X:X%X*X;X=XXX=X3X0X9X5X;X;X-X3X=X-XF m `._.].l.l.`.m m 4 4 C m L l.].|.].`.v _.6XXX=X3X3X5X7XfXfX0X;X%X:X*X>X%X*X4X;X",
"9XfX5X>X%X%X>X;X>X8X8XqX5X-X>X>X&X3X'.4 K _._.`.]._.C v b 4 4 m b F OX@X.X].].C C 5X5X5X;X3X5X7XcXwX0X;X%X%X;X3X%X;X3X-X",
"5X9X5X;X*X&X;X;X;XqXqXfX6X-X;X5X;X3X_.5 m H L `.`._.J F C C m V A l.oX{._.0.K m m 5X9X9X;X5X5X5X0XvXfX;XXX-X3X6X=X;X3X-X",
"%X%X;X-X*X;X;X3X>X6X0XfX6X;X;X6X;X=X=Xl.C v 4 4 b V C H C C C H J H C m b v v C ).7X6X7X3X5X5X7XfXfXfX-X%X*X6X5X;X5X3X;X",
".X*X;X;X3X4X;X;X6X9X0XfX6X;X%X*X;X;XXX;XoX|._.L H C m b v v v v v b C F L l.{.5X9X5X8X6X5X3X6X9XfXfXfX-X%X-X6X5X;X6X;X9X"
};
