/* XPM */
static char *sol_girs[] = {
/* columns rows colors chars-per-pixel */
"60 60 37 1 ",
"  c #AFA194",
". c #B4A699",
"X c #B6A99B",
"o c #BAAD9E",
"O c #BDB09F",
"+ c #BCAEA1",
"@ c #BEB1A1",
"# c #C1B09F",
"$ c #C0AFA1",
"% c #C3B5A5",
"& c #C8B7A4",
"* c #C6B8A7",
"= c #C9BAA7",
"- c #C5B7A8",
"; c #C8B7A9",
": c #C6B9A9",
"> c #CBBDAC",
", c #CCBFB0",
"< c #D0BFB1",
"1 c #CEC0AE",
"2 c #D1C2AE",
"3 c #CEC1B1",
"4 c #D2C5B4",
"5 c #D5C8B6",
"6 c #D9CAB6",
"7 c #D3C7B8",
"8 c #D6CAB9",
"9 c #DACDBC",
"0 c #DDD1BE",
"q c #E0CFB8",
"w c #E1D3BE",
"e c #DBCFC0",
"r c #DDD2C1",
"t c #DFD8C7",
"y c #E2D5C3",
"u c #E5DAC7",
"i c #E6D9C8",
/* pixels */
"1>-%14=%,-,7re4q94>>>3:@-1:>31%8947808431:@o@-1>3898343383>4",
"=,:*>1=@%,>7i94qq2>433>+=:=141@8047te743:1@:-->13388543>871>",
"%=-*-;-%@>>8i08964&>>>:@->>17>-8047788331*1:->3>33e843>,444:",
"%>-@-%-&%=38i98ww4=,31:@->113>:908389831311+-@>>37t817,,473>",
"->,>=-31-=33y86ww2;3>=-@-:,,3,:et8880943111-O@1133r8421-883:",
">;%==-1>-3>4u47wq<=>,:*:-:>,3:@70e3t8841133-@:1:38r4141%88>3",
"@-====2>14>3y74wq<>>>--:@-,33,:e88380833>33@@11133r533>@8831",
"%*-*->4447,4y86yw4&>,-%-@::73@+et8:t08133@3--:1:3387334%39:1",
"%=--<49444>4rr9yy1-13@-@@,>3>::e94:888,,111%::1133e3188:7r11",
"-=>>469444>,re8w91-:3-->:>>3,@@ee73877,,%*1*%>1:>7e3183>39>3",
"=4>3996433=3y94w01>:3:-3,>>73@@et889833,:*1OO>>>37e749333r3>",
"=4:7994483-3i99w041@11-3,>>3,>@e084ee7331*1:%>>>37t7407:793-",
">4>7864,8,-7y80wq2=-3@-83>33@,@ee870e711:11@:3:333e7381:383-",
">43>944,33-3y99962=:3:@@>>3733,ee84877111:*@@:,337873811371-",
">3>>e>>,73>8re696>=>13@13-33@3@ee3397e3131O*o,3,37r73513383-",
">33,9>>>73>7y89y6>=>17@@-@733@+79337783141@@X,3433871513787@",
"&17-464>4,;,y45092*>,7-o%>7>>-+80714384:1:%o%:1337772931184-",
"=14>664,7,@,r899w4>4=73>,4733,370818383::3::%%1,:7843833347-",
"123=69244,%3y99664>2>4,474,33>,79448831,11:%*%1*37844537337:",
"244>99>>7>>,e86462>2-44874>3::@e981487::%:%:%:11:7847413338>",
"=43:96447>>39884q4>2>4>47:33>3@e0514093>:%1O*111178334133>3>",
"%>53r6233->399r5q4>6>4>=13>3>:@e0818983>1:%OO111@3833>>7333:",
"->5>r9133-%30884r4<6<4>413333@>e8873804>%:%111113:8333>3>331",
"=>5:80134--38043q4464<=43>33:3@79837884:%%%1%1%133833333>333",
"%-8:49248113r773w466171*1>33:-:80434994:-%-==->1@3e33333>33>",
"%%7379,48::3r9840626134>1311:->85511854%--->-=>::7e73313>>37",
"o*7-4r4>93-,994404493@3t33333-384341894:%-::::1>37e311333->1",
"X-1=79,44>>:rr8404581@->3333:>@85544093:%@o%:=1133e331733>>7",
"@-3=69797:1,904504667--7733>>@>784888e3@%*oX::>224873>1333>>",
"=,7179>84->36937626683334333:>:88388e831%@oO>%:34873317732>7",
"->3>89>88-@1r935924651413333:>>78883981@1@11-%->38411>737::8",
"=33>80178,-7r016624444113477@:>7988389@11@*@*-13177731837>>7",
"=44*9r>84,>3t94422646<>24464@1:798818711@@33@33378937>44,=,7",
"147:89<94;,3e847>6<66>224>64@1379864771@@31:@@137383,=74>4=7",
">,6>89304<;49847264661>24+>2@:388055e71113@@@:13,3833=7477>7",
">48-993846<,99484444<2>2>;>=33388055e8@:@@@11@1337r73>444>33",
"=58=85333771r846>224>121,>>,>33r8058883@@1:@@@338793,>747>11",
":44:85;>4>37y978766838528748483t804854@+@:@:::13738>==454>44",
">45:74=>54755:4>>:>>>>4>33>-,-@9083884@+@11@@111738>>=655374",
">44476=>0478>#-++ooo+@;%-%;o@+ 37875411@o-11@:1173e,;>456>1>",
":27244:80488>@-@#%$+%-3%@:1@++ ,8854831>@-1:*::2738,->459>4=",
"179444706588>@:-%%%oO-3-@:@@++X3008837>-::1=*:*14,7,-=149->4",
"18944670550r:O1@=-@@o%4-:*@@@++30043383->:3==%>27>8,-->47>4=",
"299599809000:%-%*=%@%*:X%*1@@+.3r88348>;:34---12749,;->693<>",
"3956654600r01%*O-*O%%>-%-*>%:@+749838>4,=>2%-*:2489:;;>88>>>",
":506664500rr3-1@-@%@%**&=*>%:@+778046>47,<>-*:>249e>&;>67->>",
"=28466:9w9r01:-@--%+@%=<=&>-:@X788056433,4=-=>>4966<%;>4,4<<",
"34444915w50r11*-:%O%%>>42=<=>@+8000584443,=%=2>2989>>>>4>>2&",
";34469;4060y4%--:*@@>3344><=>;@30r0543333->=&:14069>-;;4>,4;",
"843>77;469iw7:1--:@O>3144=<>;%@49r068433>*22%114997>+%>6>4<=",
"r83;,4&>909i3>>-1:XO,>43%=4>-%o800063333>-22%::19rq<-->4>,<>",
"464;>:%;669y1:--11@@:>1%=>4=>-o800r53337>=65%1:4e9r,#%>4>=>>",
"151%---@495q4>>;1-%o-3,>6>>=:-+800t95443>>=:->-6rr9>%&>4,>1>",
"64:-->=-19893=2>:>*%:3=4q<>=:@Xe05t08343>-1>:116y9e,%-><,31>",
"r73--,>%*5994>,>>:**-3366>,3>@.905t833381=:1:1:49w9>%;;4-=1>",
"r5=%=>;@*1993-:>>:*-:>24,>>3>:X8080r84344>--1144y99>%-=2%=2:",
"8r7=-%>>2696,=,>>>%&,-,73>,<>-.40500r313>>>4><44yre>%%>1%>1-",
"374>>&>=>49e7->4>>%%,3>3=>&2>-o808r002334447><<49ye>@;14;:2-",
"%%=->=>3<49r4>><>-@%:3>>:->42%@rr0r093184264<<44rrr>%=24:32>",
"o=<>22:-489e7=&;=>%@:>1>=;%>4=@908000:3842664>449yr-%;4414>8"
};
